<svg width="52" height="56" viewBox="0 0 52 56" fill="none" xmlns="http://www.w3.org/2000/svg">
<g clip-path="url(#clip0_10:62)">
<path d="M51.915 19.83C51.9563 19.9154 51.97 20.0116 51.954 20.1051C51.9381 20.1987 51.8933 20.2849 51.8261 20.3518C51.5027 20.684 51.1514 20.9878 50.7761 21.2597C50.2549 21.6027 48.4851 22.5493 48.0597 22.7964C47.6343 23.0435 45.1789 24.2916 44.7809 24.429C44.2413 24.6075 43.6852 24.7316 43.1209 24.7995C42.5722 24.8541 41.9825 24.6346 41.9825 24.5797C41.9825 24.5247 40.7204 22.1928 40.638 21.5614C40.5223 20.9604 40.3616 20.3689 40.1572 19.792C40.1572 19.792 40.1165 20.107 40.0619 20.6145C40.0073 21.122 40.0344 21.8495 40.0069 22.1237C39.9794 22.3979 39.4716 31.905 39.4854 32.2755C39.4992 32.6459 39.3484 33.7707 39.3484 33.7707C39.3484 33.7707 39.554 40.0813 39.4991 40.3419C39.4441 40.6025 39.4716 40.6569 39.5127 41.0141C39.5538 41.3713 39.6912 44.2929 39.7325 44.7456C39.7738 45.1983 40.103 49.3413 40.1987 50.4935C40.2944 51.6457 40.1576 52.7433 40.2811 53.388C40.4047 54.0327 40.4322 54.5405 40.1438 54.76C39.8554 54.9794 38.333 55.2675 37.5923 55.309C36.8515 55.3504 34.5333 55.4871 34.1078 55.5015C33.6824 55.5158 32.1048 55.7346 31.5836 55.7071C31.0625 55.6796 23.0232 55.7207 21.5689 55.8306C20.1147 55.9405 16.7263 55.9677 15.5326 55.762C14.339 55.5564 12.1994 55.0211 12.1994 54.7194C12.1994 54.4177 12.3776 50.9607 12.3776 49.3556C12.3776 47.7505 12.7626 44.3207 12.7755 43.0863C12.7885 41.8518 13.1185 36.5838 13.1185 35.9113C13.1185 35.2387 12.8718 32.6738 12.8441 30.7803C12.8165 28.8868 12.5561 21.1638 12.3912 20.8483C12.2264 20.5328 12.1306 20.5461 12.0062 20.9579C11.8818 21.3696 11.6912 22.1241 11.4165 22.4671C11.1417 22.8101 10.8675 23.2488 10.5248 23.7703C10.4176 24.0328 10.1244 24.4068 10.0719 24.5245C9.97149 24.7508 6.84809 23.8114 6.01194 23.4273C5.17579 23.0432 2.88399 22.1102 2.12922 21.63C1.37444 21.1498 0.20859 20.2444 0.13999 19.9289C0.104204 19.8135 0.0858005 19.6934 0.0853882 19.5726L0.661492 18.6944C0.661492 18.6944 0.565415 18.763 0.702614 18.5163C0.769315 18.3842 0.862758 18.2673 0.977013 18.1733L1.12769 17.6518L5.06519 9.18755C5.06519 9.18755 5.70989 8.1449 5.88769 7.7886C5.99891 7.5328 6.09246 7.26969 6.16769 7.0011C6.30185 6.55601 6.55195 6.15461 6.89236 5.83804C7.30083 5.44783 7.75081 5.10353 8.23426 4.81132C9.19449 4.26235 12.0204 3.13762 14.2291 2.31425C16.4377 1.49087 19.9787 0.352495 19.9787 0.352495L20.9253 0.00949478C20.9253 0.00949478 22.0229 0.640545 22.8328 0.860345C23.6427 1.08014 25.2885 1.51887 26.5506 1.4501C27.8127 1.38132 29.4031 1.4501 31.0914 0.21547C31.2563 0.177934 31.4288 0.192173 31.5854 0.256245L32.5594 0.489695C32.5594 0.489695 32.9157 0.44857 33.0256 0.544645C33.0964 0.604927 33.1747 0.655591 33.2587 0.69532C33.2587 0.69532 39.2401 2.79444 40.2965 3.23282C41.353 3.67119 42.834 4.24782 43.4654 4.68707C44.0968 5.12632 45.9762 7.67782 46.4562 8.72047C46.8979 9.68087 51.0762 18.0903 51.915 19.83Z" fill="url(#paint0_linear_10:62)"/>
<path opacity="0.3" d="M51.8296 19.8299C51.8709 19.9154 51.8845 20.0116 51.8685 20.1051C51.8525 20.1987 51.8077 20.2849 51.7403 20.3518C51.4175 20.684 51.0666 20.9877 50.6915 21.2597C50.17 21.6027 48.4006 22.5492 47.9752 22.7963C47.5498 23.0434 45.0943 24.2915 44.6964 24.4289C44.1568 24.6074 43.6008 24.7315 43.0365 24.7994C42.4879 24.854 41.8976 24.6345 41.8976 24.5796C41.8976 24.5246 40.6355 22.1928 40.5534 21.5614C40.4378 20.9603 40.2771 20.3688 40.0727 19.7919C40.0727 19.7919 40.0319 20.1069 39.977 20.6144C39.922 21.1219 39.9495 21.8494 39.922 22.1236C39.8946 22.3979 39.3871 31.9049 39.4009 32.2754C39.4147 32.6459 39.2635 33.7706 39.2635 33.7706C39.2635 33.7706 39.4695 40.0813 39.4145 40.3418C39.3596 40.6024 39.3871 40.6568 39.4282 41.014C39.4693 41.3712 39.6063 44.2928 39.6476 44.7455C39.6889 45.1983 40.0181 49.3412 40.1142 50.4934C40.2103 51.6456 40.0731 52.7432 40.1966 53.3879C40.3202 54.0326 40.3473 54.5405 40.0592 54.7599C39.7712 54.9794 38.2485 55.2674 37.5077 55.3089C36.767 55.3504 34.4484 55.487 34.023 55.5014C33.5975 55.5157 32.0204 55.7345 31.4988 55.707C30.9771 55.6795 22.9383 55.7207 21.4844 55.8306C20.0305 55.9405 16.6418 55.9676 15.4481 55.762C14.2544 55.5563 12.1144 55.021 12.1144 54.7193C12.1144 54.4176 12.2929 50.9607 12.2929 49.3556C12.2929 47.7505 12.6779 44.3206 12.6908 43.0862C12.7038 41.8517 13.0338 36.5837 13.0338 35.9112C13.0338 35.2387 12.7865 32.6737 12.7591 30.7802C12.7316 28.8867 12.471 21.1638 12.3065 20.8482C12.142 20.5327 12.0459 20.546 11.9215 20.9578C11.7971 21.3696 11.6065 22.124 11.3318 22.467C11.057 22.81 10.7824 23.2487 10.4393 23.7702C10.332 24.0327 10.0392 24.4067 9.98671 24.5245C9.88626 24.7507 6.76287 23.8113 5.92672 23.4272C5.09057 23.0431 2.79912 22.1102 2.04434 21.63C1.28957 21.1498 0.123717 20.2443 0.055117 19.9288C0.019182 19.8134 0.000662218 19.6933 0.000167847 19.5725L0.576614 18.6943C0.576614 18.6943 0.480539 18.7629 0.617389 18.5162C0.684291 18.3841 0.777842 18.2673 0.89214 18.1732L1.04281 17.6517L4.98031 9.18745C4.98031 9.18745 5.62502 8.1448 5.80282 7.7885C5.91403 7.53271 6.00758 7.26959 6.08282 7.001C6.21684 6.55586 6.46696 6.15442 6.80749 5.83795C7.21583 5.44774 7.6657 5.10345 8.14904 4.81123C9.10926 4.26225 11.9355 3.13753 14.1442 2.31415C16.3529 1.49078 19.8942 0.352402 19.8942 0.352402L20.8392 0.00905228C20.8392 0.00905228 21.9364 0.640102 22.7467 0.859902C23.5569 1.0797 25.2021 1.51843 26.4645 1.44965C27.727 1.38088 29.317 1.44965 31.0053 0.215028C31.1701 0.177462 31.3425 0.191703 31.4989 0.255803L32.473 0.489253C32.473 0.489253 32.8296 0.448127 32.9395 0.544202C33.0102 0.604572 33.0886 0.655245 33.1726 0.694877C33.1726 0.694877 39.154 2.794 40.2104 3.23238C41.2669 3.67075 42.7479 4.24738 43.3793 4.68663C44.0107 5.12588 45.8897 7.67738 46.3701 8.72003C46.8125 9.68078 50.9908 18.0902 51.8296 19.8299Z" fill="url(#paint1_linear_10:62)"/>
<path d="M51.8597 19.8008C51.9175 19.9202 51.9362 20.0548 51.9133 20.1855C51.8904 20.3161 51.827 20.4363 51.7321 20.529C51.4368 20.827 51.1172 21.0998 50.7766 21.3446C50.2554 21.6876 48.4857 22.6342 48.0602 22.881C47.6348 23.1277 45.1794 24.3762 44.7814 24.5135C44.2419 24.6922 43.6857 24.8163 43.1214 24.884C42.5728 24.939 41.983 24.7192 41.983 24.6646C41.983 24.61 40.7209 22.2774 40.6385 21.6463C40.5841 21.3106 40.5063 20.9791 40.4057 20.6543C40.3776 20.5578 40.1625 19.9007 40.1625 19.9007C40.1625 19.9007 40.0736 20.5942 40.0638 20.6845L40.0624 20.6998C40.0074 21.2073 40.0349 21.9344 40.0074 22.2086C39.98 22.4828 39.4721 31.9899 39.4859 32.3604C39.4659 32.8561 39.4208 33.3505 39.3508 33.8417C39.3495 33.8509 39.349 33.8603 39.3494 33.8696C39.3599 34.197 39.5533 40.1734 39.4998 40.427C39.4452 40.6876 39.4723 40.742 39.5134 41.0988C39.5545 41.4556 39.6919 44.3776 39.7332 44.8303C39.7745 45.2831 40.1037 49.426 40.1994 50.5782C40.2951 51.7304 40.1583 52.8284 40.2818 53.4731C40.4054 54.1178 40.4329 54.6253 40.1445 54.8451C39.8561 55.0649 38.3337 55.3526 37.593 55.3937C36.8522 55.4348 34.534 55.5718 34.1085 55.5862C33.6831 55.6005 32.1055 55.8193 31.5843 55.7922C31.0632 55.765 23.0239 55.8058 21.5696 55.9147C20.1154 56.0235 16.727 56.052 15.5333 55.8461C14.3397 55.6401 12.2001 55.1055 12.2001 54.8038C12.2001 54.5021 12.3783 51.0448 12.3783 49.4397C12.3783 47.8346 12.7633 44.4047 12.7762 43.1703C12.7892 41.9358 13.1192 36.6678 13.1192 35.9953C13.1192 35.3228 12.8725 32.7578 12.8448 30.8646C12.8172 28.9715 12.5568 21.2479 12.3919 20.9323C12.2271 20.6168 12.1313 20.6306 12.0069 21.0422C11.8825 21.4538 11.6919 22.2081 11.4172 22.5511C11.145 22.8911 10.8726 23.326 10.5336 23.8421C10.5284 23.8503 10.5238 23.8589 10.5199 23.8678C10.4086 24.1303 10.1246 24.4931 10.0728 24.6091C9.97235 24.835 6.84896 23.8956 6.01281 23.5115C5.17666 23.1274 2.88485 22.1944 2.13008 21.7146C1.3753 21.2347 0.209453 20.3289 0.140853 20.0134C0.108653 19.8645 0.0946552 19.7766 0.0883552 19.7257C0.0837543 19.6852 0.0936079 19.6444 0.11618 19.6104L0.600757 18.8717C0.619041 18.8411 0.628883 18.8062 0.629281 18.7706C0.643202 18.7098 0.668173 18.6521 0.702954 18.6003C0.764913 18.4838 0.845347 18.3781 0.941128 18.2874C0.964978 18.2661 0.98248 18.2386 0.991703 18.2079L1.12436 17.7489C1.12697 17.7404 1.13012 17.732 1.13381 17.7239L5.06098 9.28084C5.0639 9.27482 5.06717 9.26897 5.07078 9.26334C5.13221 9.16359 5.7195 8.21054 5.88873 7.87262C5.99408 7.63174 6.08284 7.38395 6.15438 7.13096C6.29725 6.65594 6.56426 6.22763 6.92788 5.89022C7.32652 5.51272 7.76468 5.17928 8.23478 4.89569C9.195 4.34707 12.0209 3.22199 14.2296 2.39862C16.4383 1.57524 19.9778 0.436865 19.9778 0.436865L20.8488 0.121866C20.8724 0.113348 20.8975 0.110003 20.9225 0.112057C20.9475 0.11411 20.9718 0.121513 20.9937 0.133766C21.5769 0.466209 22.1926 0.73806 22.8312 0.945066C23.6407 1.16452 25.287 1.60359 26.5491 1.53482C27.8043 1.46657 29.3851 1.53482 31.062 0.320491C31.0801 0.306834 31.1009 0.297118 31.123 0.291966C31.2745 0.265065 31.4305 0.280693 31.5737 0.337115C31.5812 0.34016 31.5889 0.342675 31.5968 0.34464L32.5288 0.56759C32.547 0.571944 32.5658 0.57342 32.5845 0.571966C32.6697 0.564791 32.9325 0.549566 33.0239 0.629366C33.0919 0.687432 33.1671 0.736594 33.2475 0.775666C33.2532 0.778421 33.2591 0.780817 33.265 0.782841C33.51 0.869291 39.2609 2.88844 40.2946 3.31824C41.3511 3.75697 42.8321 4.33324 43.4635 4.77214C44.0949 5.21104 45.9742 7.76289 46.4543 8.80554C46.8888 9.74669 50.9084 17.8376 51.8597 19.8008Z" fill="url(#paint2_linear_10:62)"/>
<path d="M32.5587 0.489301C32.5587 0.489301 31.5544 3.03625 26.244 3.03625C20.434 3.03625 19.2717 0.5761 19.2717 0.5761C19.2717 0.5761 20.1406 0.292775 20.9317 0C23.6117 1.66897 29.099 1.96385 31.1977 0.0845253L32.5587 0.489301Z" fill="url(#paint3_radial_10:62)"/>
<path opacity="0.5" d="M12.3923 20.8474C12.3923 20.8474 11.4338 18.529 11.0864 17.5957C10.739 16.6624 10.7572 13.9557 10.7572 13.9557C10.7572 13.9557 10.5744 12.1266 9.51317 11.4131C10.0724 12.0861 10.4278 12.9048 10.5374 13.7728C10.5924 14.6506 10.4645 16.5713 10.6473 17.3211C10.8302 18.071 12.0638 20.7686 12.0638 20.7686C12.0638 20.7686 12.1187 20.6211 12.2113 20.6248C12.3039 20.6285 12.3923 20.8474 12.3923 20.8474Z" fill="url(#paint4_linear_10:62)"/>
<path opacity="0.5" d="M40.1581 19.7918C40.1581 19.7918 40.8831 18.7216 41.1574 17.7339C41.4316 16.7462 41.569 15.8133 41.6239 15.6761C41.7456 15.5018 41.9049 15.357 42.0901 15.2525C42.2752 15.1481 42.4815 15.0866 42.6937 15.0725C43.2701 15.0451 43.7638 15.1275 43.6677 15.594C43.5717 16.0606 42.1725 15.5529 42.0352 16.294C41.8978 17.0352 42.9954 18.9693 43.0092 19.6278C43.0092 19.6278 42.2957 17.378 41.6647 17.4604C41.0336 17.5428 41.6647 19.2027 41.7471 19.5457C41.7471 19.5457 41.2259 18.4892 41.0611 18.6676C40.8962 18.8459 40.4026 20.5198 40.4026 20.5198C40.339 20.2715 40.2573 20.0281 40.1581 19.7918V19.7918Z" fill="url(#paint5_linear_10:62)"/>
<path opacity="0.2" d="M21.4102 17.1624C21.2144 17.6832 20.1785 20.4223 19.3063 22.4057C18.6298 23.9457 15.9563 24.2165 14.8414 22.842C14.8211 22.8166 14.801 22.7911 14.781 22.765C14.2775 22.099 13.381 26.1674 13.1267 27.455C12.8725 28.7427 14.4279 32.9164 17.0018 33.5737C19.5757 34.231 18.9618 30.8437 19.811 25.1245C20.6603 19.4054 24.9692 17.7474 23.5426 16.8894C22.7269 16.3994 21.8403 16.8355 21.5451 17.0105C21.4841 17.0442 21.4365 17.0978 21.4102 17.1624V17.1624Z" fill="url(#paint6_linear_10:62)"/>
<path opacity="0.2" d="M31.2938 19.5478C31.8724 20.7068 32.7052 22.4314 33.2967 23.8956C33.7052 24.9057 35.004 25.4064 36.1263 24.9817C36.7379 24.7593 37.2634 24.3488 37.6273 23.8092C38.1307 23.0618 39.0273 27.6265 39.2815 29.0699C39.5358 30.5133 37.9804 35.1966 35.4065 35.9342C32.8326 36.6719 32.1289 31.3793 31.2802 24.9638C30.4314 18.5483 29.3596 18.9493 28.3169 17.2651C28.0794 16.8816 28.3909 16.9525 28.8543 17.1776C29.9061 17.6778 30.7635 18.5108 31.2938 19.5478V19.5478Z" fill="url(#paint7_linear_10:62)"/>
<path opacity="0.2" d="M6.64141 6.89564C7.20686 7.70724 7.83692 8.47185 8.52545 9.18202C10.328 11.1119 11.2873 12.996 11.0131 13.7915C10.7389 14.5871 10.6199 14.6058 10.7023 16.1146C10.7847 17.6235 12.3142 20.7103 12.3142 20.7103C12.3142 20.7103 12.2181 20.5798 12.1494 20.6211C12.0806 20.6624 11.7413 22.0036 11.5596 22.2571C11.378 22.5107 10.8874 23.2343 10.7847 23.3955C10.682 23.5567 11.4707 20.5866 11.0864 19.5168C10.7021 18.447 9.2342 16.5261 9.72823 15.0993C10.2223 13.6725 9.22073 10.5997 7.94463 9.99612C7.08656 9.55626 6.30767 8.97668 5.63988 8.28112C5.63988 8.28112 6.09278 7.70502 6.17521 7.29342C6.19225 7.18221 6.24872 7.08084 6.33431 7.00781C6.4199 6.93479 6.5289 6.89497 6.64141 6.89564Z" fill="url(#paint8_linear_10:62)"/>
<path opacity="0.2" d="M40.1581 19.7914C40.1581 19.7914 40.4715 17.8708 40.7732 15.9778C41.0749 14.0848 41.8708 13.0416 42.8585 11.6427C43.8462 10.2437 45.3827 8.04836 45.8493 8.32276C46.3158 8.59716 47.1389 10.0514 47.1389 10.3256C47.1389 10.5999 44.5049 10.8193 43.1329 11.9993C41.7609 13.1794 41.5003 16.5264 41.4043 17.2399C41.3082 17.9534 40.2934 20.1482 40.2934 20.1482L40.1581 19.7914Z" fill="url(#paint9_linear_10:62)"/>
<path opacity="0.2" d="M14.3789 38.4486C14.3789 38.4486 13.0069 46.3505 14.0497 48.3259C15.0925 50.3013 18.2201 51.7279 19.6469 49.9172C21.0737 48.1065 21.4576 42.7287 24.0366 40.0946C26.6156 37.4605 28.0966 31.9732 23.3781 30.7659C18.6595 29.5586 14.9275 34.2234 14.3789 38.4486Z" fill="url(#paint10_linear_10:62)"/>
<path opacity="0.2" d="M32.9547 26.9175C32.9547 26.9175 30.7375 35.5343 31.6352 40.0743C30.5502 38.0952 29.4491 36.217 28.5664 36.4446C26.999 36.8491 25.1496 43.2194 22.8614 44.9047C20.5733 46.5899 20.259 50.6006 20.259 50.6006C20.1965 51.3086 20.3218 53.0275 24.3339 52.353C28.3459 51.6786 33.0165 53.3983 35.3046 52.1173C36.4521 51.475 36.5352 49.8328 36.1271 48.1467C36.9671 49.0716 37.6726 49.6531 37.9681 49.6939C38.8459 49.8164 38.3862 42.2643 38.8459 38.2447C39.3057 34.2251 35.88 18.9399 32.9547 26.9175Z" fill="url(#paint11_linear_10:62)"/>
<path opacity="0.2" d="M0.8797 18.8402C2.18025 20.0527 3.64589 21.0751 5.233 21.8768C6.85135 22.6511 8.56867 23.1988 10.3365 23.5043" stroke="#707070" stroke-width="0.304" stroke-miterlimit="10" stroke-linecap="round"/>
<path opacity="0.2" d="M51.4192 19.2428C51.4192 19.2428 51.5013 19.5445 49.9922 20.4225C48.4832 21.3004 44.5599 23.4132 43.3524 23.5501C42.1449 23.6869 41.6512 23.605 41.6512 23.605" stroke="#707070" stroke-width="0.304" stroke-miterlimit="10" stroke-linecap="round"/>
<path opacity="0.2" d="M46.5073 12.1087C46.5073 12.1087 50.4858 16.4988 49.8818 18.5293C49.2779 20.5598 45.6017 22.4528 44.5319 22.7547C43.4621 23.0565 43.7635 22.0137 44.422 20.9985C45.0805 19.9834 46.9735 18.5018 46.1781 16.1423C45.3828 13.7828 45.4923 12.5203 46.5073 12.1087Z" fill="url(#paint12_linear_10:62)"/>
<path opacity="0.5" d="M16.2445 28.6262C16.1072 27.4461 14.6258 25.6904 13.9123 24.7301C13.1988 23.7699 12.3923 20.8478 12.3923 20.8478L12.5405 23.3032C12.5405 23.3032 12.8697 29.0378 12.8835 30.1632C12.8973 31.2886 13.1579 35.2392 13.1579 35.2392C13.1579 35.2392 13.219 36.1797 13.2771 37.299C13.2477 37.3594 13.226 37.4232 13.2127 37.489C13.1989 37.608 13.2313 37.7276 13.3033 37.8233C13.3637 39.0658 13.4099 40.3792 13.3637 40.8226C13.2676 41.7417 12.8147 45.3772 13.0487 45.3772C13.2827 45.3772 13.8712 41.3987 13.9953 39.9994C14.0255 39.2637 13.9608 38.5271 13.8028 37.8079C13.9625 37.6779 14.1013 37.524 14.2144 37.3518C14.9278 36.3368 13.0347 28.2153 13.364 28.2153C13.6934 28.2153 15.5039 32.9347 15.779 32.5229C16.0541 32.1111 13.2275 26.5963 13.8309 27.3922C14.4343 28.1881 16.381 29.8058 16.2445 28.6262ZM13.8024 35.1699C13.8569 35.6712 13.7791 36.178 13.5768 36.6399C13.4815 36.1723 13.4104 35.7 13.3637 35.2251C13.2401 33.7433 13.0207 29.7511 13.0207 29.7511C13.1031 30.3273 13.651 34.0585 13.8024 35.1699V35.1699Z" fill="url(#paint13_linear_10:62)"/>
<path opacity="0.4" d="M39.9779 21.4102C39.9779 21.4102 38.3318 24.5378 37.0146 25.5257C35.6974 26.5136 36.4656 31.4796 37.0421 31.8082C37.6185 32.1369 37.5632 28.2139 38.3591 28.2139C39.155 28.2139 38.0025 34.1677 38.4962 36.3078C38.9898 38.4479 39.1683 39.8887 39.3878 39.9025C39.6072 39.9163 39.3741 35.238 39.3057 34.4834C39.2373 33.7288 39.4564 30.5188 39.4564 30.5188L39.9779 21.4102Z" fill="url(#paint14_linear_10:62)"/>
<path opacity="0.2" d="M8.48889 4.81134C8.32404 4.84791 6.91564 5.59779 6.56826 6.74999C6.22089 7.90219 9.56794 9.98749 10.0985 11.2125C10.6291 12.4375 11.5435 12.7492 11.5069 11.4687C11.4704 10.1882 9.58632 6.23724 10.885 4.90216C12.1837 3.56709 13.1348 4.57299 14.0675 4.26166C15.0003 3.95034 15.695 1.90196 15.695 1.90196L8.48889 4.81134Z" fill="url(#paint15_linear_10:62)"/>
<g style="mix-blend-mode:multiply" opacity="0.3">
<path d="M40.1581 19.7912C40.1581 19.7912 40.8625 18.824 41.1162 17.9326C41.37 17.0411 41.6309 15.6275 41.6309 15.6275C41.8978 15.3336 42.1473 15.0244 42.3783 14.7015C42.68 14.2628 42.7075 13.5768 42.7075 13.5768C42.7075 13.5768 42.8106 14.5302 41.8159 15.6756C41.706 15.8884 41.3836 17.5896 41.1916 18.0215C40.9997 18.4534 40.2246 20.0107 40.2246 20.0107L40.1581 19.7912Z" fill="#728DA1"/>
</g>
<path opacity="0.3" d="M6.42215 10.8467C6.61833 11.0774 7.24465 11.6692 7.50138 13.4257C7.7581 15.1822 8.12333 17.6695 8.72638 18.7121C9.32943 19.7548 10.2813 22.0961 10.0798 22.6997C9.8784 23.3032 7.5922 22.6631 6.8607 21.8947C6.1292 21.1262 7.51923 18.6206 7.29943 16.6272C7.07963 14.6337 7.04358 11.7434 6.2937 11.6155C5.54382 11.4876 6.51315 17.3223 5.81805 18.493C5.12295 19.6638 4.17182 19.8465 3.58627 19.1879C3.00072 18.5294 4.72045 17.8345 4.97665 15.9319C5.23285 14.0293 5.63518 12.1822 5.30583 11.9993C4.97648 11.8164 2.65335 17.3767 2.06833 17.2493C1.4833 17.1219 5.0862 8.78035 5.54365 8.70737C6.0011 8.6344 6.25678 8.9998 6.3301 9.38392C6.40343 9.76804 5.80003 10.1152 6.42215 10.8467Z" fill="url(#paint16_linear_10:62)"/>
<path opacity="0.2" d="M44.9806 11.3224C44.0659 12.0359 43.956 12.6944 44.0109 13.7374C44.0659 14.7804 45.255 16.0968 45.255 17.8529C45.255 19.609 43.4987 20.8891 43.9925 21.5291C44.4864 22.1691 46.3153 20.8342 46.425 19.0781C46.5348 17.3219 45.2 14.7794 45.6386 14.5785C46.0771 14.3776 48.7662 17.3219 49.2054 17.0295C49.6447 16.7371 45.5654 12.6209 45.8764 12.1272C46.1874 11.6336 47.7785 12.42 47.7601 12.1272C47.7417 11.8345 47.0652 10.8651 46.7358 10.9197C46.4065 10.9743 45.4641 10.9451 44.9806 11.3224Z" fill="url(#paint17_linear_10:62)"/>
<path opacity="0.4" d="M19.8936 1.38102C19.8936 1.38102 21.6223 3.02725 25.7103 3.02725C29.7983 3.02725 31.3628 1.8747 32.0759 1.18975" stroke="#C1D1D4" stroke-width="0.304" stroke-miterlimit="10"/>
<path opacity="0.1" d="M20.1406 31.0133C17.7838 32.4912 17.8358 33.8118 18.5218 35.8971C19.2078 37.9824 21.4303 41.22 22.6378 41.0277C23.8453 40.8354 26.5617 37.3237 26.8361 34.7995C27.1105 32.2753 24.6136 30.7661 23.6532 30.629C22.6928 30.492 21.7593 29.9982 20.1406 31.0133Z" fill="url(#paint18_linear_10:62)"/>
<g style="mix-blend-mode:multiply" opacity="0.5">
<path d="M12.9441 54.2638C12.9441 54.2638 13.8588 55.0322 18.395 55.2884C22.9311 55.5446 31.6013 54.9227 32.2964 54.8859C32.9915 54.8492 37.1264 54.7396 38.1498 54.5202C39.1732 54.3007 39.869 54.3007 40.3081 53.6788" stroke="#707070" stroke-width="0.152" stroke-miterlimit="10"/>
</g>
</g>
<defs>
<linearGradient id="paint0_linear_10:62" x1="-1115.75" y1="27.9623" x2="-1063.87" y2="27.9623" gradientUnits="userSpaceOnUse">
<stop stop-color="#C5D0DB"/>
<stop offset="0.048" stop-color="#CDD6E0"/>
<stop offset="0.166" stop-color="#DCE2E9"/>
<stop offset="0.304" stop-color="#E5E9EE"/>
<stop offset="0.514" stop-color="#E8ECF0"/>
<stop offset="0.784" stop-color="#E6EAEE"/>
<stop offset="0.881" stop-color="#DFE5EA"/>
<stop offset="0.95" stop-color="#D3DBE3"/>
<stop offset="1" stop-color="#C5D0DB"/>
</linearGradient>
<linearGradient id="paint1_linear_10:62" x1="-1089.73" y1="55.9151" x2="-1089.73" y2="0.00905228" gradientUnits="userSpaceOnUse">
<stop stop-color="#C5D0DB"/>
<stop offset="0.04" stop-color="#C8D3DD" stop-opacity="0.89"/>
<stop offset="0.125" stop-color="#D0D8E1" stop-opacity="0.682"/>
<stop offset="0.216" stop-color="#D6DEE5" stop-opacity="0.498"/>
<stop offset="0.312" stop-color="#DBE2E8" stop-opacity="0.345"/>
<stop offset="0.413" stop-color="#E0E5EB" stop-opacity="0.22"/>
<stop offset="0.522" stop-color="#E3E8ED" stop-opacity="0.122"/>
<stop offset="0.643" stop-color="#E6EAEE" stop-opacity="0.051"/>
<stop offset="0.785" stop-color="#E7EBEF" stop-opacity="0.012"/>
<stop offset="1" stop-color="#E8ECF0" stop-opacity="0"/>
</linearGradient>
<linearGradient id="paint2_linear_10:62" x1="-1089.81" y1="34.3705" x2="-1089.81" y2="-23.1377" gradientUnits="userSpaceOnUse">
<stop stop-color="white" stop-opacity="0"/>
<stop offset="0.076" stop-color="white" stop-opacity="0.184"/>
<stop offset="0.166" stop-color="white" stop-opacity="0.373"/>
<stop offset="0.262" stop-color="white" stop-opacity="0.541"/>
<stop offset="0.36" stop-color="white" stop-opacity="0.682"/>
<stop offset="0.463" stop-color="white" stop-opacity="0.8"/>
<stop offset="0.572" stop-color="white" stop-opacity="0.886"/>
<stop offset="0.69" stop-color="white" stop-opacity="0.953"/>
<stop offset="0.822" stop-color="white" stop-opacity="0.988"/>
<stop offset="1" stop-color="white"/>
</linearGradient>
<radialGradient id="paint3_radial_10:62" cx="0" cy="0" r="1" gradientUnits="userSpaceOnUse" gradientTransform="translate(-78.1793 -10.2885) rotate(-167.152) scale(8.78105 5.17495)">
<stop offset="0.022" stop-color="#F1F4F8"/>
<stop offset="0.324" stop-color="#EEF1F5"/>
<stop offset="0.392" stop-color="#ECF0F4"/>
<stop offset="0.536" stop-color="#E6EBF0"/>
<stop offset="0.719" stop-color="#D6DEE5"/>
<stop offset="0.924" stop-color="#BCCAD3"/>
<stop offset="1" stop-color="#B1C1CC"/>
</radialGradient>
<linearGradient id="paint4_linear_10:62" x1="11.3212" y1="16.0171" x2="8.88676" y2="16.0861" gradientUnits="userSpaceOnUse">
<stop stop-color="#B3C6D8"/>
<stop offset="1" stop-color="#CCD9E5" stop-opacity="0"/>
</linearGradient>
<linearGradient id="paint5_linear_10:62" x1="40.6089" y1="17.2377" x2="44.4867" y2="17.9749" gradientUnits="userSpaceOnUse">
<stop stop-color="#B3C6D8"/>
<stop offset="1" stop-color="#CCD9E5" stop-opacity="0"/>
</linearGradient>
<linearGradient id="paint6_linear_10:62" x1="18.4647" y1="31.6669" x2="18.4647" y2="-5.21991" gradientUnits="userSpaceOnUse">
<stop stop-color="#CCD9E5" stop-opacity="0"/>
<stop offset="0.179" stop-color="#CCD9E5" stop-opacity="0.8"/>
<stop offset="1" stop-color="#CCD9E5" stop-opacity="0"/>
</linearGradient>
<linearGradient id="paint7_linear_10:62" x1="-1089.04" y1="33.7789" x2="-1089.04" y2="-7.49176" gradientUnits="userSpaceOnUse">
<stop stop-color="#CCD9E5" stop-opacity="0"/>
<stop offset="0.179" stop-color="#CCD9E5" stop-opacity="0.8"/>
<stop offset="1" stop-color="#CCD9E5" stop-opacity="0"/>
</linearGradient>
<linearGradient id="paint8_linear_10:62" x1="10.9727" y1="14.4555" x2="3.07295" y2="14.8462" gradientUnits="userSpaceOnUse">
<stop stop-color="#CCD9E5"/>
<stop offset="1" stop-color="#CCD9E5" stop-opacity="0"/>
</linearGradient>
<linearGradient id="paint9_linear_10:62" x1="46.8247" y1="13.0626" x2="26.8114" y2="15.1697" gradientUnits="userSpaceOnUse">
<stop stop-color="#CCD9E5"/>
<stop offset="1" stop-color="#CCD9E5" stop-opacity="0"/>
</linearGradient>
<linearGradient id="paint10_linear_10:62" x1="20.0555" y1="48.3885" x2="20.0555" y2="4.58438" gradientUnits="userSpaceOnUse">
<stop stop-color="white"/>
<stop offset="0.201" stop-color="white" stop-opacity="0.82"/>
<stop offset="0.653" stop-color="white" stop-opacity="0.365"/>
<stop offset="1" stop-color="white" stop-opacity="0"/>
</linearGradient>
<linearGradient id="paint11_linear_10:62" x1="29.5685" y1="49.3349" x2="29.5685" y2="-11.3666" gradientUnits="userSpaceOnUse">
<stop stop-color="white"/>
<stop offset="0.183" stop-color="white" stop-opacity="0.988"/>
<stop offset="0.316" stop-color="white" stop-opacity="0.953"/>
<stop offset="0.433" stop-color="white" stop-opacity="0.89"/>
<stop offset="0.54" stop-color="white" stop-opacity="0.8"/>
<stop offset="0.642" stop-color="white" stop-opacity="0.686"/>
<stop offset="0.739" stop-color="white" stop-opacity="0.549"/>
<stop offset="0.832" stop-color="white" stop-opacity="0.384"/>
<stop offset="0.92" stop-color="white" stop-opacity="0.196"/>
<stop offset="1" stop-color="white" stop-opacity="0"/>
</linearGradient>
<linearGradient id="paint12_linear_10:62" x1="43.8269" y1="17.4582" x2="49.9442" y2="17.4582" gradientUnits="userSpaceOnUse">
<stop stop-color="white" stop-opacity="0"/>
<stop offset="0.347" stop-color="white" stop-opacity="0.365"/>
<stop offset="0.799" stop-color="white" stop-opacity="0.82"/>
<stop offset="1" stop-color="white"/>
</linearGradient>
<linearGradient id="paint13_linear_10:62" x1="14.3218" y1="42.5072" x2="14.3218" y2="-10.7461" gradientUnits="userSpaceOnUse">
<stop stop-color="#CCD9E5" stop-opacity="0"/>
<stop offset="0.179" stop-color="#CCD9E5" stop-opacity="0.8"/>
<stop offset="1" stop-color="#CCD9E5" stop-opacity="0"/>
</linearGradient>
<linearGradient id="paint14_linear_10:62" x1="38.1335" y1="37.7389" x2="38.1335" y2="-2.40782" gradientUnits="userSpaceOnUse">
<stop stop-color="#CCD9E5"/>
<stop offset="1" stop-color="#CCD9E5" stop-opacity="0"/>
</linearGradient>
<linearGradient id="paint15_linear_10:62" x1="11.119" y1="11.0764" x2="11.119" y2="-11.4805" gradientUnits="userSpaceOnUse">
<stop stop-color="#CCD9E5"/>
<stop offset="1" stop-color="#CCD9E5" stop-opacity="0"/>
</linearGradient>
<linearGradient id="paint16_linear_10:62" x1="2.00427" y1="15.8183" x2="10.1073" y2="15.8183" gradientUnits="userSpaceOnUse">
<stop stop-color="#CCD9E5"/>
<stop offset="1" stop-color="#CCD9E5" stop-opacity="0"/>
</linearGradient>
<linearGradient id="paint17_linear_10:62" x1="43.905" y1="16.3048" x2="49.2386" y2="16.3048" gradientUnits="userSpaceOnUse">
<stop stop-color="#CCD9E5"/>
<stop offset="1" stop-color="#CCD9E5" stop-opacity="0"/>
</linearGradient>
<linearGradient id="paint18_linear_10:62" x1="22.4836" y1="41.0359" x2="22.4836" y2="30.3882" gradientUnits="userSpaceOnUse">
<stop stop-color="white"/>
<stop offset="0.201" stop-color="white" stop-opacity="0.82"/>
<stop offset="0.653" stop-color="white" stop-opacity="0.365"/>
<stop offset="1" stop-color="white" stop-opacity="0"/>
</linearGradient>
<clipPath id="clip0_10:62">
<rect width="51.9605" height="56" fill="white"/>
</clipPath>
</defs>
</svg>
