<svg width="51" height="56" viewBox="0 0 51 56" fill="none" xmlns="http://www.w3.org/2000/svg">
<g clip-path="url(#clip0_9:23)">
<path d="M0.0542314 20.1664C0.0143681 20.2492 0.00126626 20.3423 0.0167466 20.4328C0.0322269 20.5234 0.0755207 20.6068 0.140613 20.6716C0.453322 20.9931 0.793069 21.2871 1.15611 21.5504C1.66062 21.8823 3.37364 22.7985 3.78514 23.0379C4.19664 23.2774 6.57384 24.4852 6.95882 24.6181C7.48108 24.7909 8.01935 24.911 8.56555 24.9764C9.09693 25.0296 9.66794 24.8173 9.66794 24.764C9.66794 24.7108 10.8895 22.4538 10.9693 21.8425C11.0811 21.2608 11.2365 20.6882 11.4342 20.1297C11.4342 20.1297 11.4736 20.4358 11.5268 20.9262C11.5801 21.4166 11.5534 22.1212 11.5801 22.387C11.6068 22.6528 12.0978 31.8548 12.0846 32.2134C12.0713 32.5721 12.2176 33.6607 12.2176 33.6607C12.2176 33.6607 12.0184 39.7691 12.0713 40.0213C12.1242 40.2735 12.0978 40.3274 12.0581 40.672C12.0183 41.0167 11.8856 43.8457 11.8457 44.2841C11.8057 44.7225 11.4871 48.7326 11.394 49.8477C11.301 50.9629 11.434 52.0255 11.3146 52.6495C11.1953 53.2736 11.1684 53.7652 11.4473 53.9776C11.7261 54.1899 13.2002 54.4691 13.9175 54.5086C14.6347 54.548 16.8784 54.6814 17.2903 54.6946C17.7021 54.7079 19.2288 54.9203 19.7334 54.8937C20.2381 54.8672 28.0195 54.907 29.4272 55.0128C30.835 55.1185 34.1146 55.1454 35.2697 54.9463C36.4248 54.7472 38.4966 54.2292 38.4966 53.9371C38.4966 53.645 38.3242 50.2982 38.3242 48.7453C38.3242 47.1925 37.9523 43.8719 37.9391 42.6769C37.9258 41.4818 37.6071 36.3827 37.6071 35.732C37.6071 35.0812 37.8461 32.5982 37.8726 30.7654C37.8991 28.9325 38.1515 21.4571 38.311 21.1517C38.4705 20.8463 38.5631 20.8592 38.6825 21.2576C38.8019 21.656 38.9886 22.3865 39.2538 22.7184C39.5191 23.0504 39.7852 23.4751 40.1168 23.98C40.2207 24.234 40.5045 24.596 40.5552 24.7101C40.6524 24.9292 43.6756 24.0199 44.4855 23.6481C45.2955 23.2762 47.5133 22.3727 48.2435 21.9083C48.9736 21.444 50.1026 20.5671 50.1689 20.2617C50.2037 20.1499 50.2216 20.0336 50.2221 19.9166L49.6645 19.0664C49.6645 19.0664 49.7575 19.1329 49.6246 18.894C49.56 18.7662 49.4696 18.6531 49.3591 18.5621L49.2129 18.0572L45.4019 9.8649C45.4019 9.8649 44.7778 8.8557 44.6053 8.51034C44.4975 8.26309 44.4071 8.00859 44.3349 7.74872C44.205 7.31785 43.9628 6.92932 43.6331 6.62304C43.2379 6.24522 42.8024 5.91192 42.3345 5.62914C41.405 5.09775 38.6697 4.00914 36.5315 3.21215C34.3932 2.41516 30.9678 1.31328 30.9678 1.31328L30.0516 0.981358C30.0516 0.981358 28.9892 1.59215 28.2057 1.80487C27.4221 2.0176 25.829 2.44186 24.6074 2.37588C23.3858 2.3099 21.8455 2.37588 20.2121 1.18048C20.0524 1.14437 19.8855 1.15833 19.734 1.22044L18.7902 1.44625C18.7902 1.44625 18.4449 1.4063 18.3389 1.49914C18.2704 1.55773 18.1944 1.60691 18.1129 1.64538C18.1129 1.64538 12.3237 3.67722 11.301 4.10181C10.2784 4.52641 8.84459 5.08449 8.23329 5.5096C7.62198 5.9347 5.80372 8.4044 5.33984 9.41446C4.91082 10.3432 0.866185 18.483 0.0542314 20.1664Z" fill="url(#paint0_linear_9:23)"/>
<path d="M0.0440339 20.1664C0.00412822 20.2491 -0.00902833 20.3422 0.00639075 20.4328C0.0218098 20.5233 0.0650393 20.6068 0.130076 20.6716C0.442863 20.993 0.782603 21.287 1.14557 21.5504C1.65043 21.8823 3.3631 22.7985 3.77494 23.0379C4.18678 23.2774 6.56364 24.4852 6.94862 24.6181C7.47089 24.7909 8.00915 24.911 8.55535 24.9764C9.0864 25.0296 9.6574 24.8173 9.6574 24.764C9.6574 24.7108 10.8793 22.4538 10.9587 21.8425C11.0706 21.2607 11.2261 20.6882 11.424 20.1297C11.424 20.1297 11.4634 20.4358 11.5166 20.9262C11.5699 21.4166 11.5428 22.1212 11.5695 22.387C11.5962 22.6528 12.0876 31.8548 12.0744 32.2134C12.0611 32.5721 12.207 33.6607 12.207 33.6607C12.207 33.6607 12.0079 39.7691 12.0611 40.0213C12.1143 40.2735 12.0876 40.3274 12.0479 40.672C12.0081 41.0167 11.8751 43.8457 11.8355 44.2841C11.7959 44.7225 11.4769 48.7326 11.3838 49.8477C11.2908 50.9629 11.4238 52.0255 11.3041 52.6495C11.1844 53.2736 11.1582 53.7652 11.4371 53.9776C11.7159 54.1899 13.1897 54.4691 13.9069 54.5086C14.6242 54.548 16.8682 54.6814 17.2796 54.6946C17.6909 54.7079 19.218 54.9203 19.7231 54.8937C20.2281 54.8672 28.0091 54.907 29.4165 55.0128C30.824 55.1185 34.1039 55.1454 35.2594 54.9463C36.4148 54.7472 38.4863 54.2292 38.4863 53.9371C38.4863 53.6449 38.3135 50.2982 38.3135 48.7453C38.3135 47.1925 37.9416 43.8719 37.9284 42.6768C37.9151 41.4818 37.5964 36.3827 37.5964 35.732C37.5964 35.0812 37.8357 32.5982 37.862 30.7654C37.8884 28.9325 38.1413 21.457 38.3004 21.1517C38.4596 20.8463 38.5526 20.8592 38.6723 21.2576C38.792 21.656 38.9784 22.3865 39.2431 22.7184C39.5079 23.0503 39.7745 23.4751 40.1061 23.98C40.21 24.234 40.4938 24.596 40.5445 24.7101C40.6417 24.9292 43.6649 24.0199 44.4752 23.648C45.2854 23.2762 47.5019 22.3727 48.2331 21.9083C48.9643 21.444 50.092 20.567 50.1585 20.2616C50.1933 20.1499 50.2113 20.0336 50.2117 19.9166L49.6538 19.0664C49.6538 19.0664 49.7468 19.1329 49.6139 18.894C49.5494 18.7661 49.4589 18.653 49.3483 18.5621L49.2024 18.0572L45.3914 9.86422C45.3914 9.86422 44.7673 8.85501 44.5944 8.50966C44.4869 8.26228 44.3966 8.00781 44.324 7.74804C44.1943 7.31718 43.9522 6.92864 43.6226 6.62235C43.2272 6.24462 42.7916 5.91133 42.3236 5.62845C41.3942 5.09707 38.6589 4.00846 36.5209 3.21147C34.383 2.41448 30.9569 1.3126 30.9569 1.3126L30.0408 0.980675C30.0408 0.980675 28.9783 1.59147 28.1951 1.80419C27.4119 2.01692 25.8181 2.44117 24.5963 2.3752C23.3746 2.30922 21.8345 2.37519 20.2011 1.17979C20.0415 1.14371 19.8746 1.15766 19.7232 1.21975L18.7805 1.44574C18.7805 1.44574 18.4352 1.40578 18.3289 1.49862C18.2605 1.55717 18.1846 1.60635 18.1032 1.64486C18.1032 1.64486 12.3136 3.6767 11.291 4.1013C10.2684 4.52589 8.83456 5.08398 8.22377 5.50908C7.61298 5.93419 5.79369 8.4044 5.32862 9.41445C4.90028 10.3432 0.855988 18.483 0.0440339 20.1664Z" fill="url(#paint1_linear_9:23)"/>
<path d="M0.0904501 20.0699C0.034499 20.1855 0.0163141 20.3157 0.0384689 20.4422C0.0606237 20.5687 0.121996 20.685 0.213901 20.7747C0.499715 21.0632 0.809135 21.3273 1.13893 21.5642C1.64345 21.8961 3.35646 22.8123 3.76796 23.0514C4.17947 23.2905 6.55683 24.4988 6.94164 24.6318C7.4639 24.8047 8.00216 24.9248 8.54837 24.9904C9.07942 25.0436 9.65076 24.8309 9.65076 24.778C9.65076 24.7251 10.8723 22.4673 10.9521 21.8565C11.0046 21.5316 11.0798 21.2107 11.1771 20.8963C11.1887 20.8593 11.2126 20.8274 11.2448 20.8058C11.2771 20.7843 11.3157 20.7744 11.3544 20.7779C11.393 20.7813 11.4293 20.7978 11.4572 20.8247C11.4851 20.8516 11.5031 20.8872 11.508 20.9257L11.5097 20.9403C11.5629 21.4314 11.5362 22.1354 11.5629 22.4008C11.5896 22.6663 12.0807 31.8686 12.0674 32.2272C12.0869 32.7071 12.1306 33.1857 12.1985 33.6612C12.1995 33.6701 12.1999 33.6791 12.1995 33.6881C12.1893 34.005 12.0023 39.7899 12.054 40.0351C12.1072 40.2876 12.0805 40.3412 12.0407 40.6859C12.0009 41.0305 11.8683 43.8595 11.8283 44.2979C11.7884 44.7363 11.4697 48.7464 11.3767 49.8615C11.2837 50.9767 11.4167 52.0396 11.2969 52.6637C11.1772 53.2877 11.151 53.779 11.4299 53.9917C11.7088 54.2044 13.1829 54.4828 13.8998 54.5227C14.6167 54.5627 16.8611 54.6952 17.2729 54.7084C17.6848 54.7217 19.2114 54.9341 19.7161 54.9079C20.2208 54.8817 28.0021 54.9211 29.4096 55.0269C30.817 55.1327 34.0973 55.1599 35.2524 54.9604C36.4075 54.761 38.4793 54.2437 38.4793 53.9516C38.4793 53.6594 38.3065 50.3126 38.3065 48.7593C38.3065 47.206 37.935 43.8859 37.9217 42.6908C37.9085 41.4958 37.5898 36.3967 37.5898 35.7459C37.5898 35.0952 37.8287 32.6122 37.8552 30.7797C37.8818 28.9471 38.1341 21.471 38.2933 21.1656C38.4524 20.8602 38.5458 20.8735 38.6652 21.2719C38.7845 21.6703 38.9712 22.4005 39.2362 22.7324C39.4999 23.0616 39.7633 23.4825 40.0915 23.982C40.0966 23.9899 40.1011 23.9982 40.1047 24.0069C40.2129 24.2602 40.4878 24.6121 40.5375 24.7245C40.6348 24.9431 43.6579 24.0339 44.4682 23.662C45.2785 23.2901 47.495 22.3867 48.2261 21.9227C48.9573 21.4586 50.0852 20.5814 50.1515 20.276C50.1827 20.1318 50.1963 20.0473 50.2025 19.9974C50.2071 19.9583 50.1977 19.9188 50.176 19.8859L49.7069 19.1709C49.6888 19.1414 49.6792 19.1075 49.6792 19.0729C49.6653 19.0142 49.6411 18.9584 49.6077 18.9081C49.5478 18.7952 49.4698 18.6929 49.3768 18.6051C49.3538 18.5844 49.337 18.5578 49.3282 18.5281L49.1995 18.0838C49.1973 18.0754 49.1943 18.0674 49.1905 18.0596L45.3892 9.88721C45.3865 9.88136 45.3835 9.87568 45.3801 9.8702C45.3203 9.77396 44.7518 8.85114 44.5884 8.52398C44.4861 8.29093 44.4002 8.05105 44.3313 7.80606C44.193 7.34636 43.9348 6.9318 43.5831 6.60504C43.1972 6.23976 42.7731 5.91699 42.3182 5.64226C41.3887 5.11122 38.6531 4.02226 36.5151 3.22527C34.3772 2.42828 30.9515 1.32641 30.9515 1.32641L30.1081 1.02033C30.0853 1.01203 30.0609 1.00877 30.0367 1.01076C30.0125 1.01276 29.989 1.01997 29.9678 1.03189C29.4034 1.35379 28.8074 1.61697 28.1893 1.81732C27.4061 2.0297 25.8126 2.45464 24.5911 2.38832C23.3761 2.32218 21.8459 2.38832 20.2227 1.21282C20.205 1.19955 20.1847 1.19011 20.1631 1.1851C20.0166 1.15905 19.8658 1.17418 19.7273 1.2288C19.7199 1.23182 19.7123 1.23426 19.7045 1.23612L18.8033 1.4519C18.7856 1.45611 18.7673 1.45754 18.7491 1.45615C18.6669 1.44918 18.4122 1.43438 18.324 1.51175C18.2583 1.56799 18.1856 1.61559 18.1078 1.6534C18.1023 1.65602 18.0966 1.65835 18.0908 1.66037C17.8528 1.74403 12.2871 3.6985 11.2866 4.11443C10.2641 4.53953 8.8298 5.0971 8.21883 5.52187C7.60787 5.94664 5.78892 8.41668 5.32402 9.42605C4.90215 10.338 1.01157 18.1702 0.0904501 20.0699Z" fill="url(#paint2_linear_9:23)"/>
<path d="M19.6629 1.86372C19.6629 1.86372 21.6811 3.59816 24.9038 3.10317C26.9642 2.76615 28.9824 2.20808 30.9233 1.43862C30.9233 1.43862 31.419 7.31683 25.0808 7.49384C18.7426 7.67085 19.6629 1.86372 19.6629 1.86372Z" fill="url(#paint3_linear_9:23)"/>
<path d="M19.2731 2.12916C19.2731 2.12916 20.1585 3.59884 24.8152 3.59884C29.4718 3.59884 30.8879 1.91678 30.8879 1.91678L30.0377 0.69519C30.0377 0.69519 28.5502 2.07594 25.2838 2.10263C24.1151 2.18238 22.07 2.2754 20.1182 0.881046L19.2731 2.12916Z" fill="url(#paint4_radial_9:23)"/>
<path d="M18.3527 1.35002C18.2112 2.5876 18.4785 3.83748 19.114 4.90885C20.1764 6.67933 21.8585 8.3966 24.9922 8.3966C28.6837 8.3966 31.0117 6.00647 31.5963 3.86428C32.0036 2.19973 31.4722 1.2616 31.4722 1.2616L30.0382 0.69519C30.0382 0.69519 30.2373 1.23933 30.3037 1.51837C30.3037 1.51837 30.5958 6.85635 25.0055 6.85635C23.2125 6.85635 20.6364 5.40911 20.1453 3.65614C19.6542 1.90317 20.1718 0.920836 20.1718 0.920836L20.0655 0.867614C20.0655 0.867614 18.4192 1.11571 18.3527 1.35002Z" fill="url(#paint5_radial_9:23)"/>
<path d="M11.5006 19.4978C11.5006 19.4978 11.5539 16.8962 11.5006 15.5142C11.4474 14.1323 10.9696 12.4336 10.9696 12.4336L9.69428 11.3179C10.2618 11.7658 10.6408 12.4102 10.7567 13.1238C10.9691 14.3457 11.0223 16.6294 11.0223 16.6294L11.1815 17.3732C11.1815 17.3732 9.90615 15.886 9.32239 14.93C8.73864 13.974 7.94131 12.0085 7.94131 12.0085C7.94131 12.0085 8.7383 14.2393 9.00373 14.7173C9.53966 15.5442 10.125 16.338 10.7567 17.0943C11.0628 17.4262 11.4648 17.7981 11.4648 17.7981L11.4478 18.0989C11.4478 18.0989 11.1337 18.0724 11.1024 18.1654C11.0711 18.2584 11.3724 18.2584 11.4654 18.2273C11.4736 18.4092 11.5006 19.4978 11.5006 19.4978Z" fill="#C3CFDA"/>
<path style="mix-blend-mode:multiply" opacity="0.3" d="M6.18918 12.3273C7.25161 12.3273 6.72022 16.8423 6.77345 18.4358C6.82667 20.0293 6.40156 21.2514 6.56106 21.9414C6.72056 22.6314 8.41997 23.853 8.41997 23.853C8.41997 23.853 8.89779 24.2781 9.37612 24.0654C9.85445 23.8527 10.4914 22.2063 10.4914 21.569C10.4914 20.9317 8.20776 20.9317 7.99503 19.816C7.78231 18.7004 6.87972 11.4771 7.03888 10.3617C7.46399 12.5394 9.11051 18.2227 9.90716 18.7009C10.7038 19.1791 10.9696 17.9571 10.5445 17.4793C10.1194 17.0015 7.8357 11.6365 7.72943 10.2909C8.01272 10.0428 8.43783 9.4407 8.01272 8.83909C7.58761 8.23748 6.80865 7.24562 6.52552 7.56377C6.2424 7.88192 2.59482 15.1062 2.59482 15.1062C2.59482 15.1062 5.88803 8.48421 6.41908 8.59066C6.95012 8.69711 0.788964 19.0366 0.788964 19.0366C0.788964 19.0366 0.61195 19.4263 0.894901 19.6033C1.17785 19.7803 2.55945 20.63 2.55945 20.63C2.55945 20.63 5.12675 12.3273 6.18918 12.3273Z" fill="url(#paint6_linear_9:23)"/>
<path opacity="0.3" d="M18.2061 1.43862C18.2061 1.43862 17.9276 4.62556 18.6181 5.95359C19.3087 7.28162 17.6089 15.408 14.6342 16.3111C11.6595 17.2142 11.2349 12.4341 11.2349 12.4341C11.2349 12.4341 8.89831 11.2118 8.63237 10.0965C8.36642 8.9812 7.80052 7.58226 6.70272 7.38773C6.73809 7.01585 7.81803 5.6533 8.43716 5.24519C9.05628 4.83709 18.2061 1.43862 18.2061 1.43862Z" fill="url(#paint7_linear_9:23)"/>
<path opacity="0.3" d="M19.3204 34.6371C17.0928 34.5196 13.5049 44.2955 12.7873 46.8315C12.0698 49.3675 11.7518 53.6531 11.7518 53.6531C12.1996 53.987 12.7323 54.1882 13.289 54.2338C14.1732 54.2877 16.901 54.0998 18.034 54.3146C19.167 54.5294 19.8399 54.6365 20.3002 54.5016C20.7605 54.3668 19.4858 44.118 19.7688 41.166C20.0517 38.2141 21.173 34.7347 19.3204 34.6371Z" fill="url(#paint8_linear_9:23)"/>
<path opacity="0.6" d="M38.4165 20.6929C38.4165 20.6929 38.7974 19.5644 38.6206 18.6084C38.4437 17.6524 36.3544 15.2798 36.3544 15.0674C37.5585 15.4925 39.0103 17.9711 39.0103 17.9711C39.0103 17.9711 39.2406 18.21 39.307 18.1838C39.3735 18.1576 40.0238 17.1878 39.9973 16.2846C39.9707 15.3813 41.0332 15.5014 41.1129 16.3378C41.1927 17.1742 39.5727 18.5553 39.4125 19.4715C39.2939 20.1116 39.1433 20.7454 38.9612 21.3704C38.8927 21.1059 38.8083 20.8457 38.7087 20.5913C38.6335 20.4632 38.5541 20.4986 38.5541 20.4986L38.4165 20.6929Z" fill="#C3CFDA"/>
<path style="mix-blend-mode:multiply" opacity="0.5" d="M44.273 7.41412C44.273 7.41412 44.5757 12.0942 40.831 14.8028C41.5481 14.8826 43.6622 11.8759 44.14 10.2557C44.2198 10.5478 42.9023 16.1562 43.2218 17.5116C43.2218 17.5116 44.2577 14.7229 44.4169 12.6518C44.576 10.5807 44.433 10.2292 44.433 10.2292C44.781 11.0096 44.985 11.8464 45.0351 12.6994C45.1414 14.1866 45.2654 16.0987 45.7964 16.2225C46.3275 16.3463 45.4602 11.4067 45.1946 10.5745C44.929 9.74235 44.8049 9.35295 44.8049 9.35295C45.1488 9.83213 45.468 10.3286 45.7611 10.8405C45.8275 10.7215 45.4157 9.51245 45.1103 9.08751C44.8049 8.66258 44.3936 7.61375 44.3936 7.61375C44.3936 7.61375 44.3926 7.41412 44.273 7.41412Z" fill="url(#paint9_linear_9:23)"/>
<path opacity="0.7" d="M38.6694 20.7992C38.6739 20.623 38.7193 20.4503 38.802 20.2947C38.9482 19.9826 39.0061 20.423 39.112 20.3744C39.2179 20.3258 39.0409 19.9935 39.0544 19.6881C39.0678 19.3827 39.767 19.348 39.8246 19.02C39.8823 18.692 39.4528 18.8473 39.4528 18.8473C39.4528 18.8473 40.2826 17.712 40.3491 16.9156C40.23 17.4466 38.8374 19.1972 38.6782 19.8126C38.6142 20.112 38.5684 20.4151 38.5412 20.7201C38.5681 20.7185 38.5948 20.7252 38.6178 20.7394C38.6407 20.7535 38.6587 20.7744 38.6694 20.7992V20.7992Z" fill="url(#paint10_linear_9:23)"/>
<path style="mix-blend-mode:multiply" opacity="0.7" d="M11.4121 14.9655C11.4121 14.9655 11.7132 18.4886 11.5272 19.9229C11.3281 19.6573 11.1378 19.9537 11.0137 20.016C10.9359 20.0372 10.8535 20.0341 10.7775 20.0072C10.7015 19.9802 10.6356 19.9306 10.5886 19.8651C10.7076 19.8741 10.8586 20.0114 11.0266 19.9008C11.1946 19.7903 11.1682 19.6528 11.3145 19.6308C11.4607 19.6089 11.5268 19.113 11.3544 18.8804C11.182 18.6478 10.8297 18.7745 10.7635 18.5419C10.6974 18.3092 11.2813 18.303 11.3544 18.1637C11.4275 18.0244 11.3478 17.5855 11.3478 17.5855C11.3478 17.5855 10.3185 16.6228 9.8271 15.793C10.2721 16.3905 11.4272 17.4529 11.4272 17.4529C11.4272 17.4529 11.2742 14.3258 11.0623 13.5419C11.2413 13.9989 11.3589 14.4776 11.4121 14.9655Z" fill="url(#paint11_linear_9:23)"/>
<path opacity="0.2" d="M0.572197 19.3122C1.79221 20.1798 3.06025 20.9778 4.37027 21.7023C5.76075 22.4436 7.19266 23.1044 8.65892 23.6815C9.17704 23.8542 10.0267 23.7877 10.0267 23.7877" stroke="#707070" stroke-width="0.304" stroke-miterlimit="10" stroke-linecap="round"/>
<path style="mix-blend-mode:multiply" opacity="0.2" d="M11.412 14.9655C11.412 14.9655 12.1912 16.3906 13.5988 16.9749C15.0064 17.5592 18.9102 16.4439 19.3087 16.7892C19.7071 17.1346 15.4046 21.4101 14.6609 22.5256C13.9171 23.6411 13.6782 21.764 12.8285 21.8529C11.9788 21.9418 11.8371 22.9861 11.8371 22.9861L11.412 14.9655Z" fill="url(#paint12_linear_9:23)"/>
<path opacity="0.5" d="M38.4036 20.8258C38.4649 20.7747 37.8194 19.8431 37.1821 19.7375C36.5447 19.6319 36.3856 22.8181 36.3856 23.9333C36.3856 25.0484 36.4388 34.3705 35.8013 35.6718C35.1638 36.9732 33.5173 36.8938 33.1189 37.584C32.7205 38.2742 33.1454 40.4788 34.978 40.4523C36.8105 40.4257 36.8901 38.434 37.262 38.1154C37.6339 37.7967 37.7398 37.2918 37.4744 36.9467C37.2089 36.6015 38.1375 29.0591 38.1117 26.1908C38.0858 23.3225 36.7838 22.181 38.4036 20.8258Z" fill="url(#paint13_linear_9:23)"/>
<g opacity="0.5">
<path opacity="0.5" d="M42.3741 23.0392C42.3031 22.9151 42.3911 22.2955 42.1439 22.0122C41.8967 21.7289 41.1526 22.136 40.4618 21.4454C39.7711 20.7549 39.5057 18.8962 39.5057 18.8962C39.5057 18.8962 38.7504 19.2964 38.529 20.7734C38.6259 20.6734 38.699 20.7564 38.7883 21.0516C38.9073 21.45 39.0944 22.1805 39.3593 22.5125C39.623 22.8417 39.8864 23.2625 40.2146 23.7618C40.2198 23.7697 40.2243 23.7781 40.2279 23.7869C40.336 24.0403 40.611 24.3921 40.6606 24.5045C40.7327 24.6666 42.4121 24.2093 43.6058 23.8101C43.2092 23.1756 42.4367 23.1491 42.3741 23.0392Z" fill="url(#paint14_linear_9:23)"/>
</g>
<g opacity="0.4">
<path opacity="0.4" d="M50.1663 20.278C50.1974 20.1339 50.211 20.0488 50.2173 19.9995C50.2218 19.9603 50.2123 19.9208 50.1905 19.888L49.7213 19.1729C49.7036 19.1433 49.694 19.1095 49.6936 19.075C49.6801 19.0162 49.6559 18.9603 49.6222 18.9102C49.5622 18.7974 49.4843 18.6951 49.3916 18.6072C49.3685 18.5865 49.3515 18.5599 49.3426 18.5302L49.2142 18.0859C49.2118 18.0776 49.2088 18.0696 49.2052 18.0617L45.4039 9.88929C45.4011 9.88343 45.3979 9.87776 45.3944 9.87228C45.3349 9.7757 44.7664 8.85288 44.6027 8.52605C44.5128 8.32447 44.4365 8.11706 44.3745 7.90523C44.3513 8.34811 44.3741 8.79219 44.4425 9.23037C44.6552 10.6115 46.6471 14.9669 46.9921 16.2948C47.3371 17.6227 46.4876 18.0212 46.8595 18.7912C47.2314 19.5611 48.0546 19.4544 48.0811 19.8271C48.101 20.1083 47.4836 21.3915 47.3766 22.3801C47.6725 22.2442 47.9608 22.0922 48.2402 21.9249C48.9709 21.4598 50.0998 20.5834 50.1663 20.278Z" fill="url(#paint15_linear_9:23)"/>
</g>
<path opacity="0.2" d="M40.369 23.694C40.369 23.694 41.0063 23.8797 42.9983 22.9769C44.9904 22.0742 47.885 20.5338 48.7614 20.1087C49.6378 19.6836 49.8235 19.0466 49.8235 19.0466" stroke="#707070" stroke-width="0.304" stroke-miterlimit="10" stroke-linecap="round"/>
<path opacity="0.2" d="M21.4332 24.8625C21.4332 24.8625 20.6362 32.352 20.6362 35.539C20.6362 38.7259 20.2647 38.1945 22.5484 40.8504C24.832 43.5063 28.5509 46.3746 32.3748 45.5246C36.1987 44.6745 32.0085 44.0489 30.4627 42.3376C27.4885 39.0446 28.2319 39.5756 25.895 35.0078C24.4362 32.1567 25.9482 27.8372 25.2577 25.2346C24.5671 22.6319 23.0799 20.5072 21.4332 24.8625Z" fill="url(#paint16_linear_9:23)"/>
<path opacity="0.3" d="M27.8605 25.1285C27.8605 25.1285 28.4448 31.3429 29.9318 34.5829C31.4188 37.8229 33.0655 38.9382 34.2339 39.3633C35.4022 39.7884 35.9333 38.8319 35.6678 38.0352C35.4024 37.2386 32.6411 35.8575 32.6411 32.1924C32.6411 28.5273 31.5785 24.0661 27.8605 25.1285Z" fill="url(#paint17_linear_9:23)"/>
<path opacity="0.2" d="M17.609 42.3375C17.609 42.3375 16.5112 44.8517 16.7235 46.4452C16.9359 48.0387 19.3441 49.7384 22.1414 49.5614C24.9388 49.3844 27.2053 48.7112 27.0283 48.1096C26.8513 47.508 22.8146 45.2413 21.859 43.6832C20.9034 42.1251 18.8838 39.5757 17.609 42.3375Z" fill="url(#paint18_linear_9:23)"/>
<path style="mix-blend-mode:multiply" opacity="0.5" d="M11.545 18.3959C11.545 18.3959 10.4386 18.0814 10.0667 19.0375C9.69481 19.9937 9.90719 20.9496 9.35829 21.7466C8.80939 22.5436 6.37489 24.0932 6.37489 24.0932C6.65496 24.2538 6.95189 24.3829 7.26031 24.4784C7.63644 24.571 8.42459 24.8237 8.95563 24.7613C9.22797 24.7389 9.49524 24.6748 9.74803 24.571C9.74803 24.571 10.8193 22.3933 10.9477 22.026C11.0163 21.8726 11.0539 21.707 11.0582 21.539L11.5228 19.9056L11.545 18.3959Z" fill="url(#paint19_linear_9:23)"/>
<path opacity="0.5" d="M19.9645 2.6959C19.9645 2.6959 21.2926 3.6342 25.1522 3.58012C29.0118 3.52605 30.2161 2.53555 30.2161 2.53555" stroke="#B5C4C7" stroke-width="0.304" stroke-miterlimit="10"/>
<path opacity="0.4" d="M18.6712 3.93504C18.6712 3.93504 19.9722 8.37027 24.9918 8.3968C30.0115 8.42332 31.5249 4.14777 31.5249 4.14777" stroke="#B5C4C7" stroke-width="0.304" stroke-miterlimit="10"/>
<path style="mix-blend-mode:multiply" opacity="0.2" d="M38.5099 20.1088L38.8818 18.6216C38.8818 18.6216 37.2085 15.5144 36.0931 14.638C36.2522 13.5497 38.7751 16.2844 39.2535 16.9482C39.7318 17.6121 39.5721 18.5417 39.5721 18.5417L38.5099 20.1088Z" fill="url(#paint20_linear_9:23)"/>
<path opacity="0.7" d="M7.80921 8.83497C8.02159 9.28661 7.43733 9.88414 7.7162 10.7471C7.99507 11.6101 8.83185 13.4292 8.68544 13.5889C8.53903 13.7485 7.70293 10.5221 7.25164 10.3487C6.80035 10.1753 6.62758 10.5082 6.78674 11.4111C6.9459 12.314 7.68967 15.1956 7.5703 15.6073C7.45093 16.0189 7.03892 15.6999 6.93298 14.2394C6.82704 12.7789 6.32219 11.2249 6.29566 10.8136C6.26913 10.4023 5.977 10.9993 5.84403 10.6408C5.71105 10.2824 6.98586 9.15363 7.01239 8.56954C7.03892 7.98544 7.80921 8.83497 7.80921 8.83497Z" fill="url(#paint21_linear_9:23)"/>
<path style="mix-blend-mode:multiply" opacity="0.2" d="M39.8247 17.7719C39.8247 17.7719 39.9971 16.6429 40.2631 16.1519C40.529 15.6608 40.8341 16.1784 41.4449 16.311C42.0556 16.4437 42.3345 16.6564 42.1883 17.108C42.042 17.5596 41.4981 17.4141 40.8208 17.9179C40.1435 18.4218 38.789 20.4143 38.8157 21.1979C38.7136 20.9382 38.6294 20.672 38.5635 20.4009C38.5635 20.4009 39.6518 18.8472 39.8247 17.7719Z" fill="url(#paint22_linear_9:23)"/>
<path opacity="0.5" d="M10.1373 11.7784C10.1373 11.7784 10.9875 13.177 11.0934 14.363C11.1993 15.5491 11.3058 16.8241 11.1997 16.9477C11.0936 17.0713 9.30507 14.8585 8.93353 13.7079C8.56199 12.5572 8.2605 11.4414 8.03026 11.5653C7.80002 11.6893 8.36678 13.495 8.9689 14.5751C9.57102 15.6552 11.0183 17.3723 11.4275 17.452C11.8368 17.5318 11.3415 12.9991 11.0404 12.6097C10.7709 12.3002 10.468 12.0214 10.1373 11.7784Z" fill="url(#paint23_linear_9:23)"/>
<g opacity="0.8">
<path opacity="0.8" d="M15.2564 52.9475C14.1411 52.3102 15.4691 51.5132 13.8224 49.7073C12.1757 47.9015 14.0348 43.4397 14.3002 42.2181C14.5657 40.9965 14.6721 40.6247 13.61 39.0312C12.548 37.4377 14.0879 28.3547 14.4603 26.0707C14.8327 23.7867 14.8854 22.8841 13.876 21.8217C12.8666 20.7593 12.6007 18.741 12.6007 18.741L11.6267 16.8995L11.5025 20.5409C11.5419 20.5436 11.5789 20.5603 11.607 20.588C11.6351 20.6157 11.6523 20.6525 11.6556 20.6917L11.6573 20.706C11.7105 21.1976 11.6838 21.9014 11.7105 22.1669C11.7372 22.4323 12.2283 31.6347 12.215 31.9933C12.2345 32.4732 12.2782 32.9518 12.3461 33.4273C12.3471 33.4362 12.3475 33.4452 12.3471 33.4541C12.3369 33.7711 12.1499 39.5559 12.2016 39.8011C12.2548 40.0537 12.2281 40.1072 12.1883 40.4519C12.1485 40.7966 12.0159 43.6256 11.9759 44.0639C11.936 44.5023 11.6173 48.5124 11.5243 49.6276C11.4313 50.7427 11.5643 51.8053 11.4445 52.4294C11.3248 53.0534 11.2987 53.545 11.5775 53.7574C11.8564 53.9698 13.3305 54.249 14.0474 54.2888C14.4514 54.3112 15.3397 54.3629 16.1131 54.4066C16.0561 53.9079 15.8556 53.2901 15.2564 52.9475Z" fill="url(#paint24_linear_9:23)"/>
</g>
<path opacity="0.2" d="M37.2264 45.5955C37.2264 45.5955 38.5358 51.438 36.9784 52.6774C35.4209 53.9169 30.2151 53.5629 26.8865 53.4212C23.5579 53.2796 22.0707 53.1026 21.8937 51.9694C21.7167 50.8362 22.6018 50.5529 23.6281 50.4113C24.6545 50.2696 25.1859 51.6507 27.7355 51.8277C30.2851 52.0048 31.2768 50.0215 32.8346 48.1098C34.3923 46.198 37.2264 45.5955 37.2264 45.5955Z" fill="url(#paint25_linear_9:23)"/>
<path style="mix-blend-mode:multiply" opacity="0.5" d="M40.1166 16.9217C40.0747 17.2647 39.9991 17.6027 39.891 17.9309C39.7646 18.1965 39.2669 18.801 38.9814 19.1858C38.6959 19.5706 38.4898 20.4206 38.5963 20.726C38.6228 20.4273 38.583 19.7238 39.0343 19.3785C39.4856 19.0331 39.5723 19.0331 39.5723 19.0331L39.0942 19.2122C39.0942 19.2122 39.9104 18.2429 40.0103 17.964C40.1103 17.6852 40.1166 16.9217 40.1166 16.9217Z" fill="url(#paint26_linear_9:23)"/>
<g style="mix-blend-mode:multiply" opacity="0.5">
<path d="M11.4832 52.8545C11.4832 52.8545 11.9083 53.3858 15.8033 53.7047C19.6983 54.0235 23.9823 53.9876 25.0808 54.0587C26.1793 54.1298 29.7549 54.2003 31.3484 54.2711C32.9419 54.3418 37.1203 53.9524 38.2533 53.2797" stroke="#707070" stroke-width="0.152" stroke-miterlimit="10"/>
</g>
</g>
<defs>
<linearGradient id="paint0_linear_9:23" x1="0.0104218" y1="28.0379" x2="50.2221" y2="28.0379" gradientUnits="userSpaceOnUse">
<stop stop-color="#B8C2CC"/>
<stop offset="0.077" stop-color="#C7CFD7"/>
<stop offset="0.187" stop-color="#D6DCE1"/>
<stop offset="0.317" stop-color="#DFE3E8"/>
<stop offset="0.514" stop-color="#E2E6EA"/>
<stop offset="0.774" stop-color="#E0E4E8"/>
<stop offset="0.868" stop-color="#D9DEE3"/>
<stop offset="0.934" stop-color="#CDD4DB"/>
<stop offset="0.988" stop-color="#BCC6CF"/>
<stop offset="1" stop-color="#B8C2CC"/>
</linearGradient>
<linearGradient id="paint1_linear_9:23" x1="25.1059" y1="55.0943" x2="25.1059" y2="0.980675" gradientUnits="userSpaceOnUse">
<stop stop-color="#B8C2CC"/>
<stop offset="0.006" stop-color="#B9C3CC" stop-opacity="0.969"/>
<stop offset="0.052" stop-color="#C1CAD2" stop-opacity="0.769"/>
<stop offset="0.103" stop-color="#C9D0D8" stop-opacity="0.584"/>
<stop offset="0.158" stop-color="#D0D6DD" stop-opacity="0.424"/>
<stop offset="0.22" stop-color="#D5DBE1" stop-opacity="0.29"/>
<stop offset="0.289" stop-color="#DADFE4" stop-opacity="0.184"/>
<stop offset="0.37" stop-color="#DDE2E6" stop-opacity="0.102"/>
<stop offset="0.47" stop-color="#E0E4E8" stop-opacity="0.043"/>
<stop offset="0.61" stop-color="#E1E5E9" stop-opacity="0.01"/>
<stop offset="1" stop-color="#E2E6EA" stop-opacity="0"/>
</linearGradient>
<linearGradient id="paint2_linear_9:23" x1="25.1165" y1="33.6315" x2="25.1165" y2="-34.3161" gradientUnits="userSpaceOnUse">
<stop stop-color="white" stop-opacity="0"/>
<stop offset="0.007" stop-color="white" stop-opacity="0.035"/>
<stop offset="0.048" stop-color="white" stop-opacity="0.216"/>
<stop offset="0.093" stop-color="white" stop-opacity="0.384"/>
<stop offset="0.142" stop-color="white" stop-opacity="0.533"/>
<stop offset="0.195" stop-color="white" stop-opacity="0.659"/>
<stop offset="0.254" stop-color="white" stop-opacity="0.769"/>
<stop offset="0.32" stop-color="white" stop-opacity="0.855"/>
<stop offset="0.397" stop-color="white" stop-opacity="0.922"/>
<stop offset="0.493" stop-color="white" stop-opacity="0.965"/>
<stop offset="0.627" stop-color="white" stop-opacity="0.992"/>
<stop offset="1" stop-color="white"/>
</linearGradient>
<linearGradient id="paint3_linear_9:23" x1="19.6163" y1="4.46821" x2="30.9323" y2="4.46821" gradientUnits="userSpaceOnUse">
<stop stop-color="#B0BCC7"/>
<stop offset="0.179" stop-color="#D3DAE0"/>
<stop offset="0.522" stop-color="#EEF1F5"/>
<stop offset="0.651" stop-color="#EBEEF2"/>
<stop offset="0.746" stop-color="#E1E6EB"/>
<stop offset="0.83" stop-color="#D1D9DF"/>
<stop offset="0.86" stop-color="#CAD3DA"/>
<stop offset="1" stop-color="#B0BCC7"/>
</linearGradient>
<radialGradient id="paint4_radial_9:23" cx="0" cy="0" r="1" gradientUnits="userSpaceOnUse" gradientTransform="translate(8.17267 -6.22445) rotate(-11.75) scale(7.20699 4.27374)">
<stop offset="0.022" stop-color="#EEF1F5"/>
<stop offset="0.304" stop-color="#EBEEF2"/>
<stop offset="0.392" stop-color="#E8ECF0"/>
<stop offset="0.521" stop-color="#E2E7EB"/>
<stop offset="0.687" stop-color="#D2D9DF"/>
<stop offset="0.871" stop-color="#B8C4CC"/>
<stop offset="1" stop-color="#A2B1BB"/>
</radialGradient>
<radialGradient id="paint5_radial_9:23" cx="0" cy="0" r="1" gradientUnits="userSpaceOnUse" gradientTransform="translate(15.0734 2.47421) scale(8.86785 8.87202)">
<stop stop-color="white"/>
<stop offset="1" stop-color="#DCE3E9"/>
</radialGradient>
<linearGradient id="paint6_linear_9:23" x1="6.09033" y1="5.84009" x2="4.77039" y2="23.1968" gradientUnits="userSpaceOnUse">
<stop stop-color="#C3CFDA"/>
<stop offset="1" stop-color="#C3CFDA" stop-opacity="0"/>
</linearGradient>
<linearGradient id="paint7_linear_9:23" x1="11.6026" y1="0.554443" x2="15.7792" y2="12.7814" gradientUnits="userSpaceOnUse">
<stop stop-color="#C3CFDA"/>
<stop offset="1" stop-color="#C3CFDA" stop-opacity="0"/>
</linearGradient>
<linearGradient id="paint8_linear_9:23" x1="13.352" y1="32.5638" x2="24.6349" y2="42.149" gradientUnits="userSpaceOnUse">
<stop stop-color="#C3CFDA"/>
<stop offset="1" stop-color="#C3CFDA" stop-opacity="0"/>
</linearGradient>
<linearGradient id="paint9_linear_9:23" x1="42.053" y1="7.73724" x2="47.9742" y2="13.9217" gradientUnits="userSpaceOnUse">
<stop stop-color="#C3CFDA"/>
<stop offset="1" stop-color="#C3CFDA" stop-opacity="0"/>
</linearGradient>
<linearGradient id="paint10_linear_9:23" x1="38.4942" y1="18.4923" x2="40.094" y2="18.617" gradientUnits="userSpaceOnUse">
<stop offset="0.195" stop-color="#7591A9"/>
<stop offset="1" stop-color="#B0C0CE" stop-opacity="0"/>
</linearGradient>
<linearGradient id="paint11_linear_9:23" x1="12.3133" y1="16.9546" x2="10.2227" y2="16.935" gradientUnits="userSpaceOnUse">
<stop offset="0.195" stop-color="#7591A9"/>
<stop offset="1" stop-color="#B0C0CE" stop-opacity="0"/>
</linearGradient>
<linearGradient id="paint12_linear_9:23" x1="15.6189" y1="14.1233" x2="14.3285" y2="23.3427" gradientUnits="userSpaceOnUse">
<stop stop-color="#C3CFDA"/>
<stop offset="1" stop-color="#C3CFDA" stop-opacity="0"/>
</linearGradient>
<linearGradient id="paint13_linear_9:23" x1="32.9491" y1="17.2695" x2="41.806" y2="20.0084" gradientUnits="userSpaceOnUse">
<stop stop-color="#C3CFDA"/>
<stop offset="1" stop-color="#C3CFDA" stop-opacity="0"/>
</linearGradient>
<linearGradient id="paint14_linear_9:23" x1="39.1331" y1="22.8793" x2="42.3114" y2="21.2553" gradientUnits="userSpaceOnUse">
<stop stop-color="#C3CFDA"/>
<stop offset="1" stop-color="#C3CFDA" stop-opacity="0"/>
</linearGradient>
<linearGradient id="paint15_linear_9:23" x1="50.0662" y1="14.9834" x2="44.4056" y2="15.019" gradientUnits="userSpaceOnUse">
<stop stop-color="#C3CFDA"/>
<stop offset="1" stop-color="#C3CFDA" stop-opacity="0"/>
</linearGradient>
<linearGradient id="paint16_linear_9:23" x1="27.2771" y1="45.6768" x2="27.2771" y2="22.3592" gradientUnits="userSpaceOnUse">
<stop stop-color="white"/>
<stop offset="0.201" stop-color="white" stop-opacity="0.82"/>
<stop offset="0.653" stop-color="white" stop-opacity="0.365"/>
<stop offset="1" stop-color="white" stop-opacity="0"/>
</linearGradient>
<linearGradient id="paint17_linear_9:23" x1="31.7977" y1="39.4679" x2="31.7977" y2="24.9691" gradientUnits="userSpaceOnUse">
<stop stop-color="white"/>
<stop offset="0.201" stop-color="white" stop-opacity="0.82"/>
<stop offset="0.653" stop-color="white" stop-opacity="0.365"/>
<stop offset="1" stop-color="white" stop-opacity="0"/>
</linearGradient>
<linearGradient id="paint18_linear_9:23" x1="21.8671" y1="49.5742" x2="21.8671" y2="41.1112" gradientUnits="userSpaceOnUse">
<stop stop-color="white"/>
<stop offset="0.201" stop-color="white" stop-opacity="0.82"/>
<stop offset="0.653" stop-color="white" stop-opacity="0.365"/>
<stop offset="1" stop-color="white" stop-opacity="0"/>
</linearGradient>
<linearGradient id="paint19_linear_9:23" x1="12.274" y1="22.3683" x2="6.94871" y2="21.2533" gradientUnits="userSpaceOnUse">
<stop stop-color="#C3CFDA"/>
<stop offset="1" stop-color="#C3CFDA" stop-opacity="0"/>
</linearGradient>
<linearGradient id="paint20_linear_9:23" x1="38.2309" y1="13.6753" x2="36.1082" y2="19.5055" gradientUnits="userSpaceOnUse">
<stop stop-color="#C3CFDA"/>
<stop offset="1" stop-color="#C3CFDA" stop-opacity="0"/>
</linearGradient>
<linearGradient id="paint21_linear_9:23" x1="7.93382" y1="7.16434" x2="3.15476" y2="12.4187" gradientUnits="userSpaceOnUse">
<stop stop-color="#C3CFDA"/>
<stop offset="1" stop-color="#C3CFDA" stop-opacity="0"/>
</linearGradient>
<linearGradient id="paint22_linear_9:23" x1="40.8932" y1="15.0198" x2="39.1746" y2="21.1376" gradientUnits="userSpaceOnUse">
<stop stop-color="#C3CFDA"/>
<stop offset="1" stop-color="#C3CFDA" stop-opacity="0"/>
</linearGradient>
<linearGradient id="paint23_linear_9:23" x1="10.2598" y1="10.8187" x2="8.11383" y2="16.7221" gradientUnits="userSpaceOnUse">
<stop stop-color="#C3CFDA"/>
<stop offset="1" stop-color="#C3CFDA" stop-opacity="0"/>
</linearGradient>
<linearGradient id="paint24_linear_9:23" x1="12.3239" y1="35.5405" x2="15.1959" y2="35.5447" gradientUnits="userSpaceOnUse">
<stop stop-color="#C3CFDA"/>
<stop offset="1" stop-color="#C3CFDA" stop-opacity="0"/>
</linearGradient>
<linearGradient id="paint25_linear_9:23" x1="27.6637" y1="44.3821" x2="29.1084" y2="57.778" gradientUnits="userSpaceOnUse">
<stop stop-color="white" stop-opacity="0"/>
<stop offset="0.347" stop-color="white" stop-opacity="0.365"/>
<stop offset="0.799" stop-color="white" stop-opacity="0.82"/>
<stop offset="1" stop-color="white"/>
</linearGradient>
<linearGradient id="paint26_linear_9:23" x1="38.2178" y1="16.1494" x2="41.738" y2="17.5187" gradientUnits="userSpaceOnUse">
<stop stop-color="#61819E"/>
<stop offset="1" stop-color="#C3CFDA" stop-opacity="0"/>
</linearGradient>
<clipPath id="clip0_9:23">
<rect width="50.2226" height="56" fill="white"/>
</clipPath>
</defs>
</svg>
