<svg width="24" height="56" viewBox="0 0 24 56" fill="none" xmlns="http://www.w3.org/2000/svg">
<g clip-path="url(#clip0_13:119)">
<path d="M17.3085 0.14125C17.3085 0.14125 17.5798 0.15875 18.0385 0.74395C18.5222 1.50765 18.6494 1.96615 19.5407 3.21373C20.4319 4.4613 21.4249 6.95715 22.0358 9.04473C22.6467 11.1323 23.258 14.2648 22.9526 16.5818C22.6473 18.8988 22.4178 20.8343 22.3669 21.7254C22.316 22.6165 22.3925 28.7779 22.036 31.1978C21.6795 33.6177 21.5523 35.9338 21.5523 35.9338C21.5523 35.9338 21.7051 40.1354 21.5267 40.9502C21.3484 41.765 21.3484 42.58 21.5267 42.86C21.7051 43.14 21.756 44.7442 21.9852 45.5082C22.2145 46.2723 22.418 47.1121 22.4945 48.9207C22.571 50.7294 22.0869 53.8095 22.0869 53.8095C22.0869 53.8095 18.2163 55.9475 13.5313 55.9988C8.84642 56.0501 3.0149 54.5731 3.0149 54.5731C3.0149 54.5731 0.010498 53.3762 0.010498 51.975C0.010498 50.5738 0.72345 46.5514 0.5705 45.5837C0.41755 44.6159 0.162923 42.9863 0.111998 39.7527C0.0610734 36.519 0.646799 30.3568 0.799574 28.1416C0.952349 25.9265 1.61437 19.7388 1.56362 18.0327C1.51287 16.3267 1.3853 16.4539 2.12363 14.6713C2.86195 12.8888 6.45242 6.44632 6.65612 5.73407C6.65671 5.46253 6.73637 5.19704 6.88538 4.97003C6.88538 4.97003 9.17682 3.44227 10.3736 2.8058C11.5705 2.16932 13.0982 0.590475 14.2949 0.2333C15.2768 -0.0432726 16.3116 -0.0748787 17.3085 0.14125Z" fill="url(#paint0_linear_13:119)"/>
<path d="M17.298 0.14123C17.298 0.14123 17.5694 0.15873 18.0279 0.74393C18.5116 1.50763 18.6389 1.96613 19.5301 3.2137C20.4214 4.46128 21.4144 6.95713 22.0253 9.04471C22.6362 11.1323 23.2475 14.2648 22.9421 16.5818C22.6367 18.8988 22.4073 20.8343 22.3564 21.7254C22.3055 22.6165 22.3819 28.7779 22.0255 31.1978C21.669 33.6177 21.5418 35.9338 21.5418 35.9338C21.5418 35.9338 21.6945 40.1354 21.5162 40.9502C21.3379 41.765 21.3379 42.58 21.5162 42.86C21.6945 43.14 21.7455 44.7442 21.9747 45.5082C22.204 46.2723 22.4075 47.1121 22.484 48.9207C22.5604 50.7294 22.0764 53.8095 22.0764 53.8095C22.0764 53.8095 18.2061 55.9486 13.5208 55.9993C8.83554 56.0501 3.00437 54.5736 3.00437 54.5736C3.00437 54.5736 0.000671387 53.3762 0.000671387 51.975C0.000671387 50.5738 0.713621 46.5514 0.560671 45.5837C0.407721 44.6159 0.153097 42.9863 0.102172 39.7527C0.0512467 36.519 0.636972 30.3567 0.789747 28.1416C0.942522 25.9264 1.6049 19.7388 1.5538 18.0327C1.5027 16.3266 1.37547 16.4539 2.1138 14.6713C2.85212 12.8888 6.44225 6.44631 6.6463 5.73406C6.64688 5.46251 6.72654 5.19702 6.87555 4.97001C6.87555 4.97001 9.16699 3.44225 10.3638 2.80578C11.5606 2.1693 13.0887 0.590455 14.2854 0.23328C15.267 -0.0431828 16.3014 -0.0747888 17.298 0.14123Z" fill="url(#paint1_linear_13:119)"/>
<path d="M17.3085 0.14125C17.3085 0.14125 17.5798 0.15875 18.0385 0.74395C18.5222 1.50765 18.6494 1.96615 19.5407 3.21373C20.4319 4.4613 21.4249 6.95715 22.0358 9.04473C22.6467 11.1323 23.258 14.2648 22.9526 16.5818C22.6473 18.8988 22.4178 20.8343 22.3669 21.7254C22.316 22.6165 22.3925 28.7779 22.036 31.1978C21.6795 33.6177 21.5523 35.9338 21.5523 35.9338C21.5523 35.9338 21.7051 40.1354 21.5267 40.9502C21.3484 41.765 21.3484 42.58 21.5267 42.86C21.7051 43.14 21.756 44.7442 21.9852 45.5082C22.2145 46.2723 22.418 47.1121 22.4945 48.9207C22.571 50.7294 22.0869 53.8095 22.0869 53.8095C22.0869 53.8095 18.2163 55.9475 13.5313 55.9988C8.84642 56.0501 3.0149 54.5731 3.0149 54.5731C3.0149 54.5731 0.010498 53.3762 0.010498 51.975C0.010498 50.5738 0.72345 46.5514 0.5705 45.5837C0.41755 44.6159 0.162923 42.9863 0.111998 39.7527C0.0610734 36.519 0.646799 30.3568 0.799574 28.1416C0.952349 25.9265 1.61437 19.7388 1.56362 18.0327C1.51287 16.3267 1.3853 16.4539 2.12363 14.6713C2.86195 12.8888 6.45242 6.44632 6.65612 5.73407C6.65671 5.46253 6.73637 5.19704 6.88538 4.97003C6.88538 4.97003 9.17682 3.44227 10.3736 2.8058C11.5705 2.16932 13.0982 0.590475 14.2949 0.2333C15.2768 -0.0432726 16.3116 -0.0748787 17.3085 0.14125Z" fill="url(#paint2_linear_13:119)"/>
<path opacity="0.5" d="M17.3301 0.141249C17.3301 0.141249 17.6019 0.158749 18.06 0.743949C18.5437 1.50765 18.6709 1.96615 19.5622 3.21372C20.4535 4.4613 21.4464 6.95715 22.0574 9.04472C22.6683 11.1323 23.2796 14.2648 22.9742 16.5818C22.6688 18.8988 22.4394 20.8343 22.3888 21.7254C22.3382 22.6165 22.414 28.7779 22.0575 31.1978C21.7011 33.6177 21.5733 35.9338 21.5733 35.9338C21.5733 35.9338 21.7261 40.1354 21.5478 40.9502C21.3694 41.765 21.3698 42.58 21.5478 42.86C21.7257 43.14 21.777 44.7442 22.0063 45.5082C22.2355 46.2723 22.439 47.1121 22.5155 48.9207C22.592 50.7293 22.1079 53.8095 22.1079 53.8095C22.1079 53.8095 18.2376 55.9485 13.5524 55.9993C8.86709 56.05 3.03592 54.5736 3.03592 54.5736C3.03592 54.5736 0.0320435 53.3762 0.0320435 51.975C0.0320435 50.5738 0.744993 46.5514 0.592043 45.5837C0.439093 44.6159 0.184469 42.9863 0.133544 39.7527C0.0826188 36.519 0.668344 30.3567 0.821119 28.1416C0.973894 25.9264 1.63627 19.7388 1.58517 18.0327C1.53407 16.3266 1.40684 16.4539 2.14517 14.6713C2.88349 12.8888 6.47362 6.44632 6.67767 5.73407C6.67825 5.46253 6.75791 5.19703 6.90692 4.97002C6.90692 4.97002 9.19942 3.44227 10.3955 2.8058C11.5917 2.16932 13.1201 0.590474 14.3168 0.2333C15.2986 -0.0432722 16.3332 -0.0748785 17.3301 0.141249Z" fill="url(#paint3_linear_13:119)"/>
<path style="mix-blend-mode:multiply" d="M21.2916 14.8009C21.4765 15.9031 21.541 17.0221 21.4841 18.1382C21.4072 20.1507 20.3641 22.2157 20.2489 23.4176C20.1338 24.6195 19.9402 25.5947 19.9402 25.5947C18.5733 25.573 17.2064 25.6404 15.8482 25.7963C13.8023 26.0497 9.55605 26.3721 9.36303 25.6831C9.17 24.9941 9.51755 24.4077 9.55553 24.3006C9.5935 24.1935 8.55173 18.076 8.28153 16.9893C8.10547 16.2217 7.98939 15.4415 7.93433 14.6558C7.93433 14.6558 13.9956 10.0344 17.0459 9.6232C20.0961 9.21195 18.8596 14.0157 21.2916 14.8009Z" fill="url(#paint4_linear_13:119)"/>
<path d="M18.8022 24.433C18.8209 24.4609 18.8327 24.4928 18.8367 24.5261C18.8407 24.5594 18.8368 24.5932 18.8252 24.6247C18.8136 24.6562 18.7948 24.6845 18.7701 24.7072C18.7455 24.73 18.7158 24.7467 18.6835 24.7557C18.4287 24.8744 16.239 24.5009 14.3378 24.3993C12.4366 24.2976 8.80355 24.9085 8.88842 23.9068C8.9733 22.9051 12.2659 22.2601 13.9809 22.3959C15.6959 22.5317 18.3776 22.6335 18.8022 24.433Z" fill="url(#paint5_linear_13:119)"/>
<path d="M18.9282 23.9945L18.7955 24.5928C18.7955 24.5928 17.7835 23.4314 16.383 23.1769C14.9825 22.9225 11.7997 22.9732 10.9085 23.1258C10.0172 23.2784 8.82037 23.9406 8.82037 23.9406C8.72491 23.5647 8.72491 23.1708 8.82037 22.7949C8.9735 22.1073 8.9987 22.0056 8.9987 22.0056C8.9987 22.0056 8.94795 19.8666 8.84592 18.7718C8.7874 18.0902 8.8304 17.4038 8.9735 16.7348C8.33937 15.8202 7.98533 14.7407 7.95465 13.6282C7.9039 11.769 8.9987 7.79721 9.63465 6.72761C10.2706 5.65801 13.4283 4.10471 14.931 4.30858C16.4337 4.51246 18.725 7.28796 19.6159 8.71368C20.5069 10.1394 21.424 11.8968 21.2713 13.8828C21.1185 15.8689 19.9218 16.3785 19.9218 17.2953C19.9218 18.2122 19.463 22.4923 18.9282 23.9945Z" fill="url(#paint6_linear_13:119)"/>
<path d="M18.9138 24.0797L18.8064 24.5958C18.8064 24.5958 17.7835 23.4314 16.383 23.1769C14.9825 22.9225 11.7997 22.9732 10.9085 23.1258C10.0172 23.2784 8.82037 23.9406 8.82037 23.9406C8.72491 23.5647 8.72491 23.1708 8.82037 22.7949C8.9735 22.1073 8.9987 22.0056 8.9987 22.0056C8.9987 22.0056 8.94795 19.8666 8.84592 18.7718C8.7874 18.0902 8.8304 17.4038 8.9735 16.7348C8.33937 15.8202 7.98533 14.7407 7.95465 13.6282C7.9039 11.769 8.9987 7.79721 9.63465 6.72761C10.2706 5.65801 13.4283 4.10471 14.931 4.30858C16.4337 4.51246 18.725 7.28796 19.6159 8.71368C20.5069 10.1394 21.424 11.8968 21.2713 13.8828C21.1185 15.8689 19.9218 16.3785 19.9218 17.2953C19.9218 18.2122 19.4486 22.577 18.9138 24.0797Z" fill="url(#paint7_linear_13:119)"/>
<path opacity="0.8" d="M18.9916 24.1009L18.8003 24.6033C18.8003 24.6033 17.7832 23.4308 16.3827 23.1769C14.9821 22.923 11.7994 22.9732 10.9081 23.1258C10.0169 23.2784 8.82003 23.9406 8.82003 23.9406C8.72457 23.5647 8.72457 23.1708 8.82003 22.7949C8.97316 22.1073 8.99836 22.0056 8.99836 22.0056C8.99836 22.0056 8.94761 19.8666 8.84559 18.7718C8.78707 18.0902 8.83006 17.4038 8.97316 16.7348C8.33903 15.8202 7.985 14.7407 7.95431 13.6282C7.90356 11.769 8.99836 7.79721 9.63431 6.72761C10.2703 5.65801 13.428 4.10471 14.9307 4.30858C16.4334 4.51246 18.7247 7.28796 19.6156 8.71368C20.5065 10.1394 21.4237 11.8968 21.2709 13.8828C21.1182 15.8689 19.9215 16.3785 19.9215 17.2953C19.9215 18.2122 19.5265 22.5984 18.9916 24.1009Z" fill="url(#paint8_linear_13:119)"/>
<path opacity="0.7" d="M22.1634 22.4128C22.1634 22.4128 21.5521 26.2834 19.9234 28.4221C18.2947 30.5608 17.0709 34.5334 17.5805 37.5889C18.0901 40.6444 21.0436 39.3204 21.1453 37.0797C21.2469 34.839 21.7565 31.7492 21.9604 30.0177C22.1643 28.2863 22.1634 22.4128 22.1634 22.4128Z" fill="url(#paint9_linear_13:119)"/>
<path opacity="0.4" d="M21.4163 39.7957C21.4163 39.7957 20.7034 42.0026 20.2613 42.5458C19.8193 43.089 17.783 44.3115 18.2584 45.8393C18.7339 47.367 20.9064 49.3361 21.7553 47.6047C22.6042 45.8732 20.9064 43.4966 21.0765 42.6139C21.2466 41.7312 21.8239 40.0674 21.4163 39.7957Z" fill="url(#paint10_linear_13:119)"/>
<path opacity="0.3" d="M3.01492 20.0702C3.01492 20.0702 3.11695 28.6258 6.2743 34.1259C9.43165 39.6259 10.4503 38.913 10.4503 38.913C10.4503 38.913 11.7744 35.0427 9.02425 32.0889C6.27413 29.135 4.64487 29.3389 3.01492 20.0702Z" fill="url(#paint11_linear_13:119)"/>
<path opacity="0.3" d="M2.60786 22.2095C2.60786 22.2095 2.30196 43.2925 5.56081 43.6995C8.81966 44.1066 9.83869 39.9309 9.83869 39.9309C9.83869 39.9309 4.54266 37.9963 2.60786 22.2095Z" fill="url(#paint12_linear_13:119)"/>
<path opacity="0.4" d="M9.66931 18.5087C9.66931 18.5087 8.03988 18.169 7.15683 16.8789C6.60854 16.0725 6.10974 15.2334 5.66321 14.3665C5.66321 14.3665 5.73111 17.1507 6.74961 18.7801C7.76811 20.4096 9.60211 20.6813 9.60211 20.6813L9.66931 18.5087Z" fill="url(#paint13_linear_13:119)"/>
<g style="mix-blend-mode:multiply" opacity="0.5">
<path d="M14.864 0.174999C14.864 0.174999 15.1695 0.922249 14.9657 1.5673C14.7618 2.21235 14.3547 2.28025 14.1167 4.65657" stroke="#707070" stroke-width="0.567" stroke-miterlimit="10"/>
</g>
<path d="M21.1787 14.4343C21.1787 14.4343 21.9935 12.0238 19.6847 8.86628C17.3759 5.70876 16.052 5.19986 16.052 5.19986" stroke="#707070" stroke-width="0.567" stroke-miterlimit="10"/>
<path d="M20.2538 10.6233C20.2538 10.6233 21.043 12.0494 20.661 13.1958C20.279 14.3422 17.7075 13.1958 17.6311 13.2975C17.5546 13.3992 20.3045 13.9854 20.3556 14.5452C20.4067 15.1051 16.587 16.073 16.3578 16.7098C16.1285 17.3466 19.5408 15.2837 19.8719 15.5637C20.203 15.8437 17.6566 16.9132 16.9692 17.6774C16.2818 18.4416 19.7193 16.0224 19.6938 16.4296C19.6682 16.8369 19.439 18.0339 18.9045 18.6959C18.3701 19.3579 18.9553 20.4529 18.8534 21.3186C18.7516 22.1843 18.3697 23.7884 18.3697 23.7884L18.8384 24.5988C18.8384 24.5988 19.4264 22.0823 19.6045 20.4784C19.7827 18.8746 19.8208 16.837 20.0121 16.5059C20.2034 16.1748 21.1449 15.4489 21.2215 14.2526C21.2982 13.0563 20.9793 11.4003 20.2538 10.6233Z" fill="url(#paint14_linear_13:119)"/>
<g style="mix-blend-mode:multiply" opacity="0.5">
<path d="M18.8531 23.3551C18.8531 23.3551 18.3183 22.1074 15.2883 21.9035C12.2584 21.6996 9.22791 22.642 9.22791 22.642" stroke="#707070" stroke-width="0.567" stroke-miterlimit="10"/>
</g>
<g style="mix-blend-mode:multiply" opacity="0.5">
<path d="M21.7049 52.9175C21.7049 52.9175 17.5798 54.8017 14.1678 54.8017C10.7558 54.8017 3.42282 53.274 3.42282 53.274C3.42282 53.274 0.825473 52.5103 0.316223 51.4407" stroke="#707070" stroke-width="0.567" stroke-miterlimit="10"/>
</g>
<path d="M17.7499 0.701494C17.7499 0.701494 15.9841 0.277119 14.813 0.599469C13.6419 0.921819 12.2327 2.12722 11.4858 2.53479C10.7389 2.94237 7.37763 4.91147 6.81763 5.62442" stroke="#707070" stroke-width="0.567" stroke-miterlimit="10"/>
<path opacity="0.1" d="M19.8179 10.2716C19.8179 10.2716 18.2394 6.6048 16.4313 5.86612C14.6232 5.12745 11.3132 5.58612 10.5495 6.70612C9.78584 7.82612 9.09791 9.50717 9.55624 10.322C10.0146 11.1368 12.5865 7.6485 14.6235 8.33607C16.6605 9.02365 18.4175 11.1886 19.054 11.1886C19.6905 11.1886 18.0607 10.2453 19.8179 10.2716Z" fill="url(#paint15_linear_13:119)"/>
<path opacity="0.1" d="M9.48272 21.98C8.52804 21.6278 7.6212 21.1574 6.78334 20.58C5.48484 19.6632 4.87357 18.161 4.31357 18.263C3.75357 18.365 4.56802 25.3155 6.29947 27.8623C8.03092 30.409 11.061 32.9042 12.1051 30.1285C13.1491 27.3528 12.3599 25.418 14.0915 24.5268C15.8231 23.6355 13.8623 21.7507 9.48272 21.98Z" fill="url(#paint16_linear_13:119)"/>
<path opacity="0.2" d="M6.86052 5.83628C6.6822 6.09108 5.10352 8.58641 5.4089 8.94289C5.71427 9.29936 7.26757 8.25531 8.0318 7.77161C8.79602 7.28791 9.91603 5.22536 11.7243 4.71611C13.5326 4.20686 13.5069 1.40581 13.5069 1.40581L6.86052 5.83628Z" fill="url(#paint17_linear_13:119)"/>
<g style="mix-blend-mode:multiply" opacity="0.5">
<path d="M20.2794 15.8687C20.2794 15.8687 20.7886 15.1561 20.9414 13.7556C21.0942 12.3551 20.1014 9.7322 18.9814 8.51035" stroke="#707070" stroke-width="0.567" stroke-miterlimit="10"/>
</g>
<g style="mix-blend-mode:multiply" opacity="0.5">
<path d="M8.61715 16.1323C8.24785 15.1587 8.10836 14.1131 8.20957 13.0768C8.39647 11.43 9.17714 8.61217 9.17714 8.61217" stroke="#707070" stroke-width="0.567" stroke-miterlimit="10"/>
</g>
<path d="M18.2674 7.79719C18.2674 7.79719 17.3509 6.11719 15.976 5.78469C14.601 5.45219 12.0292 5.35192 10.8835 6.16672C10.2216 6.61203 9.74254 7.28099 9.53403 8.05094" stroke="#707070" stroke-width="0.567" stroke-miterlimit="10"/>
<path opacity="0.2" d="M18.162 40.8834C17.567 40.307 16.1991 42.3091 14.5864 42.547C12.9738 42.7848 9.79582 40.8495 9.58547 41.5285C9.37512 42.2075 11.1043 44.7535 10.707 46.621C10.3098 48.4884 8.08957 50.2198 7.85594 51.9173C7.62232 53.6148 8.18477 54.5728 8.18477 54.5728C8.18477 54.5728 10.6836 53.6146 12.9502 53.5809C15.2168 53.5471 17.0163 54.837 18.7691 53.513C20.5219 52.1889 19.0491 50.6955 18.5122 48.2166C17.9753 45.7377 17.3906 44.2791 18.1151 43.2937C18.8396 42.3083 18.7227 41.4264 18.162 40.8834Z" fill="url(#paint18_linear_13:119)"/>
</g>
<defs>
<linearGradient id="paint0_linear_13:119" x1="23.0338" y1="27.9999" x2="0.010498" y2="27.9999" gradientUnits="userSpaceOnUse">
<stop stop-color="#B8C2CC"/>
<stop offset="0.077" stop-color="#C7CFD7"/>
<stop offset="0.187" stop-color="#D6DCE1"/>
<stop offset="0.317" stop-color="#DFE3E8"/>
<stop offset="0.514" stop-color="#E2E6EA"/>
<stop offset="0.774" stop-color="#E0E4E8"/>
<stop offset="0.868" stop-color="#D9DEE3"/>
<stop offset="0.934" stop-color="#CDD4DB"/>
<stop offset="0.988" stop-color="#BCC6CF"/>
<stop offset="1" stop-color="#B8C2CC"/>
</linearGradient>
<linearGradient id="paint1_linear_13:119" x1="11.512" y1="56.0006" x2="11.512" y2="-0.000335693" gradientUnits="userSpaceOnUse">
<stop stop-color="white" stop-opacity="0"/>
<stop offset="0.347" stop-color="white" stop-opacity="0.365"/>
<stop offset="0.799" stop-color="white" stop-opacity="0.82"/>
<stop offset="1" stop-color="white"/>
</linearGradient>
<linearGradient id="paint2_linear_13:119" x1="11.5222" y1="56.0001" x2="11.5222" y2="-0.000396729" gradientUnits="userSpaceOnUse">
<stop stop-color="white" stop-opacity="0"/>
<stop offset="0.347" stop-color="white" stop-opacity="0.365"/>
<stop offset="0.799" stop-color="white" stop-opacity="0.82"/>
<stop offset="1" stop-color="white"/>
</linearGradient>
<linearGradient id="paint3_linear_13:119" x1="11.5437" y1="56.0006" x2="11.5437" y2="-0.000396729" gradientUnits="userSpaceOnUse">
<stop stop-color="#B8C2CC"/>
<stop offset="0.016" stop-color="#B9C3CD" stop-opacity="0.953"/>
<stop offset="0.103" stop-color="#C3CBD4" stop-opacity="0.733"/>
<stop offset="0.197" stop-color="#CBD2D9" stop-opacity="0.533"/>
<stop offset="0.294" stop-color="#D2D8DE" stop-opacity="0.369"/>
<stop offset="0.398" stop-color="#D8DDE2" stop-opacity="0.235"/>
<stop offset="0.51" stop-color="#DCE1E6" stop-opacity="0.129"/>
<stop offset="0.634" stop-color="#DFE3E8" stop-opacity="0.055"/>
<stop offset="0.78" stop-color="#E1E5E9" stop-opacity="0.012"/>
<stop offset="1" stop-color="#E2E6EA" stop-opacity="0"/>
</linearGradient>
<linearGradient id="paint4_linear_13:119" x1="18.6137" y1="-1.98404" x2="24.5589" y2="11.9013" gradientUnits="userSpaceOnUse">
<stop stop-color="#C3CFDA"/>
<stop offset="1" stop-color="#C3CFDA" stop-opacity="0"/>
</linearGradient>
<linearGradient id="paint5_linear_13:119" x1="18.8383" y1="23.5783" x2="8.88696" y2="23.5783" gradientUnits="userSpaceOnUse">
<stop stop-color="#B0BCC7"/>
<stop offset="0.179" stop-color="#D3DAE0"/>
<stop offset="0.587" stop-color="#D8DEE4"/>
<stop offset="0.86" stop-color="#CAD3DA"/>
<stop offset="1" stop-color="#B0BCC7"/>
</linearGradient>
<linearGradient id="paint6_linear_13:119" x1="21.2881" y1="14.4416" x2="7.95294" y2="14.4416" gradientUnits="userSpaceOnUse">
<stop stop-color="#C4C9CF"/>
<stop offset="0.073" stop-color="#D2D5D9"/>
<stop offset="0.184" stop-color="#E1E2E4"/>
<stop offset="0.316" stop-color="#EAEAEB"/>
<stop offset="0.514" stop-color="#EDEDED"/>
<stop offset="0.776" stop-color="#EBEBEB"/>
<stop offset="0.87" stop-color="#E4E5E6"/>
<stop offset="0.937" stop-color="#D8DBDE"/>
<stop offset="0.99" stop-color="#C7CCD1"/>
<stop offset="1" stop-color="#C4C9CF"/>
</linearGradient>
<linearGradient id="paint7_linear_13:119" x1="14.6205" y1="24.5958" x2="14.6205" y2="4.29038" gradientUnits="userSpaceOnUse">
<stop stop-color="#B8C2CC"/>
<stop offset="0.016" stop-color="#B9C3CD" stop-opacity="0.953"/>
<stop offset="0.103" stop-color="#C3CBD4" stop-opacity="0.733"/>
<stop offset="0.197" stop-color="#CBD2D9" stop-opacity="0.533"/>
<stop offset="0.294" stop-color="#D2D8DE" stop-opacity="0.369"/>
<stop offset="0.398" stop-color="#D8DDE2" stop-opacity="0.235"/>
<stop offset="0.51" stop-color="#DCE1E6" stop-opacity="0.129"/>
<stop offset="0.634" stop-color="#DFE3E8" stop-opacity="0.055"/>
<stop offset="0.78" stop-color="#E1E5E9" stop-opacity="0.012"/>
<stop offset="1" stop-color="#E2E6EA" stop-opacity="0"/>
</linearGradient>
<linearGradient id="paint8_linear_13:119" x1="14.6202" y1="24.6033" x2="14.6202" y2="4.29038" gradientUnits="userSpaceOnUse">
<stop stop-color="white" stop-opacity="0"/>
<stop offset="0.347" stop-color="white" stop-opacity="0.365"/>
<stop offset="0.799" stop-color="white" stop-opacity="0.82"/>
<stop offset="1" stop-color="white"/>
</linearGradient>
<linearGradient id="paint9_linear_13:119" x1="18.7842" y1="28.7238" x2="22.975" y2="29.1837" gradientUnits="userSpaceOnUse">
<stop stop-color="#AEBECD"/>
<stop offset="1" stop-color="#C3CFDA" stop-opacity="0"/>
</linearGradient>
<linearGradient id="paint10_linear_13:119" x1="19.8889" y1="43.0111" x2="22.4951" y2="43.7619" gradientUnits="userSpaceOnUse">
<stop stop-color="#AEBECD"/>
<stop offset="1" stop-color="#C3CFDA" stop-opacity="0"/>
</linearGradient>
<linearGradient id="paint11_linear_13:119" x1="3.04594" y1="29.4123" x2="5.65935" y2="29.4251" gradientUnits="userSpaceOnUse">
<stop stop-color="#AEBECD"/>
<stop offset="1" stop-color="#C3CFDA" stop-opacity="0"/>
</linearGradient>
<linearGradient id="paint12_linear_13:119" x1="2.9549" y1="32.9254" x2="5.56828" y2="32.9352" gradientUnits="userSpaceOnUse">
<stop stop-color="#AEBECD"/>
<stop offset="1" stop-color="#C3CFDA" stop-opacity="0"/>
</linearGradient>
<linearGradient id="paint13_linear_13:119" x1="4.55352" y1="18.3575" x2="9.54222" y2="17.8145" gradientUnits="userSpaceOnUse">
<stop stop-color="#AEBECD"/>
<stop offset="1" stop-color="#C3CFDA" stop-opacity="0"/>
</linearGradient>
<linearGradient id="paint14_linear_13:119" x1="21.2327" y1="17.6111" x2="16.3467" y2="17.6111" gradientUnits="userSpaceOnUse">
<stop stop-color="#AEBECD"/>
<stop offset="1" stop-color="#C3CFDA" stop-opacity="0"/>
</linearGradient>
<linearGradient id="paint15_linear_13:119" x1="14.6133" y1="11.1886" x2="14.6133" y2="5.50671" gradientUnits="userSpaceOnUse">
<stop stop-color="#C3CFDA" stop-opacity="0"/>
<stop offset="1" stop-color="#AEBECD"/>
</linearGradient>
<linearGradient id="paint16_linear_13:119" x1="4.85779" y1="24.7365" x2="8.49773" y2="24.7964" gradientUnits="userSpaceOnUse">
<stop stop-color="#AEBECD"/>
<stop offset="1" stop-color="#C3CFDA" stop-opacity="0"/>
</linearGradient>
<linearGradient id="paint17_linear_13:119" x1="6.38694" y1="3.84857" x2="11.5764" y2="6.42791" gradientUnits="userSpaceOnUse">
<stop stop-color="#AEBECD"/>
<stop offset="1" stop-color="#C3CFDA" stop-opacity="0"/>
</linearGradient>
<linearGradient id="paint18_linear_13:119" x1="11.8595" y1="42.9038" x2="16.6601" y2="55.0551" gradientUnits="userSpaceOnUse">
<stop stop-color="#AEBECD"/>
<stop offset="1" stop-color="#C3CFDA" stop-opacity="0"/>
</linearGradient>
<clipPath id="clip0_13:119">
<rect width="23.0555" height="56" fill="white"/>
</clipPath>
</defs>
</svg>
