<svg width="24" height="56" viewBox="0 0 24 56" fill="none" xmlns="http://www.w3.org/2000/svg">
<g clip-path="url(#clip0_12:89)">
<path d="M5.74705 0.14125C5.74705 0.14125 5.4758 0.15875 5.01713 0.74395C4.53343 1.50765 4.4062 1.96615 3.51493 3.21372C2.62365 4.4613 1.6307 6.95715 1.01978 9.04473C0.408852 11.1323 -0.202423 14.2648 0.102952 16.5818C0.408327 18.8988 0.637752 20.8343 0.688677 21.7254C0.739602 22.6165 0.663126 28.7779 1.0196 31.1978C1.37608 33.6177 1.5033 35.9338 1.5033 35.9338C1.5033 35.9338 1.35053 40.1354 1.52885 40.9502C1.70718 41.765 1.70718 42.58 1.52885 42.86C1.35053 43.14 1.2996 44.7442 1.07035 45.5082C0.841102 46.2723 0.637577 47.1121 0.561102 48.9207C0.484627 50.7294 0.968676 53.8095 0.968676 53.8095C0.968676 53.8095 4.83898 55.9486 9.52425 55.9993C14.2095 56.0501 20.0407 54.5736 20.0407 54.5736C20.0407 54.5736 23.0451 53.3762 23.0451 51.975C23.0451 50.5738 22.3321 46.5514 22.4851 45.5837C22.638 44.6159 22.8927 42.9863 22.9436 39.7527C22.9945 36.519 22.4088 30.3567 22.256 28.1416C22.1033 25.9264 21.4412 19.7388 21.492 18.0327C21.5427 16.3266 21.6703 16.4539 20.932 14.6713C20.1936 12.8888 16.6032 6.44632 16.3995 5.73407C16.3989 5.46253 16.3192 5.19704 16.1702 4.97003C16.1702 4.97003 13.8788 3.44227 12.682 2.8058C11.4851 2.16932 9.95738 0.590475 8.76073 0.2333C7.7788 -0.0432726 6.74403 -0.0748787 5.74705 0.14125Z" fill="url(#paint0_linear_12:89)"/>
<path d="M5.75755 0.14125C5.75755 0.14125 5.48613 0.15875 5.02763 0.74395C4.54393 1.50765 4.4167 1.96615 3.52542 3.21372C2.63415 4.4613 1.6412 6.95715 1.03028 9.04473C0.41935 11.1323 -0.191925 14.2648 0.11345 16.5818C0.418825 18.8988 0.64825 20.8343 0.699175 21.7254C0.7501 22.6165 0.673627 28.7779 1.0301 31.1978C1.38658 33.6177 1.5138 35.9338 1.5138 35.9338C1.5138 35.9338 1.36102 40.1354 1.53935 40.9502C1.71767 41.765 1.71767 42.58 1.53935 42.86C1.36102 43.14 1.3101 44.7442 1.08085 45.5082C0.8516 46.2723 0.648075 47.1121 0.5716 48.9207C0.495125 50.7294 0.979176 53.8095 0.979176 53.8095C0.979176 53.8095 4.8493 55.9475 9.53527 55.9988C14.2212 56.0501 20.0517 54.5731 20.0517 54.5731C20.0517 54.5731 23.0563 53.3762 23.0563 51.9757C23.0563 50.5752 22.3434 46.5521 22.4963 45.5844C22.6493 44.6166 22.9039 42.987 22.9548 39.7534C23.0057 36.5197 22.42 30.3575 22.2672 28.1423C22.1144 25.9272 21.4521 19.7395 21.5032 18.0334C21.5543 16.3274 21.6815 16.4546 20.9432 14.672C20.2049 12.8895 16.6147 6.44702 16.4107 5.73477C16.4101 5.46323 16.3304 5.19774 16.1814 4.97072C16.1814 4.97072 13.89 3.44298 12.6932 2.8065C11.4963 2.17003 9.96823 0.591175 8.77158 0.234C7.7896 -0.0429267 6.7547 -0.0747735 5.75755 0.14125V0.14125Z" fill="url(#paint1_linear_12:89)"/>
<path d="M5.74705 0.14125C5.74705 0.14125 5.4758 0.15875 5.01713 0.74395C4.53343 1.50765 4.4062 1.96615 3.51493 3.21372C2.62365 4.4613 1.6307 6.95715 1.01978 9.04473C0.408852 11.1323 -0.202423 14.2648 0.102952 16.5818C0.408327 18.8988 0.637752 20.8343 0.688677 21.7254C0.739602 22.6165 0.663126 28.7779 1.0196 31.1978C1.37608 33.6177 1.5033 35.9338 1.5033 35.9338C1.5033 35.9338 1.35053 40.1354 1.52885 40.9502C1.70718 41.765 1.70718 42.58 1.52885 42.86C1.35053 43.14 1.2996 44.7442 1.07035 45.5082C0.841102 46.2723 0.637577 47.1121 0.561102 48.9207C0.484627 50.7294 0.968676 53.8095 0.968676 53.8095C0.968676 53.8095 4.83898 55.9486 9.52425 55.9993C14.2095 56.0501 20.0407 54.5736 20.0407 54.5736C20.0407 54.5736 23.0451 53.3762 23.0451 51.975C23.0451 50.5738 22.3321 46.5514 22.4851 45.5837C22.638 44.6159 22.8927 42.9863 22.9436 39.7527C22.9945 36.519 22.4088 30.3567 22.256 28.1416C22.1033 25.9264 21.4412 19.7388 21.492 18.0327C21.5427 16.3266 21.6703 16.4539 20.932 14.6713C20.1936 12.8888 16.6032 6.44632 16.3995 5.73407C16.3989 5.46253 16.3192 5.19704 16.1702 4.97003C16.1702 4.97003 13.8788 3.44227 12.682 2.8058C11.4851 2.16932 9.95738 0.590475 8.76073 0.2333C7.7788 -0.0432726 6.74403 -0.0748787 5.74705 0.14125Z" fill="url(#paint2_linear_12:89)"/>
<path opacity="0.5" d="M5.72551 0.141249C5.72551 0.141249 5.45373 0.158749 4.99558 0.743949C4.51188 1.50765 4.38466 1.96615 3.49338 3.21372C2.60211 4.4613 1.60916 6.95715 0.998232 9.04472C0.387307 11.1323 -0.223968 14.2648 0.0814069 16.5818C0.386782 18.8988 0.616207 20.8343 0.666782 21.7254C0.717357 22.6165 0.641583 28.7779 0.998058 31.1978C1.35453 33.6177 1.48176 35.9338 1.48176 35.9338C1.48176 35.9338 1.32898 40.1354 1.50731 40.9502C1.68563 41.765 1.68528 42.58 1.50731 42.86C1.32933 43.14 1.27806 44.7442 1.04881 45.5082C0.819557 46.2723 0.616034 47.1121 0.539559 48.9207C0.463084 50.7293 0.947133 53.8095 0.947133 53.8095C0.947133 53.8095 4.81743 55.9485 9.50271 55.9993C14.188 56.05 20.0192 54.5736 20.0192 54.5736C20.0192 54.5736 23.0236 53.3762 23.0236 51.975C23.0236 50.5738 22.3106 46.5514 22.4636 45.5837C22.6165 44.6159 22.8711 42.9863 22.9221 39.7527C22.973 36.519 22.3873 30.3567 22.2345 28.1416C22.0817 25.9264 21.4193 19.7388 21.4704 18.0327C21.5215 16.3266 21.6488 16.4539 20.9104 14.6713C20.1721 12.8888 16.582 6.44632 16.3779 5.73407C16.3773 5.46253 16.2977 5.19703 16.1487 4.97002C16.1487 4.97002 13.8562 3.44227 12.6601 2.8058C11.4639 2.16932 9.93548 0.590474 8.73883 0.2333C7.75702 -0.0432722 6.72237 -0.0748785 5.72551 0.141249V0.141249Z" fill="url(#paint3_linear_12:89)"/>
<path style="mix-blend-mode:multiply" d="M1.76405 14.8009C1.57914 15.9031 1.5146 17.0221 1.57155 18.1382C1.64837 20.1507 2.69155 22.2157 2.8067 23.4176C2.92185 24.6195 3.1154 25.5947 3.1154 25.5947C4.48234 25.573 5.84924 25.6404 7.20743 25.7963C9.25335 26.0497 13.4995 26.3721 13.6926 25.6831C13.8856 24.9941 13.538 24.4077 13.5001 24.3006C13.4621 24.1935 14.5039 18.076 14.7741 16.9893C14.9501 16.2217 15.0662 15.4415 15.1213 14.6558C15.1213 14.6558 9.05997 10.0344 6.01007 9.6232C2.96017 9.21195 4.19602 14.0157 1.76405 14.8009Z" fill="url(#paint4_linear_12:89)"/>
<path d="M4.25339 24.433C4.23468 24.4609 4.22284 24.4928 4.21883 24.5261C4.21483 24.5594 4.21878 24.5932 4.23036 24.6247C4.24193 24.6562 4.26081 24.6845 4.28544 24.7072C4.31007 24.73 4.33974 24.7467 4.37204 24.7557C4.62684 24.8744 6.81661 24.5009 8.71781 24.3993C10.619 24.2976 14.252 24.9085 14.1671 23.9068C14.0823 22.9051 10.7896 22.2601 9.07464 22.3959C7.35964 22.5317 4.67794 22.6335 4.25339 24.433Z" fill="url(#paint5_linear_12:89)"/>
<path d="M4.12724 23.9945L4.25989 24.5928C4.25989 24.5928 5.27191 23.4314 6.67243 23.1769C8.07296 22.9225 11.2557 22.9732 12.147 23.1258C13.0382 23.2784 14.2351 23.9406 14.2351 23.9406C14.3305 23.5647 14.3305 23.1708 14.2351 22.7949C14.0819 22.1073 14.0567 22.0056 14.0567 22.0056C14.0567 22.0056 14.1075 19.8666 14.2095 18.7718C14.268 18.0902 14.225 17.4038 14.0819 16.7348C14.7161 15.8202 15.0701 14.7407 15.1008 13.6282C15.1515 11.769 14.0567 7.79721 13.4208 6.72761C12.7848 5.65801 9.62714 4.10471 8.12442 4.30858C6.62169 4.51246 4.33041 7.28796 3.43949 8.71368C2.54856 10.1394 1.63139 11.8968 1.78416 13.8828C1.93694 15.8689 3.13359 16.3785 3.13359 17.2953C3.13359 18.2122 3.59244 22.4923 4.12724 23.9945Z" fill="url(#paint6_linear_12:89)"/>
<path d="M4.14159 24.0797L4.24904 24.5958C4.24904 24.5958 5.27191 23.4314 6.67243 23.1769C8.07296 22.9225 11.2557 22.9732 12.147 23.1258C13.0382 23.2784 14.2351 23.9406 14.2351 23.9406C14.3305 23.5647 14.3305 23.1708 14.2351 22.7949C14.0819 22.1073 14.0567 22.0056 14.0567 22.0056C14.0567 22.0056 14.1075 19.8666 14.2095 18.7718C14.268 18.0902 14.225 17.4038 14.0819 16.7348C14.7161 15.8202 15.0701 14.7407 15.1008 13.6282C15.1515 11.769 14.0567 7.79721 13.4208 6.72761C12.7848 5.65801 9.62714 4.10471 8.12442 4.30858C6.62169 4.51246 4.33041 7.28796 3.43949 8.71368C2.54856 10.1394 1.63139 11.8968 1.78416 13.8828C1.93694 15.8689 3.13359 16.3785 3.13359 17.2953C3.13359 18.2122 3.60679 22.577 4.14159 24.0797Z" fill="url(#paint7_linear_12:89)"/>
<path opacity="0.8" d="M4.06374 24.1009L4.25501 24.6033C4.25501 24.6033 5.27211 23.4308 6.67264 23.1769C8.07316 22.923 11.2559 22.9732 12.1472 23.1258C13.0384 23.2784 14.2353 23.9406 14.2353 23.9406C14.3307 23.5647 14.3307 23.1708 14.2353 22.7949C14.0821 22.1073 14.0569 22.0056 14.0569 22.0056C14.0569 22.0056 14.1077 19.8666 14.2097 18.7718C14.2682 18.0902 14.2252 17.4038 14.0821 16.7348C14.7163 15.8202 15.0703 14.7407 15.101 13.6282C15.1517 11.769 14.0569 7.79721 13.421 6.72761C12.785 5.65801 9.62733 4.10471 8.12461 4.30858C6.62189 4.51246 4.33061 7.28796 3.43969 8.71368C2.54876 10.1394 1.63159 11.8968 1.78436 13.8828C1.93714 15.8689 3.13379 16.3785 3.13379 17.2953C3.13379 18.2122 3.52894 22.5984 4.06374 24.1009Z" fill="url(#paint8_linear_12:89)"/>
<path opacity="0.7" d="M0.891998 22.4128C0.891998 22.4128 1.50327 26.2834 3.132 28.4221C4.76072 30.5608 5.9845 34.5334 5.4749 37.5889C4.9653 40.6444 2.01182 39.3204 1.91015 37.0797C1.80847 34.839 1.29887 31.7492 1.095 30.0177C0.891121 28.2863 0.891998 22.4128 0.891998 22.4128Z" fill="url(#paint9_linear_12:89)"/>
<path opacity="0.4" d="M1.63926 39.7957C1.63926 39.7957 2.35221 42.0026 2.79426 42.5458C3.23631 43.089 5.27261 44.3115 4.79714 45.8393C4.32166 47.367 2.14921 49.3361 1.30028 47.6047C0.451359 45.8732 2.14921 43.4966 1.97911 42.6139C1.80901 41.7312 1.23168 40.0674 1.63926 39.7957Z" fill="url(#paint10_linear_12:89)"/>
<path opacity="0.3" d="M20.0401 20.0702C20.0401 20.0702 19.9381 28.6258 16.7807 34.1259C13.6234 39.6259 12.6047 38.913 12.6047 38.913C12.6047 38.913 11.2807 35.0427 14.0308 32.0889C16.7809 29.135 18.4109 29.3389 20.0401 20.0702Z" fill="url(#paint11_linear_12:89)"/>
<path opacity="0.3" d="M20.4472 22.2097C20.4472 22.2097 20.7531 43.2932 17.4937 43.7008C14.2343 44.1083 13.2159 39.9321 13.2159 39.9321C13.2159 39.9321 18.5129 37.9965 20.4472 22.2097Z" fill="url(#paint12_linear_12:89)"/>
<path opacity="0.4" d="M13.3861 18.5087C13.3861 18.5087 15.0156 18.169 15.8986 16.8789C16.4469 16.0725 16.9457 15.2334 17.3922 14.3665C17.3922 14.3665 17.3243 17.1507 16.3058 18.7801C15.2873 20.4096 13.4533 20.6813 13.4533 20.6813L13.3861 18.5087Z" fill="url(#paint13_linear_12:89)"/>
<g style="mix-blend-mode:multiply" opacity="0.5">
<path d="M8.19092 0.174999C8.19092 0.174999 7.88537 0.922249 8.08924 1.5673C8.29312 2.21235 8.70017 2.28025 8.93817 4.65657" stroke="#707070" stroke-width="0.567" stroke-miterlimit="10"/>
</g>
<path d="M1.87673 14.4345C1.87673 14.4345 1.06193 12.024 3.37071 8.86649C5.67948 5.70896 7.00336 5.20006 7.00336 5.20006" stroke="#707070" stroke-width="0.567" stroke-miterlimit="10"/>
<path d="M2.80177 10.6233C2.80177 10.6233 2.01252 12.0494 2.39455 13.1958C2.77657 14.3422 5.34802 13.1958 5.4245 13.2975C5.50097 13.3992 2.75102 13.9854 2.69992 14.5452C2.64882 15.1051 6.46854 16.073 6.69779 16.7098C6.92704 17.3466 3.51472 15.2837 3.18362 15.5637C2.85252 15.8437 5.39895 16.9132 6.08635 17.6774C6.77375 18.4416 3.33622 16.0224 3.36177 16.4296C3.38732 16.8369 3.61657 18.0339 4.15102 18.6959C4.68547 19.3579 4.10027 20.4529 4.20212 21.3186C4.30397 22.1843 4.68582 23.7884 4.68582 23.7884L4.21717 24.5988C4.21717 24.5988 3.62917 22.0823 3.45102 20.4784C3.27287 18.8746 3.23472 16.837 3.04345 16.5059C2.85217 16.1748 1.91067 15.4489 1.83402 14.2526C1.75737 13.0563 2.07622 11.4003 2.80177 10.6233Z" fill="url(#paint14_linear_12:89)"/>
<g style="mix-blend-mode:multiply" opacity="0.5">
<path d="M4.20229 23.3551C4.20229 23.3551 4.73709 22.1074 7.76704 21.9035C10.797 21.6996 13.8275 22.642 13.8275 22.642" stroke="#707070" stroke-width="0.567" stroke-miterlimit="10"/>
</g>
<g style="mix-blend-mode:multiply" opacity="0.5">
<path d="M1.35069 52.9175C1.35069 52.9175 5.4758 54.8017 8.88777 54.8017C12.2997 54.8017 19.6328 53.274 19.6328 53.274C19.6328 53.274 22.2301 52.5103 22.7394 51.4407" stroke="#707070" stroke-width="0.567" stroke-miterlimit="10"/>
</g>
<path d="M5.30566 0.701696C5.30566 0.701696 7.07141 0.277321 8.24251 0.599671C9.41361 0.922021 10.8229 2.12742 11.5698 2.535C12.3167 2.94257 15.6779 4.91167 16.2379 5.62462" stroke="#707070" stroke-width="0.567" stroke-miterlimit="10"/>
<path opacity="0.1" d="M3.23824 10.2716C3.23824 10.2716 4.81673 6.6048 6.62483 5.86612C8.43293 5.12745 11.7429 5.58612 12.5066 6.70612C13.2703 7.82612 13.9582 9.50717 13.4999 10.322C13.0416 11.1368 10.4696 7.6485 8.43258 8.33607C6.39558 9.02365 4.63858 11.1886 4.00211 11.1886C3.36563 11.1886 4.99489 10.2453 3.23824 10.2716Z" fill="url(#paint15_linear_12:89)"/>
<path opacity="0.1" d="M13.5727 21.98C14.5274 21.6278 15.4342 21.1574 16.2721 20.58C17.5706 19.6632 18.1819 18.161 18.7419 18.263C19.3019 18.365 18.4874 25.3155 16.756 27.8623C15.0245 30.409 11.9939 32.9037 10.9502 30.1282C9.90645 27.3527 10.6954 25.4177 8.96372 24.5264C7.2321 23.6351 9.19385 21.7507 13.5727 21.98Z" fill="url(#paint16_linear_12:89)"/>
<path opacity="0.2" d="M16.1956 5.83628C16.3739 6.09108 17.9526 8.58641 17.6472 8.94289C17.3418 9.29936 15.7885 8.25531 15.0243 7.77161C14.2601 7.28791 13.1401 5.22536 11.3318 4.71611C9.5235 4.20686 9.54923 1.40581 9.54923 1.40581L16.1956 5.83628Z" fill="url(#paint17_linear_12:89)"/>
<g style="mix-blend-mode:multiply" opacity="0.5">
<path d="M2.77639 15.8687C2.77639 15.8687 2.26714 15.1561 2.11437 13.7556C1.96159 12.3551 2.95437 9.7322 4.07437 8.51035" stroke="#707070" stroke-width="0.567" stroke-miterlimit="10"/>
</g>
<g style="mix-blend-mode:multiply" opacity="0.5">
<path d="M14.4386 16.1323C14.8079 15.1587 14.9473 14.1131 14.8461 13.0768C14.6592 11.43 13.8786 8.61217 13.8786 8.61217" stroke="#707070" stroke-width="0.567" stroke-miterlimit="10"/>
</g>
<path d="M4.78821 7.79719C4.78821 7.79719 5.70468 6.11719 7.07966 5.78469C8.45463 5.45219 11.0264 5.35192 12.1722 6.16672C12.834 6.61203 13.3131 7.28099 13.5216 8.05094" stroke="#707070" stroke-width="0.567" stroke-miterlimit="10"/>
<path opacity="0.2" d="M4.89354 40.8836C5.48854 40.3071 6.85652 42.3093 8.46914 42.5471C10.0818 42.785 13.2598 40.8496 13.4701 41.5286C13.6805 42.2076 11.9513 44.7537 12.3485 46.6212C12.7458 48.4886 14.966 50.22 15.1996 51.9175C15.4333 53.615 14.8708 54.573 14.8708 54.573C14.8708 54.573 12.372 53.6149 10.1054 53.5811C7.83879 53.5473 6.03927 54.8372 4.28647 53.5132C2.53367 52.1891 4.00647 50.6957 4.54337 48.2168C5.08027 45.7379 5.66494 44.2793 4.94044 43.2939C4.21594 42.3084 4.33284 41.4266 4.89354 40.8836Z" fill="url(#paint18_linear_12:89)"/>
</g>
<defs>
<linearGradient id="paint0_linear_12:89" x1="0.0217743" y1="28.0001" x2="23.0451" y2="28.0001" gradientUnits="userSpaceOnUse">
<stop stop-color="#B8C2CC"/>
<stop offset="0.077" stop-color="#C7CFD7"/>
<stop offset="0.187" stop-color="#D6DCE1"/>
<stop offset="0.317" stop-color="#DFE3E8"/>
<stop offset="0.514" stop-color="#E2E6EA"/>
<stop offset="0.774" stop-color="#E0E4E8"/>
<stop offset="0.868" stop-color="#D9DEE3"/>
<stop offset="0.934" stop-color="#CDD4DB"/>
<stop offset="0.988" stop-color="#BCC6CF"/>
<stop offset="1" stop-color="#B8C2CC"/>
</linearGradient>
<linearGradient id="paint1_linear_12:89" x1="11.5443" y1="56.0001" x2="11.5443" y2="-0.000183105" gradientUnits="userSpaceOnUse">
<stop stop-color="white" stop-opacity="0"/>
<stop offset="0.347" stop-color="white" stop-opacity="0.365"/>
<stop offset="0.799" stop-color="white" stop-opacity="0.82"/>
<stop offset="1" stop-color="white"/>
</linearGradient>
<linearGradient id="paint2_linear_12:89" x1="11.5334" y1="56.0006" x2="11.5334" y2="-0.000396729" gradientUnits="userSpaceOnUse">
<stop stop-color="white" stop-opacity="0"/>
<stop offset="0.347" stop-color="white" stop-opacity="0.365"/>
<stop offset="0.799" stop-color="white" stop-opacity="0.82"/>
<stop offset="1" stop-color="white"/>
</linearGradient>
<linearGradient id="paint3_linear_12:89" x1="11.5119" y1="56.0006" x2="11.5119" y2="-0.000396729" gradientUnits="userSpaceOnUse">
<stop stop-color="#B8C2CC"/>
<stop offset="0.016" stop-color="#B9C3CD" stop-opacity="0.953"/>
<stop offset="0.103" stop-color="#C3CBD4" stop-opacity="0.733"/>
<stop offset="0.197" stop-color="#CBD2D9" stop-opacity="0.533"/>
<stop offset="0.294" stop-color="#D2D8DE" stop-opacity="0.369"/>
<stop offset="0.398" stop-color="#D8DDE2" stop-opacity="0.235"/>
<stop offset="0.51" stop-color="#DCE1E6" stop-opacity="0.129"/>
<stop offset="0.634" stop-color="#DFE3E8" stop-opacity="0.055"/>
<stop offset="0.78" stop-color="#E1E5E9" stop-opacity="0.012"/>
<stop offset="1" stop-color="#E2E6EA" stop-opacity="0"/>
</linearGradient>
<linearGradient id="paint4_linear_12:89" x1="4.44187" y1="-1.98404" x2="-1.50331" y2="11.9013" gradientUnits="userSpaceOnUse">
<stop stop-color="#C3CFDA"/>
<stop offset="1" stop-color="#C3CFDA" stop-opacity="0"/>
</linearGradient>
<linearGradient id="paint5_linear_12:89" x1="4.21732" y1="23.5783" x2="14.1686" y2="23.5783" gradientUnits="userSpaceOnUse">
<stop stop-color="#B0BCC7"/>
<stop offset="0.179" stop-color="#D3DAE0"/>
<stop offset="0.587" stop-color="#D8DEE4"/>
<stop offset="0.86" stop-color="#CAD3DA"/>
<stop offset="1" stop-color="#B0BCC7"/>
</linearGradient>
<linearGradient id="paint6_linear_12:89" x1="1.76738" y1="14.4416" x2="15.1025" y2="14.4416" gradientUnits="userSpaceOnUse">
<stop stop-color="#C4C9CF"/>
<stop offset="0.073" stop-color="#D2D5D9"/>
<stop offset="0.184" stop-color="#E1E2E4"/>
<stop offset="0.316" stop-color="#EAEAEB"/>
<stop offset="0.514" stop-color="#EDEDED"/>
<stop offset="0.776" stop-color="#EBEBEB"/>
<stop offset="0.87" stop-color="#E4E5E6"/>
<stop offset="0.937" stop-color="#D8DBDE"/>
<stop offset="0.99" stop-color="#C7CCD1"/>
<stop offset="1" stop-color="#C4C9CF"/>
</linearGradient>
<linearGradient id="paint7_linear_12:89" x1="8.43494" y1="24.5958" x2="8.43494" y2="4.29038" gradientUnits="userSpaceOnUse">
<stop stop-color="#B8C2CC"/>
<stop offset="0.016" stop-color="#B9C3CD" stop-opacity="0.953"/>
<stop offset="0.103" stop-color="#C3CBD4" stop-opacity="0.733"/>
<stop offset="0.197" stop-color="#CBD2D9" stop-opacity="0.533"/>
<stop offset="0.294" stop-color="#D2D8DE" stop-opacity="0.369"/>
<stop offset="0.398" stop-color="#D8DDE2" stop-opacity="0.235"/>
<stop offset="0.51" stop-color="#DCE1E6" stop-opacity="0.129"/>
<stop offset="0.634" stop-color="#DFE3E8" stop-opacity="0.055"/>
<stop offset="0.78" stop-color="#E1E5E9" stop-opacity="0.012"/>
<stop offset="1" stop-color="#E2E6EA" stop-opacity="0"/>
</linearGradient>
<linearGradient id="paint8_linear_12:89" x1="8.43514" y1="24.6033" x2="8.43514" y2="4.29038" gradientUnits="userSpaceOnUse">
<stop stop-color="white" stop-opacity="0"/>
<stop offset="0.347" stop-color="white" stop-opacity="0.365"/>
<stop offset="0.799" stop-color="white" stop-opacity="0.82"/>
<stop offset="1" stop-color="white"/>
</linearGradient>
<linearGradient id="paint9_linear_12:89" x1="4.27121" y1="28.7238" x2="0.0804614" y2="29.1837" gradientUnits="userSpaceOnUse">
<stop stop-color="#AEBECD"/>
<stop offset="1" stop-color="#C3CFDA" stop-opacity="0"/>
</linearGradient>
<linearGradient id="paint10_linear_12:89" x1="3.16669" y1="43.0111" x2="0.560459" y2="43.7619" gradientUnits="userSpaceOnUse">
<stop stop-color="#AEBECD"/>
<stop offset="1" stop-color="#C3CFDA" stop-opacity="0"/>
</linearGradient>
<linearGradient id="paint11_linear_12:89" x1="20.0091" y1="29.4123" x2="17.3957" y2="29.4251" gradientUnits="userSpaceOnUse">
<stop stop-color="#AEBECD"/>
<stop offset="1" stop-color="#C3CFDA" stop-opacity="0"/>
</linearGradient>
<linearGradient id="paint12_linear_12:89" x1="20.1001" y1="32.9262" x2="17.4866" y2="32.9359" gradientUnits="userSpaceOnUse">
<stop stop-color="#AEBECD"/>
<stop offset="1" stop-color="#C3CFDA" stop-opacity="0"/>
</linearGradient>
<linearGradient id="paint13_linear_12:89" x1="18.5019" y1="18.3575" x2="13.5132" y2="17.8145" gradientUnits="userSpaceOnUse">
<stop stop-color="#AEBECD"/>
<stop offset="1" stop-color="#C3CFDA" stop-opacity="0"/>
</linearGradient>
<linearGradient id="paint14_linear_12:89" x1="1.82289" y1="17.6111" x2="6.70884" y2="17.6111" gradientUnits="userSpaceOnUse">
<stop stop-color="#AEBECD"/>
<stop offset="1" stop-color="#C3CFDA" stop-opacity="0"/>
</linearGradient>
<linearGradient id="paint15_linear_12:89" x1="8.4428" y1="11.1886" x2="8.4428" y2="5.50671" gradientUnits="userSpaceOnUse">
<stop stop-color="#C3CFDA" stop-opacity="0"/>
<stop offset="1" stop-color="#AEBECD"/>
</linearGradient>
<linearGradient id="paint16_linear_12:89" x1="18.1976" y1="24.7363" x2="14.5577" y2="24.7962" gradientUnits="userSpaceOnUse">
<stop stop-color="#AEBECD"/>
<stop offset="1" stop-color="#C3CFDA" stop-opacity="0"/>
</linearGradient>
<linearGradient id="paint17_linear_12:89" x1="16.6691" y1="3.84857" x2="11.4797" y2="6.42791" gradientUnits="userSpaceOnUse">
<stop stop-color="#AEBECD"/>
<stop offset="1" stop-color="#C3CFDA" stop-opacity="0"/>
</linearGradient>
<linearGradient id="paint18_linear_12:89" x1="11.1961" y1="42.904" x2="6.39551" y2="55.0553" gradientUnits="userSpaceOnUse">
<stop stop-color="#AEBECD"/>
<stop offset="1" stop-color="#C3CFDA" stop-opacity="0"/>
</linearGradient>
<clipPath id="clip0_12:89">
<rect width="23.0555" height="56" fill="white"/>
</clipPath>
</defs>
</svg>
