<svg width="84" height="61" viewBox="0 0 84 61" fill="none" xmlns="http://www.w3.org/2000/svg">
<path fill-rule="evenodd" clip-rule="evenodd" d="M4.58015 1.83206C3.0708 1.83206 1.83206 3.0708 1.83206 4.58015V55.7863C1.83206 57.2956 3.0708 58.5344 4.58015 58.5344H79.4198C80.9292 58.5344 82.1679 57.2956 82.1679 55.7863V4.58015C82.1679 3.0708 80.9292 1.83206 79.4198 1.83206H4.58015ZM0 4.58015C0 2.05898 2.05898 0 4.58015 0H79.4198C81.941 0 84 2.05898 84 4.58015V55.7863C84 58.3074 81.941 60.3664 79.4198 60.3664H4.58015C2.05898 60.3664 0 58.3074 0 55.7863V4.58015Z" fill="#829AB1"/>
<path d="M32.1579 36.5775C31.2802 36.675 30.4025 36.1874 30.0124 35.3097C29.1347 36.1874 27.9644 36.5775 26.7941 36.5775C25.9164 36.5775 25.0387 36.3824 24.356 35.7973C23.7709 35.2122 23.3808 34.432 23.4783 33.6518C23.3808 32.4815 24.0635 31.4087 25.2337 31.0186C25.8189 30.8236 26.404 30.7261 26.9892 30.6285C27.6718 30.531 28.257 30.336 28.8421 30.1409C29.1347 29.9459 29.3297 29.5558 29.3297 29.2632C29.3297 28.9706 29.2322 28.6781 28.9397 28.483C28.6471 28.288 28.3545 28.1904 27.9644 28.1904C27.5743 28.1904 27.2817 28.288 27.2817 28.5805V28.9706C27.2817 29.3607 27.0867 29.6533 26.7941 29.8483C26.5016 30.1409 26.1115 30.2384 25.6238 30.2384C25.1362 30.2384 24.7461 30.1409 24.356 29.7508C24.0635 29.4583 23.8684 29.0682 23.8684 28.5805C23.8684 27.8979 24.356 27.2152 24.9412 26.9226C25.9164 26.435 26.8917 26.24 27.9644 26.3375C29.0372 26.24 30.1099 26.5325 31.0852 27.0202C31.8654 27.6053 32.353 28.5805 32.1579 29.6533V33.6518C32.1579 34.0419 32.2555 34.2369 32.4505 34.2369H32.8406C33.1332 34.2369 33.4257 34.3344 33.6208 34.5295C33.8158 34.7245 33.9134 35.0171 33.9134 35.3097C33.9134 35.6998 33.7183 36.0899 33.3282 36.3824C33.2307 36.48 32.7431 36.5775 32.1579 36.5775V36.5775ZM29.3297 32.4815V32.0914C28.7446 32.2864 28.257 32.4815 27.6718 32.579C27.1842 32.579 26.6966 32.9691 26.5991 33.3592C26.5991 33.8468 26.8916 34.2369 27.3793 34.2369H27.5743C28.452 34.3344 29.2322 33.7493 29.3297 32.8716C29.4273 32.7741 29.4273 32.579 29.3297 32.4815V32.4815Z" fill="white"/>
<path d="M38.7893 23.997V27.6054C39.472 26.8252 40.5447 26.3376 41.52 26.3376C42.5927 26.3376 43.6655 26.8252 44.2506 27.7029C45.0308 28.7756 45.3234 30.0435 45.3234 31.3113C45.4209 32.6766 45.0308 34.1395 44.1531 35.2122C43.3729 36.1875 42.2026 36.6751 41.0323 36.6751C39.7645 36.6751 38.5943 36.0899 37.9116 35.1147V35.6023C37.9116 36.0899 37.5215 36.48 37.1314 36.48H36.9363C36.4487 36.5776 35.8636 36.1875 35.8636 35.6998V26.6301C35.8636 25.9475 35.7661 25.6549 35.571 25.6549C35.4735 25.6549 35.376 25.6549 35.2784 25.7524H34.9859C34.4983 25.7524 34.1082 25.3623 34.1082 24.9722V24.7772C34.1082 24.3871 34.2057 24.0945 34.4007 23.8019C34.5958 23.6069 34.8883 23.4118 35.2784 23.4118C35.571 23.4118 35.7661 23.4118 36.0586 23.5094C36.2537 23.5094 36.5463 23.6069 36.8388 23.6069C37.1314 23.6069 37.5215 23.6069 37.8141 23.5094C38.0091 23.5094 38.2042 23.4118 38.4967 23.4118C38.7893 23.3143 39.0819 23.5094 39.1794 23.8019C38.7893 23.8019 38.7893 23.8995 38.7893 23.997V23.997ZM40.5447 34.1395C41.6175 34.1395 42.2026 33.2617 42.2026 31.4088C42.2026 29.5558 41.6175 28.6781 40.5447 28.6781C40.0571 28.6781 39.472 28.9707 39.2769 29.4583C38.8868 30.0435 38.6918 30.7261 38.7893 31.4088C38.7893 33.2617 39.3744 34.1395 40.5447 34.1395Z" fill="white"/>
<path fill-rule="evenodd" clip-rule="evenodd" d="M38.2819 21.9573C39.4164 21.7245 40.3027 22.5455 40.5673 23.3393L41.0861 24.8957C41.2309 24.8817 41.3758 24.8746 41.5201 24.8746C42.9853 24.8746 44.5463 25.5307 45.4505 26.8655C46.4348 28.2312 46.7784 29.7961 46.7862 31.2599C46.8929 32.929 46.4202 34.7479 45.2903 36.1324C44.2043 37.4857 42.5973 38.1379 41.0324 38.1379C40.1196 38.1379 39.2281 37.9127 38.4468 37.4901C38.0852 37.7702 37.6359 37.9428 37.1315 37.9428H37.044C36.406 38.0176 35.8081 37.8111 35.3736 37.5044C34.9009 37.1708 34.4008 36.5517 34.4008 35.6998V27.1395C33.4487 26.892 32.6454 26.0602 32.6454 24.9721V24.7771C32.6454 24.0891 32.8335 23.5156 33.1836 22.9904L33.264 22.8699L33.3664 22.7675C33.7209 22.4129 34.3636 21.9489 35.2785 21.9489C35.2876 21.9489 35.2967 21.9489 35.306 21.9489C35.5693 21.9488 35.9018 21.9486 36.3257 22.0626C36.3716 22.0679 36.4117 22.0737 36.4442 22.0787C36.5152 22.0896 36.5932 22.104 36.6456 22.1136C36.6562 22.1155 36.6657 22.1173 36.6739 22.1188C36.736 22.1301 36.7748 22.1365 36.8062 22.1405C36.8286 22.1433 36.8391 22.1439 36.8406 22.144C36.9928 22.144 37.1121 22.1434 37.2223 22.1355C37.3181 22.1286 37.3574 22.1191 37.3575 22.1195C37.3575 22.1195 37.3575 22.1195 37.3573 22.1196L37.5768 22.0464H37.7394C37.7464 22.0449 37.7524 22.0435 37.7595 22.0419C37.7695 22.0397 37.7817 22.0369 37.8016 22.0325C37.9029 22.01 38.0707 21.9736 38.2819 21.9573ZM37.3265 25.0606C37.214 25.0668 37.112 25.069 37.0265 25.0697C37.1067 25.2154 37.1565 25.3517 37.1887 25.4562C37.3048 25.8336 37.3265 26.26 37.3265 26.63V25.0606ZM42.8718 34.457C42.9202 34.4065 42.9667 34.3536 43.0109 34.2983L43.0159 34.292L43.021 34.2858C43.6311 33.5402 43.939 32.4601 43.8643 31.4154L43.8606 31.3634V31.3112C43.8606 30.2623 43.6193 29.3217 43.0677 28.5632L43.0501 28.5391L43.0336 28.5143C42.9617 28.4065 42.8681 28.3053 42.7566 28.2149C42.8504 28.3262 42.9379 28.4466 43.0184 28.5762C43.5104 29.3676 43.6656 30.374 43.6656 31.4087C43.6656 32.4434 43.5104 33.4498 43.0184 34.2412C42.9718 34.3162 42.9229 34.3881 42.8718 34.457ZM40.2522 23.9969C40.2522 23.9736 40.2535 23.9833 40.2522 24.0146V23.9969ZM39.1571 25.2652C39.157 25.2651 39.158 25.2651 39.1599 25.265ZM37.3265 31.5007V31.7278L37.3319 31.7355C37.3293 31.6587 37.3277 31.5817 37.327 31.5047C37.3268 31.5034 37.3267 31.502 37.3265 31.5007ZM40.5448 30.1409C40.545 30.1409 40.5452 30.1409 40.5454 30.1409ZM40.5604 30.1704L40.4942 30.2697C40.2668 30.6107 40.1996 30.9362 40.2375 31.2018L40.2522 31.3048V31.4087C40.2522 32.2242 40.389 32.5681 40.454 32.6704C40.4722 32.6734 40.5016 32.6765 40.5448 32.6765C40.545 32.6765 40.5452 32.6765 40.5454 32.6765C40.6169 32.5459 40.7399 32.1829 40.7399 31.4087C40.7399 30.6865 40.6328 30.3221 40.5604 30.1704ZM40.5925 30.1442C40.5925 30.1442 40.5921 30.1441 40.5914 30.1439Z" fill="#829AB1"/>
<path d="M52.1502 29.6532C52.1502 29.4582 52.2477 29.2631 52.3452 29.0681C52.0526 28.873 51.7601 28.7755 51.37 28.7755C50.7848 28.7755 50.2972 29.0681 50.0046 29.4582C49.6145 30.0433 49.4195 30.6285 49.517 31.3111C49.517 31.9938 49.7121 32.6765 50.1022 33.2616C50.4923 33.7492 50.9799 34.0418 51.565 34.0418C52.1502 34.0418 52.7353 33.6517 52.9304 33.0666C53.0279 32.774 53.2229 32.4814 53.418 32.2864C53.7105 32.0913 54.0031 31.9938 54.2957 32.0913C54.6858 32.0913 55.0759 32.1888 55.3685 32.4814C55.661 32.774 55.7585 33.0666 55.7585 33.4566C55.7585 34.3344 55.2709 35.2121 54.4907 35.6997C53.613 36.3824 52.5403 36.6749 51.4675 36.6749C50.1022 36.7725 48.8344 36.2848 47.8591 35.3096C46.8839 34.3344 46.3963 32.969 46.4938 31.6037C46.2987 28.9706 48.2492 26.63 50.8824 26.4349H51.565C52.5403 26.4349 53.5155 26.63 54.3932 27.2151C55.0759 27.7027 55.466 28.3854 55.466 29.2631C55.466 29.7507 55.2709 30.1408 54.9784 30.5309C54.5883 30.8235 54.1982 31.0186 53.7105 31.0186C53.3204 31.0186 52.9304 30.921 52.6378 30.726C52.2477 30.3359 52.1502 29.9458 52.1502 29.6532V29.6532Z" fill="white"/>
<path fill-rule="evenodd" clip-rule="evenodd" d="M50.8283 24.9722H51.5651C52.7353 24.9722 54.019 25.2076 55.2047 25.998L55.2243 26.0111L55.2435 26.0248C56.2807 26.7656 56.9289 27.8774 56.9289 29.2632C56.9289 30.126 56.5928 30.787 56.2341 31.2918C56.2914 31.3402 56.3477 31.3919 56.4029 31.4471C56.6699 31.7141 56.8929 32.0285 57.0386 32.4074C57.1818 32.7798 57.2215 33.1396 57.2215 33.4567C57.2215 34.8271 56.4898 36.1434 55.3318 36.8984C54.1774 37.7736 52.8151 38.1285 51.5192 38.1377C49.7377 38.2501 48.0784 37.5977 46.8248 36.3441C45.5651 35.0844 44.9335 33.3447 45.028 31.6059C44.8348 28.2383 47.3431 25.2303 50.7744 24.9762L50.8283 24.9722ZM51.8425 31.9539C51.727 32.1486 51.6268 32.3587 51.5516 32.5775C51.5509 32.5779 51.5503 32.5783 51.5497 32.5786C51.5197 32.5769 51.4958 32.5695 51.4655 32.5529C51.4282 32.5323 51.365 32.4876 51.2837 32.3948C51.0838 32.0718 50.9799 31.6951 50.9799 31.3112V31.2073L50.9652 31.1043C50.954 31.0255 50.951 30.947 50.9621 30.8627C51.1064 31.1674 51.3148 31.4718 51.6034 31.7605L51.7059 31.8629L51.8264 31.9432C51.8317 31.9468 51.8371 31.9504 51.8425 31.9539ZM53.9278 34.2902C54.0695 34.0943 54.1879 33.8779 54.2774 33.6433C54.2334 33.8724 54.1117 34.1071 53.9278 34.2902ZM49.6304 34.8374C49.3767 34.6428 49.153 34.4169 48.9599 34.1755L48.9203 34.126L48.8851 34.0731C48.3477 33.2671 48.0738 32.3383 48.0552 31.4124C48.0041 30.9714 48.0306 30.5598 48.1142 30.175C47.9779 30.5875 47.9185 31.0341 47.9527 31.4957L47.9606 31.6019L47.953 31.708C47.8847 32.6647 48.2285 33.6102 48.8936 34.2753C49.1214 34.5031 49.3682 34.6908 49.6304 34.8374ZM53.987 29.0557L53.7375 29.5547C53.7647 29.5523 53.7905 29.5457 53.8241 29.5319C53.8503 29.5211 53.8838 29.5047 53.9267 29.4793C53.9521 29.4364 53.9685 29.4029 53.9793 29.3767C53.9975 29.3324 54.0032 29.3016 54.0032 29.2632C54.0032 29.1897 53.998 29.1208 53.987 29.0557Z" fill="#829AB1"/>
<path fill-rule="evenodd" clip-rule="evenodd" d="M22.4055 28.5806C22.4055 29.4048 22.7124 30.0958 23.1648 30.617C22.3837 31.3989 21.9563 32.4796 22.0108 33.6259C21.9061 34.9438 22.5763 36.0865 23.3216 36.8318L23.3613 36.8715L23.404 36.9081C24.4495 37.8043 25.7221 38.0404 26.7941 38.0404C27.7953 38.0404 28.8312 37.8149 29.7664 37.3033C30.4596 37.8431 31.3355 38.1172 32.2329 38.04C32.5734 38.0362 32.8998 38.0067 33.1801 37.9572C33.3283 37.9311 33.4912 37.8946 33.6491 37.8419L33.6531 37.8406C33.7348 37.8134 33.994 37.7271 34.2441 37.5238C34.9336 36.9904 35.3762 36.1999 35.3762 35.3098C35.3762 34.7268 35.1866 34.0266 34.6552 33.4952C34.3483 33.1883 33.9851 32.9954 33.6208 32.8872V29.7713C33.8603 28.1369 33.0885 26.6942 31.9629 25.85L31.8573 25.7708L31.7394 25.7118C30.6385 25.1614 29.3392 24.7764 27.9666 24.87C26.6608 24.7741 25.4554 25.0301 24.2869 25.6143C23.2788 26.1184 22.4055 27.2671 22.4055 28.5806ZM32.1579 36.5775C32.1579 36.5775 32.158 36.5775 32.158 36.5775C32.7431 36.5775 33.2307 36.48 33.3283 36.3824C33.7184 36.0899 33.9134 35.6998 33.9134 35.3097C33.9134 35.0171 33.8159 34.7245 33.6208 34.5295C33.4258 34.3344 33.1332 34.2369 32.8406 34.2369H32.4506C32.2555 34.2369 32.158 34.0419 32.158 33.6518V29.6533C32.353 28.5805 31.8654 27.6053 31.0852 27.0202C30.11 26.5325 29.0372 26.24 27.9645 26.3375C26.8917 26.24 25.9165 26.435 24.9412 26.9226C24.3561 27.2152 23.8685 27.8979 23.8685 28.5805C23.8685 29.0682 24.0635 29.4583 24.3561 29.7508C24.7462 30.1409 25.1363 30.2384 25.6239 30.2384C26.1115 30.2384 26.5016 30.1409 26.7942 29.8483C27.0867 29.6533 27.2818 29.3607 27.2818 28.9706V28.5805C27.2818 28.288 27.5744 28.1904 27.9645 28.1904C28.3546 28.1904 28.6471 28.288 28.9397 28.483C29.2323 28.6781 29.3298 28.9706 29.3298 29.2632C29.3298 29.5558 29.1347 29.9459 28.8422 30.1409L28.8421 30.1409C28.257 30.336 27.6719 30.531 26.9892 30.6285C26.4041 30.7261 25.8189 30.8236 25.2338 31.0186C24.0635 31.4087 23.3808 32.4815 23.4784 33.6518C23.3808 34.432 23.7709 35.2122 24.3561 35.7973C25.0387 36.3824 25.9165 36.5775 26.7942 36.5775C27.9645 36.5775 29.1347 36.1874 30.0125 35.3097C30.4025 36.1874 31.2802 36.675 32.1579 36.5775L32.1579 36.5776V36.5775ZM33.6228 33.6984C33.6226 33.6987 33.6219 33.6933 33.6213 33.6817C33.6228 33.6923 33.623 33.6982 33.6228 33.6984ZM29.3298 32.0914V32.4815C29.4273 32.579 29.4273 32.7741 29.3298 32.8716C29.2323 33.7493 28.4521 34.3344 27.5744 34.2369H27.3793C26.8917 34.2369 26.5991 33.8468 26.5991 33.3592C26.6966 32.9691 27.1843 32.579 27.6719 32.579C28.1376 32.5014 28.5415 32.362 28.9819 32.21C29.0949 32.171 29.2103 32.1312 29.3298 32.0914Z" fill="#829AB1"/>
<path d="M38.7893 23.997V27.6054C39.472 26.8252 40.5447 26.3376 41.52 26.3376C42.5927 26.3376 43.6655 26.8252 44.2506 27.7029C45.0308 28.7756 45.3234 30.0435 45.3234 31.3113C45.4209 32.6766 45.0308 34.1395 44.1531 35.2122C43.3729 36.1875 42.2026 36.6751 41.0323 36.6751C39.7645 36.6751 38.5943 36.0899 37.9116 35.1147V35.6023C37.9116 36.0899 37.5215 36.48 37.1314 36.48H36.9363C36.4487 36.5776 35.8636 36.1875 35.8636 35.6998V26.6301C35.8636 25.9475 35.7661 25.6549 35.571 25.6549C35.4735 25.6549 35.376 25.6549 35.2784 25.7524H34.9859C34.4983 25.7524 34.1082 25.3623 34.1082 24.9722V24.7772C34.1082 24.3871 34.2057 24.0945 34.4007 23.8019C34.5958 23.6069 34.8883 23.4118 35.2784 23.4118C35.571 23.4118 35.7661 23.4118 36.0586 23.5094C36.2537 23.5094 36.5463 23.6069 36.8388 23.6069C37.1314 23.6069 37.5215 23.6069 37.8141 23.5094C38.0091 23.5094 38.2042 23.4118 38.4967 23.4118C38.7893 23.3143 39.0819 23.5094 39.1794 23.8019C38.7893 23.8019 38.7893 23.8995 38.7893 23.997V23.997ZM40.5447 34.1395C41.6175 34.1395 42.2026 33.2617 42.2026 31.4088C42.2026 29.5558 41.6175 28.6781 40.5447 28.6781C40.0571 28.6781 39.472 28.9707 39.2769 29.4583C38.8868 30.0435 38.6918 30.7261 38.7893 31.4088C38.7893 33.2617 39.3744 34.1395 40.5447 34.1395Z" fill="white"/>
<path d="M52.1502 29.6532C52.1502 29.4582 52.2477 29.2631 52.3452 29.0681C52.0526 28.873 51.7601 28.7755 51.37 28.7755C50.7848 28.7755 50.2972 29.0681 50.0046 29.4582C49.6145 30.0433 49.4195 30.6285 49.517 31.3111C49.517 31.9938 49.7121 32.6765 50.1022 33.2616C50.4923 33.7492 50.9799 34.0418 51.565 34.0418C52.1502 34.0418 52.7353 33.6517 52.9304 33.0666C53.0279 32.774 53.2229 32.4814 53.418 32.2864C53.7105 32.0913 54.0031 31.9938 54.2957 32.0913C54.6858 32.0913 55.0759 32.1888 55.3685 32.4814C55.661 32.774 55.7585 33.0666 55.7585 33.4566C55.7585 34.3344 55.2709 35.2121 54.4907 35.6997C53.613 36.3824 52.5403 36.6749 51.4675 36.6749C50.1022 36.7725 48.8344 36.2848 47.8591 35.3096C46.8839 34.3344 46.3963 32.969 46.4938 31.6037C46.2987 28.9706 48.2492 26.63 50.8824 26.4349H51.565C52.5403 26.4349 53.5155 26.63 54.3932 27.2151C55.0759 27.7027 55.466 28.3854 55.466 29.2631C55.466 29.7507 55.2709 30.1408 54.9784 30.5309C54.5883 30.8235 54.1982 31.0186 53.7105 31.0186C53.3204 31.0186 52.9304 30.921 52.6378 30.726C52.2477 30.3359 52.1502 29.9458 52.1502 29.6532V29.6532Z" fill="white"/>
<path fill-rule="evenodd" clip-rule="evenodd" d="M61.0248 16C61.5634 16 62 16.4366 62 16.9752V42.9166C62 43.4552 61.5634 43.8918 61.0248 43.8918C60.4862 43.8918 60.0496 43.4552 60.0496 42.9166V16.9752C60.0496 16.4366 60.4862 16 61.0248 16Z" fill="#007BFF"/>
</svg>
