<svg width="20" height="20" viewBox="0 0 20 20" fill="none" xmlns="http://www.w3.org/2000/svg">
<path fill-rule="evenodd" clip-rule="evenodd" d="M10.0001 3.33335C8.23197 3.33335 6.53628 4.03573 5.28604 5.28598C4.03579 6.53622 3.33341 8.23191 3.33341 10C3.33341 10.8755 3.50585 11.7424 3.84088 12.5512C4.17592 13.3601 4.66698 14.095 5.28604 14.7141C5.90509 15.3331 6.64002 15.8242 7.44886 16.1592C8.2577 16.4942 9.1246 16.6667 10.0001 16.6667C10.8756 16.6667 11.7425 16.4942 12.5513 16.1592C13.3601 15.8242 14.0951 15.3331 14.7141 14.7141C15.3332 14.095 15.8242 13.3601 16.1593 12.5512C16.4943 11.7424 16.6667 10.8755 16.6667 10C16.6667 8.23191 15.9644 6.53622 14.7141 5.28598C13.4639 4.03573 11.7682 3.33335 10.0001 3.33335ZM4.10752 4.10746C5.67033 2.54466 7.78994 1.66669 10.0001 1.66669C12.2102 1.66669 14.3298 2.54466 15.8926 4.10746C17.4554 5.67027 18.3334 7.78988 18.3334 10C18.3334 11.0944 18.1179 12.178 17.6991 13.189C17.2803 14.2001 16.6665 15.1188 15.8926 15.8926C15.1188 16.6664 14.2002 17.2802 13.1891 17.699C12.1781 18.1178 11.0944 18.3334 10.0001 18.3334C8.90573 18.3334 7.8221 18.1178 6.81105 17.699C5.80001 17.2802 4.88135 16.6664 4.10752 15.8926C3.3337 15.1188 2.71987 14.2001 2.30109 13.189C1.8823 12.178 1.66675 11.0944 1.66675 10C1.66675 7.78988 2.54472 5.67027 4.10752 4.10746ZM10.0001 6.66669C10.4603 6.66669 10.8334 7.03978 10.8334 7.50002V9.16669H12.5001C12.9603 9.16669 13.3334 9.53978 13.3334 10C13.3334 10.4603 12.9603 10.8334 12.5001 10.8334H10.8334V12.5C10.8334 12.9603 10.4603 13.3334 10.0001 13.3334C9.53984 13.3334 9.16675 12.9603 9.16675 12.5V10.8334H7.50008C7.03984 10.8334 6.66675 10.4603 6.66675 10C6.66675 9.53978 7.03984 9.16669 7.50008 9.16669H9.16675V7.50002C9.16675 7.03978 9.53984 6.66669 10.0001 6.66669Z" fill="#007BFF"/>
</svg>
