<svg width="16" height="16" viewBox="0 0 16 16" fill="none" xmlns="http://www.w3.org/2000/svg">
<path fill-rule="evenodd" clip-rule="evenodd" d="M7.99998 2.66668C6.58549 2.66668 5.22894 3.22858 4.22874 4.22877C3.22855 5.22897 2.66665 6.58552 2.66665 8.00001C2.66665 8.70039 2.8046 9.39392 3.07262 10.041C3.34065 10.6881 3.7335 11.276 4.22874 11.7712C4.72399 12.2665 5.31193 12.6593 5.959 12.9274C6.60607 13.1954 7.2996 13.3333 7.99998 13.3333C8.70036 13.3333 9.39389 13.1954 10.041 12.9274C10.688 12.6593 11.276 12.2665 11.7712 11.7712C12.2665 11.276 12.6593 10.6881 12.9273 10.041C13.1954 9.39392 13.3333 8.70039 13.3333 8.00001C13.3333 6.58552 12.7714 5.22897 11.7712 4.22877C10.771 3.22858 9.41447 2.66668 7.99998 2.66668ZM3.28593 3.28596C4.53618 2.03572 6.23187 1.33334 7.99998 1.33334C9.76809 1.33334 11.4638 2.03572 12.714 3.28596C13.9643 4.53621 14.6666 6.2319 14.6666 8.00001C14.6666 8.87549 14.4942 9.74239 14.1592 10.5512C13.8241 11.3601 13.3331 12.095 12.714 12.7141C12.095 13.3331 11.36 13.8242 10.5512 14.1592C9.74237 14.4942 8.87546 14.6667 7.99998 14.6667C7.1245 14.6667 6.25759 14.4942 5.44876 14.1592C4.63992 13.8242 3.90499 13.3331 3.28593 12.7141C2.66688 12.095 2.17581 11.3601 1.84078 10.5512C1.50575 9.7424 1.33331 8.87549 1.33331 8.00001C1.33331 6.2319 2.03569 4.53621 3.28593 3.28596ZM7.99998 4.66668C8.36817 4.66668 8.66665 4.96515 8.66665 5.33334V7.72387L10.4714 9.52861C10.7317 9.78895 10.7317 10.2111 10.4714 10.4714C10.211 10.7318 9.78892 10.7318 9.52858 10.4714L7.52858 8.47141C7.40355 8.34639 7.33331 8.17682 7.33331 8.00001V5.33334C7.33331 4.96515 7.63179 4.66668 7.99998 4.66668Z" fill="#007BFF"/>
</svg>
