<svg width="18" height="18" viewBox="0 0 18 18" fill="none" xmlns="http://www.w3.org/2000/svg">
<path fill-rule="evenodd" clip-rule="evenodd" d="M3.8637 3.8637C4.03247 3.69497 4.26135 3.60019 4.5 3.60019C4.73864 3.60019 4.96752 3.69497 5.1363 3.8637L9 7.7274L12.8637 3.8637C12.9467 3.77774 13.046 3.70917 13.1558 3.662C13.2656 3.61484 13.3837 3.59001 13.5032 3.58897C13.6227 3.58793 13.7412 3.6107 13.8519 3.65596C13.9625 3.70121 14.0629 3.76804 14.1475 3.85254C14.232 3.93704 14.2988 4.03753 14.344 4.14814C14.3893 4.25874 14.4121 4.37726 14.411 4.49676C14.41 4.61626 14.3852 4.73436 14.338 4.84416C14.2908 4.95396 14.2223 5.05327 14.1363 5.1363L10.2726 9L14.1363 12.8637C14.3002 13.0334 14.391 13.2608 14.3889 13.4968C14.3869 13.7327 14.2922 13.9585 14.1253 14.1253C13.9585 14.2922 13.7327 14.3869 13.4968 14.3889C13.2608 14.391 13.0334 14.3002 12.8637 14.1363L9 10.2726L5.1363 14.1363C4.96655 14.3002 4.73921 14.391 4.50324 14.3889C4.26726 14.3869 4.04153 14.2922 3.87466 14.1253C3.70779 13.9585 3.61314 13.7327 3.61109 13.4968C3.60904 13.2608 3.69975 13.0334 3.8637 12.8637L7.7274 9L3.8637 5.1363C3.69497 4.96752 3.60019 4.73864 3.60019 4.5C3.60019 4.26135 3.69497 4.03247 3.8637 3.8637V3.8637Z" fill="#243B53"/>
</svg>
