<svg width="18" height="18" viewBox="0 0 18 18" fill="none" xmlns="http://www.w3.org/2000/svg">
<path d="M8.27068 16.6135H9.62428C9.93172 16.6135 10.1868 16.3622 10.1868 16.051V14.75L10.4679 14.6749C12.7626 14.0975 13.5764 12.5191 13.5764 11.3455C13.5764 9.17069 11.7015 8.26709 9.86422 7.66715C8.13946 7.09727 7.5883 6.75221 7.5883 6.24227C7.5883 5.78489 8.11696 5.32733 9.3019 5.32733C10.6067 5.32733 11.4241 5.69849 11.7728 5.85977C11.8478 5.89343 11.9265 5.91233 12.0051 5.91233C12.2226 5.91233 12.4213 5.78489 12.5151 5.58977L13.0513 4.45361C13.115 4.32239 13.1226 4.16489 13.07 4.02611C13.0212 3.88355 12.9163 3.77105 12.7813 3.70733C12.1364 3.40367 11.4353 3.20855 10.644 3.11495L10.314 3.07373V1.94513C10.314 1.63769 10.0628 1.38641 9.75154 1.38641H8.42044C8.113 1.38641 7.85794 1.63769 7.85794 1.94513V3.20117L7.57678 3.27245C5.7244 3.74117 4.6183 4.92971 4.6183 6.44837C4.6183 8.45069 6.6019 9.34295 8.54788 9.95423C10.3439 10.5392 10.5876 11.0454 10.5876 11.4653C10.5876 12.1141 9.74776 12.5864 8.59288 12.5864C7.61044 12.5864 6.55312 12.3351 5.76562 11.9152C5.68318 11.8702 5.59318 11.8477 5.4994 11.8477C5.43946 11.8477 5.37934 11.859 5.3194 11.8777C5.17324 11.9303 5.05318 12.039 4.98946 12.1814L4.47196 13.3325C4.35568 13.5987 4.45324 13.9061 4.70812 14.0487C5.36422 14.4274 6.3391 14.7086 7.3741 14.8249L7.70782 14.8587V16.051C7.70818 16.3622 7.95946 16.6135 8.27068 16.6135Z" fill="white"/>
</svg>
