<svg width="84" height="55" viewBox="0 0 84 55" fill="none" xmlns="http://www.w3.org/2000/svg">
<path fill-rule="evenodd" clip-rule="evenodd" d="M48.5951 18.3618L51.649 21.4157L50.3877 22.6769V27.0689H48.5951V18.3618Z" fill="#829AB1"/>
<path fill-rule="evenodd" clip-rule="evenodd" d="M5.48186 18.3618V27.0689H3.68921V22.6769L2.42798 21.4157L5.48186 18.3618Z" fill="#829AB1"/>
<path fill-rule="evenodd" clip-rule="evenodd" d="M14.8035 2.15112C14.8035 8.91635 20.2284 14.3412 26.9936 14.3412C33.7588 14.3412 39.1836 8.91635 39.1836 2.15112H40.9763C40.9763 9.90641 34.7489 16.1338 26.9936 16.1338C19.2383 16.1338 13.0109 9.90641 13.0109 2.15112H14.8035Z" fill="#829AB1"/>
<path fill-rule="evenodd" clip-rule="evenodd" d="M26.0973 13.9825V11.921H27.8899V13.9825H26.0973Z" fill="#829AB1"/>
<path fill-rule="evenodd" clip-rule="evenodd" d="M26.0973 44.8164V15.2375H27.8899V44.8164H26.0973Z" fill="#829AB1"/>
<path d="M29.4137 21.691C29.7602 21.691 30.0411 21.41 30.0411 21.0635C30.0411 20.717 29.7602 20.4361 29.4137 20.4361C29.0672 20.4361 28.7863 20.717 28.7863 21.0635C28.7863 21.41 29.0672 21.691 29.4137 21.691Z" fill="#555F66"/>
<path fill-rule="evenodd" clip-rule="evenodd" d="M29.4137 20.7946C29.2652 20.7946 29.1448 20.915 29.1448 21.0635C29.1448 21.212 29.2652 21.3324 29.4137 21.3324C29.5622 21.3324 29.6826 21.212 29.6826 21.0635C29.6826 20.915 29.5622 20.7946 29.4137 20.7946ZM30.0411 21.0635C30.0411 21.41 29.7602 21.691 29.4137 21.691C29.0672 21.691 28.7863 21.41 28.7863 21.0635C28.7863 20.717 29.0672 20.4361 29.4137 20.4361C29.7602 20.4361 30.0411 20.717 30.0411 21.0635Z" fill="#829AB1"/>
<path d="M29.4137 28.2342C29.7602 28.2342 30.0411 27.9533 30.0411 27.6068C30.0411 27.2603 29.7602 26.9794 29.4137 26.9794C29.0672 26.9794 28.7863 27.2603 28.7863 27.6068C28.7863 27.9533 29.0672 28.2342 29.4137 28.2342Z" fill="#555F66"/>
<path fill-rule="evenodd" clip-rule="evenodd" d="M29.4137 27.3379C29.2652 27.3379 29.1448 27.4583 29.1448 27.6068C29.1448 27.7553 29.2652 27.8757 29.4137 27.8757C29.5622 27.8757 29.6826 27.7553 29.6826 27.6068C29.6826 27.4583 29.5622 27.3379 29.4137 27.3379ZM30.0411 27.6068C30.0411 27.9533 29.7602 28.2342 29.4137 28.2342C29.0672 28.2342 28.7863 27.9533 28.7863 27.6068C28.7863 27.2603 29.0672 26.9794 29.4137 26.9794C29.7602 26.9794 30.0411 27.2603 30.0411 27.6068Z" fill="#829AB1"/>
<path d="M29.4137 34.7774C29.7602 34.7774 30.0411 34.4965 30.0411 34.15C30.0411 33.8035 29.7602 33.5226 29.4137 33.5226C29.0672 33.5226 28.7863 33.8035 28.7863 34.15C28.7863 34.4965 29.0672 34.7774 29.4137 34.7774Z" fill="#555F66"/>
<path fill-rule="evenodd" clip-rule="evenodd" d="M29.4137 33.8811C29.2652 33.8811 29.1448 34.0015 29.1448 34.15C29.1448 34.2985 29.2652 34.4189 29.4137 34.4189C29.5622 34.4189 29.6826 34.2985 29.6826 34.15C29.6826 34.0015 29.5622 33.8811 29.4137 33.8811ZM30.0411 34.15C30.0411 34.4965 29.7602 34.7774 29.4137 34.7774C29.0672 34.7774 28.7863 34.4965 28.7863 34.15C28.7863 33.8035 29.0672 33.5226 29.4137 33.5226C29.7602 33.5226 30.0411 33.8035 30.0411 34.15Z" fill="#829AB1"/>
<path d="M29.4137 41.3206C29.7602 41.3206 30.0411 41.0397 30.0411 40.6932C30.0411 40.3467 29.7602 40.0658 29.4137 40.0658C29.0672 40.0658 28.7863 40.3467 28.7863 40.6932C28.7863 41.0397 29.0672 41.3206 29.4137 41.3206Z" fill="#555F66"/>
<path fill-rule="evenodd" clip-rule="evenodd" d="M29.4137 40.4243C29.2652 40.4243 29.1448 40.5447 29.1448 40.6932C29.1448 40.8417 29.2652 40.9621 29.4137 40.9621C29.5622 40.9621 29.6826 40.8417 29.6826 40.6932C29.6826 40.5447 29.5622 40.4243 29.4137 40.4243ZM30.0411 40.6932C30.0411 41.0397 29.7602 41.3206 29.4137 41.3206C29.0672 41.3206 28.7863 41.0397 28.7863 40.6932C28.7863 40.3467 29.0672 40.0658 29.4137 40.0658C29.7602 40.0658 30.0411 40.3467 30.0411 40.6932Z" fill="#829AB1"/>
<path fill-rule="evenodd" clip-rule="evenodd" d="M28.0671 12.8131C22.1993 13.399 16.919 9.09831 16.3318 3.22623L18.1155 3.04785C18.6039 7.93114 23.0029 11.5179 27.8904 11.0292L27.8938 11.0288C32.1275 10.6218 35.4643 7.28495 35.8714 3.05125L37.6558 3.22283C37.1667 8.31038 33.1544 12.3231 28.0671 12.8131Z" fill="#829AB1"/>
<path fill-rule="evenodd" clip-rule="evenodd" d="M16.8761 0H18.5509L18.8057 0.227076C23.3957 4.31632 30.2328 4.31632 34.8228 0.227076L35.0776 0H36.7524L39.9792 1.25486H49.9523L52.7245 4.02711L52.0907 4.66091L52.7793 4.08709C53.3241 4.74093 53.721 5.58769 53.6145 6.59442V23.1253C53.6145 24.03 53.2848 24.9783 52.6552 25.6209L50.7462 27.7684V43.5615C50.7462 45.3801 49.2901 46.9676 47.3402 46.9676H6.64687C4.80735 46.9676 3.24082 45.4011 3.24082 43.5615V27.8885L0.964882 25.6126L0.938854 25.5814C0.379208 24.9098 0.0140423 24.085 0.0140423 23.1253V6.59348C-0.0952546 5.52541 0.454315 4.66854 0.938854 4.08709L0.964882 4.05586L3.76588 1.25486H13.6493L16.8761 0ZM51.4262 5.26403L49.2097 3.04752H39.6429L36.4161 1.79266H35.7541C30.5763 6.18466 23.0522 6.18466 17.8745 1.79266H17.2124L13.9856 3.04752H4.50842L2.29121 5.26473C1.907 5.7335 1.75844 6.10134 1.79978 6.43202L1.8067 6.48739V23.1253C1.8067 23.5882 1.9711 24.0089 2.29193 24.4045L5.03348 27.146V43.5615C5.03348 44.411 5.79741 45.1749 6.64687 45.1749H47.3402C48.2585 45.1749 48.9536 44.432 48.9536 43.5615V27.0869L51.3486 24.3924L51.3673 24.3738C51.6208 24.1203 51.8218 23.645 51.8218 23.1253V6.48739L51.8287 6.43202C51.8777 6.04058 51.7492 5.6621 51.4262 5.26403Z" fill="#829AB1"/>
<path d="M80.0562 39.6177V51.0011C80.0562 52.7041 78.7117 54.0486 77.0086 54.0486H46.2646C44.5616 54.0486 43.2171 52.7041 43.2171 51.0011V39.6177L40.7074 37.108C40.3488 36.7495 40.1696 36.3013 40.1696 35.7635V23.7527C40.1696 23.3045 40.3488 22.7667 40.7074 22.4082L43.2171 19.8985H52.4493V17.3888C52.4493 16.6717 52.9871 16.1339 53.7041 16.1339H69.5691C70.2862 16.1339 70.824 16.6717 70.824 17.2991V19.7192H80.0562L82.5659 22.2289C82.9244 22.5875 83.1037 23.0356 83.1037 23.5734V35.5842C83.1037 36.0324 82.9244 36.5702 82.5659 36.9287L80.0562 39.6177V39.6177Z" fill="white"/>
<path fill-rule="evenodd" clip-rule="evenodd" d="M44.0239 34.9568V39.6177H42.2312V34.9568H44.0239Z" fill="#829AB1"/>
<path fill-rule="evenodd" clip-rule="evenodd" d="M60.6954 52.2559V24.8282H62.4881V52.2559H60.6954Z" fill="#829AB1"/>
<path fill-rule="evenodd" clip-rule="evenodd" d="M53.3823 18.4902L54.3847 17.004L61.5919 21.8647L68.7992 17.004L69.8015 18.4902L61.5919 24.0269L53.3823 18.4902Z" fill="#829AB1"/>
<path fill-rule="evenodd" clip-rule="evenodd" d="M51.726 20.5323L52.9936 19.2647L58.5444 24.8156L61.5919 21.7681L64.6394 24.8156L70.1903 19.2647L71.4579 20.5323L64.6394 27.3508L61.5919 24.3033L58.5444 27.3508L51.726 20.5323Z" fill="#829AB1"/>
<path fill-rule="evenodd" clip-rule="evenodd" d="M53.7041 17.0302C53.482 17.0302 53.3455 17.1667 53.3455 17.3887V20.7948H43.5883L41.3411 23.042C41.176 23.2071 41.0658 23.5038 41.0658 23.7527V35.7635C41.0658 36.0795 41.1617 36.2947 41.3411 36.4742L44.1134 39.2464V51.001C44.1134 52.209 45.0566 53.1522 46.2646 53.1522H77.0086C78.2166 53.1522 79.1598 52.209 79.1598 51.001V39.6177H80.0561L79.4009 39.0061L81.9211 36.3058L81.932 36.2949C82.0971 36.1298 82.2073 35.8331 82.2073 35.5842V23.5734C82.2073 23.2573 82.1115 23.0422 81.932 22.8627L79.6848 20.6155H69.9276V17.2991C69.9276 17.2095 69.835 17.0302 69.5691 17.0302H53.7041ZM80.9524 39.971V51.001C80.9524 53.1991 79.2067 54.9449 77.0086 54.9449H46.2646C44.0665 54.9449 42.3207 53.1991 42.3207 51.001V39.9889L40.0735 37.7418C39.5359 37.2041 39.2732 36.523 39.2732 35.7635V23.7527C39.2732 23.1052 39.5215 22.3264 40.0735 21.7744L42.8458 19.0021H51.5529V17.3887C51.5529 16.1766 52.492 15.2375 53.7041 15.2375H69.5691C70.7373 15.2375 71.7203 16.1339 71.7203 17.2991V18.8229H80.4274L83.1996 21.5951C83.7373 22.1327 84 22.8139 84 23.5734V35.5842C84 36.2269 83.7553 36.9991 83.2118 37.5503L80.9524 39.971Z" fill="#829AB1"/>
<path fill-rule="evenodd" clip-rule="evenodd" d="M71.6307 32.7928L77.3799 38.542H65.8815L71.6307 32.7928ZM70.2093 36.7494H73.0521L71.6307 35.328L70.2093 36.7494Z" fill="#007BFF"/>
<path fill-rule="evenodd" clip-rule="evenodd" d="M77.3673 38.5421H65.8943V36.7495H77.3673V38.5421Z" fill="#829AB1"/>
</svg>
