<svg width="40" height="40" viewBox="0 0 40 40" fill="none" xmlns="http://www.w3.org/2000/svg">
<path d="M17.9166 7.49998C17.9166 6.39491 17.4776 5.3351 16.6962 4.5537C15.9148 3.7723 14.855 3.33331 13.7499 3.33331H7.49992C6.39485 3.33331 5.33504 3.7723 4.55364 4.5537C3.77224 5.3351 3.33325 6.39491 3.33325 7.49998V29.375C3.33325 31.3088 4.10148 33.1635 5.46893 34.531C6.83638 35.8984 8.69105 36.6666 10.6249 36.6666C12.5588 36.6666 14.4135 35.8984 15.7809 34.531C17.1484 33.1635 17.9166 31.3088 17.9166 29.375V7.49998ZM10.6249 32.5C10.0069 32.5 9.40266 32.3167 8.88876 31.9733C8.37486 31.6299 7.97432 31.1419 7.73779 30.5709C7.50127 29.9998 7.43939 29.3715 7.55996 28.7653C7.68054 28.1591 7.97817 27.6023 8.41521 27.1653C8.85225 26.7282 9.40907 26.4306 10.0153 26.31C10.6215 26.1894 11.2498 26.2513 11.8208 26.4879C12.3918 26.7244 12.8799 27.1249 13.2233 27.6388C13.5666 28.1527 13.7499 28.7569 13.7499 29.375C13.7499 30.2038 13.4207 30.9986 12.8346 31.5847C12.2486 32.1707 11.4537 32.5 10.6249 32.5V32.5ZM31.249 19.063L21.0416 29.2703V8.6655C21.8285 7.92531 22.8726 7.52034 23.9528 7.53628C25.033 7.55222 26.0646 7.98783 26.8294 8.75092L31.249 13.1704C32.0303 13.9518 32.4693 15.0116 32.4693 16.1167C32.4693 17.2217 32.0303 18.2815 31.249 19.063V19.063ZM36.6666 26.25V32.5C36.6666 33.605 36.2276 34.6649 35.4462 35.4463C34.6648 36.2277 33.605 36.6666 32.4999 36.6666H18.043L32.6147 22.0949C33.6983 22.1231 34.7281 22.5732 35.4849 23.3492C36.2416 24.1253 36.6656 25.166 36.6666 26.25V26.25Z" fill="white"/>
</svg>
