<svg width="40" height="40" viewBox="0 0 40 40" fill="none" xmlns="http://www.w3.org/2000/svg">
<path d="M31.0257 4.61554H29.7437V7.17964C29.7437 8.19971 29.3385 9.17799 28.6172 9.89928C27.8959 10.6206 26.9176 11.0258 25.8975 11.0258H15.6411C14.621 11.0258 13.6428 10.6206 12.9215 9.89928C12.2002 9.17799 11.795 8.19971 11.795 7.17964V4.61554H10.5129C9.49284 4.61554 8.51455 5.02076 7.79326 5.74205C7.07197 6.46335 6.66675 7.44163 6.66675 8.46169V32.8207C6.66675 33.8407 7.07197 34.819 7.79326 35.5403C8.51455 36.2616 9.49284 36.6668 10.5129 36.6668H31.0257C32.0458 36.6668 33.0241 36.2616 33.7454 35.5403C34.4667 34.819 34.8719 33.8407 34.8719 32.8207V8.46169C34.8719 7.44163 34.4667 6.46335 33.7454 5.74205C33.0241 5.02076 32.0458 4.61554 31.0257 4.61554V4.61554ZM13.077 16.154H20.7693C21.1093 16.154 21.4354 16.2891 21.6759 16.5295C21.9163 16.7699 22.0514 17.096 22.0514 17.4361C22.0514 17.7761 21.9163 18.1022 21.6759 18.3426C21.4354 18.583 21.1093 18.7181 20.7693 18.7181H13.077C12.737 18.7181 12.4109 18.583 12.1705 18.3426C11.93 18.1022 11.795 17.7761 11.795 17.4361C11.795 17.096 11.93 16.7699 12.1705 16.5295C12.4109 16.2891 12.737 16.154 13.077 16.154V16.154ZM13.077 22.5643H20.7693C21.1093 22.5643 21.4354 22.6993 21.6759 22.9398C21.9163 23.1802 22.0514 23.5063 22.0514 23.8463C22.0514 24.1863 21.9163 24.5124 21.6759 24.7529C21.4354 24.9933 21.1093 25.1284 20.7693 25.1284H13.077C12.737 25.1284 12.4109 24.9933 12.1705 24.7529C11.93 24.5124 11.795 24.1863 11.795 23.8463C11.795 23.5063 11.93 23.1802 12.1705 22.9398C12.4109 22.6993 12.737 22.5643 13.077 22.5643V22.5643ZM24.6155 31.5386H13.077C12.737 31.5386 12.4109 31.4035 12.1705 31.1631C11.93 30.9227 11.795 30.5966 11.795 30.2566C11.795 29.9165 11.93 29.5905 12.1705 29.35C12.4109 29.1096 12.737 28.9745 13.077 28.9745H24.6155C24.9555 28.9745 25.2816 29.1096 25.522 29.35C25.7624 29.5905 25.8975 29.9165 25.8975 30.2566C25.8975 30.5966 25.7624 30.9227 25.522 31.1631C25.2816 31.4035 24.9555 31.5386 24.6155 31.5386Z" fill="white"/>
<path d="M25.8976 3.33337H15.6412C14.9331 3.33337 14.3591 3.90737 14.3591 4.61543V7.17953C14.3591 7.88759 14.9331 8.46158 15.6412 8.46158H25.8976C26.6056 8.46158 27.1796 7.88759 27.1796 7.17953V4.61543C27.1796 3.90737 26.6056 3.33337 25.8976 3.33337Z" fill="white"/>
</svg>
