<svg width="40" height="40" viewBox="0 0 40 40" fill="none" xmlns="http://www.w3.org/2000/svg">
<path d="M32.809 36.6667H24.7859C24.4796 36.6659 24.1861 36.5436 23.97 36.3267L22.2701 34.6269C22.0532 34.4107 21.9309 34.1172 21.9302 33.811V15.368C21.9309 15.0617 22.0532 14.7682 22.2701 14.552L23.97 12.8522C24.1861 12.6353 24.4796 12.513 24.7859 12.5123H32.826C33.1323 12.513 33.4257 12.6353 33.6419 12.8522L35.3417 14.552C35.5587 14.7682 35.6809 15.0617 35.6817 15.368V33.811C35.6809 34.1172 35.5587 34.4107 35.3417 34.6269L33.6419 36.3267C33.5329 36.4362 33.403 36.5227 33.2599 36.581C33.1168 36.6394 32.9635 36.6686 32.809 36.6667V36.6667ZM27.5056 31.9242H30.0723C30.2977 31.9242 30.5139 31.8346 30.6733 31.6752C30.8327 31.5159 30.9222 31.2997 30.9222 31.0743V18.1047C30.9222 17.8793 30.8327 17.6631 30.6733 17.5037C30.5139 17.3443 30.2977 17.2548 30.0723 17.2548H27.5226C27.2972 17.2548 27.081 17.3443 26.9216 17.5037C26.7622 17.6631 26.6727 17.8793 26.6727 18.1047V31.0743C26.6727 31.2997 26.7622 31.5159 26.9216 31.6752C27.081 31.8346 27.2972 31.9242 27.5226 31.9242H27.5056Z" fill="white"/>
<path d="M15.8958 36.6667H7.85569C7.54942 36.6659 7.25597 36.5436 7.03978 36.3267L5.33996 34.6269C5.12302 34.4107 5.00075 34.1172 5 33.811V15.368C5.00075 15.0617 5.12302 14.7682 5.33996 14.552L7.03978 12.8522C7.25597 12.6353 7.54942 12.513 7.85569 12.5123H15.8958C16.2021 12.513 16.4956 12.6353 16.7117 12.8522L18.4116 14.552C18.6285 14.7682 18.7508 15.0617 18.7515 15.368V33.811C18.7508 34.1172 18.6285 34.4107 18.4116 34.6269L16.7117 36.3267C16.4956 36.5436 16.2021 36.6659 15.8958 36.6667V36.6667ZM10.5924 31.9242H13.1591C13.3845 31.9242 13.6007 31.8346 13.7601 31.6752C13.9195 31.5159 14.009 31.2997 14.009 31.0743V18.1047C14.009 17.8793 13.9195 17.6631 13.7601 17.5037C13.6007 17.3443 13.3845 17.2548 13.1591 17.2548H10.5924C10.367 17.2548 10.1508 17.3443 9.99142 17.5037C9.83203 17.6631 9.74249 17.8793 9.74249 18.1047V31.0743C9.74249 31.2997 9.83203 31.5159 9.99142 31.6752C10.1508 31.8346 10.367 31.9242 10.5924 31.9242Z" fill="white"/>
<path d="M8.6755 7.05505V4.50762H8.42122C8.2178 4.50762 8.07139 4.46756 7.98201 4.38742C7.89571 4.30728 7.85256 4.17783 7.85256 3.99906C7.85256 3.8203 7.89571 3.69085 7.98201 3.61071C8.07139 3.52749 8.2178 3.48588 8.42122 3.48588H9.73423C9.93457 3.48588 10.0794 3.52749 10.1688 3.61071C10.2582 3.69085 10.3029 3.8203 10.3029 3.99906C10.3029 4.16242 10.2597 4.28879 10.1734 4.37817C10.0902 4.46447 9.97002 4.50762 9.81283 4.50762H9.73423V8.70556C9.73423 8.85042 9.71882 8.94134 9.688 8.97833C9.65718 9.01531 9.58783 9.03381 9.47995 9.03381H9.01762C8.86968 9.03381 8.76488 9.0184 8.70324 8.98758C8.64468 8.95675 8.59382 8.90282 8.55067 8.82576L6.62739 5.44615V7.95659H6.89554C7.09588 7.95659 7.2392 7.99511 7.32551 8.07217C7.41181 8.14922 7.45496 8.27713 7.45496 8.4559C7.45496 8.63775 7.41027 8.76874 7.32088 8.84888C7.23458 8.92901 7.0928 8.96908 6.89554 8.96908H5.56866C5.36832 8.96908 5.22346 8.92901 5.13407 8.84888C5.04469 8.76874 5 8.63775 5 8.4559C5 8.29254 5.04161 8.16926 5.12483 8.08604C5.20805 7.99974 5.33133 7.95659 5.49469 7.95659H5.56866V4.50762H5.49469C5.3375 4.50762 5.21575 4.46447 5.12945 4.37817C5.04315 4.28879 5 4.16242 5 3.99906C5 3.8203 5.04469 3.69085 5.13407 3.61071C5.22654 3.52749 5.3714 3.48588 5.56866 3.48588H6.32688C6.50873 3.48588 6.63202 3.51054 6.69674 3.55985C6.76147 3.60609 6.8339 3.70163 6.91403 3.8465L8.6755 7.05505Z" fill="white"/>
<path d="M16.3771 7.95659H16.4557C16.6222 7.95659 16.7485 7.99974 16.8348 8.08604C16.9211 8.16926 16.9643 8.29254 16.9643 8.4559C16.9643 8.63775 16.9181 8.76874 16.8256 8.84888C16.7362 8.92901 16.5867 8.96908 16.3771 8.96908H14.9855C14.7729 8.96908 14.6218 8.93055 14.5324 8.8535C14.4431 8.77336 14.3984 8.64083 14.3984 8.4559C14.3984 8.27713 14.4431 8.14922 14.5324 8.07217C14.6218 7.99511 14.7729 7.95659 14.9855 7.95659H15.1473L14.9578 7.41566H12.9605L12.7617 7.95659H12.9235C13.1331 7.95659 13.2826 7.99665 13.372 8.07679C13.4645 8.15385 13.5107 8.28021 13.5107 8.4559C13.5107 8.63775 13.4645 8.76874 13.372 8.84888C13.2826 8.92901 13.1331 8.96908 12.9235 8.96908H11.7307C11.5181 8.96908 11.367 8.92901 11.2777 8.84888C11.1883 8.76874 11.1436 8.63775 11.1436 8.4559C11.1436 8.29254 11.1867 8.16926 11.273 8.08604C11.3593 7.99974 11.4857 7.95659 11.6521 7.95659H11.7307L12.9698 4.50762H12.5999C12.3903 4.50762 12.2393 4.46756 12.1468 4.38742C12.0575 4.30728 12.0128 4.17783 12.0128 3.99906C12.0128 3.81722 12.0575 3.68622 12.1468 3.60609C12.2393 3.52595 12.3903 3.48588 12.5999 3.48588H14.3336C14.608 3.48588 14.8006 3.63383 14.9116 3.92972V3.94358L16.3771 7.95659ZM13.9545 4.50762L13.2842 6.45865H14.6249L13.9545 4.50762Z" fill="white"/>
<path d="M20.5004 6.60197L21.3834 3.98057C21.4389 3.80797 21.5159 3.68314 21.6146 3.60609C21.7132 3.52595 21.8442 3.48588 22.0075 3.48588H22.7288C22.9384 3.48588 23.0878 3.52595 23.1772 3.60609C23.2697 3.68622 23.3159 3.81722 23.3159 3.99906C23.3159 4.1655 23.2712 4.29187 23.1818 4.37817C23.0955 4.46447 22.9692 4.50762 22.8027 4.50762H22.7288L22.8582 7.95659H22.9368C23.1033 7.95659 23.2281 7.99974 23.3113 8.08604C23.3945 8.16926 23.4361 8.29254 23.4361 8.4559C23.4361 8.63775 23.3914 8.76874 23.3021 8.84888C23.2158 8.92901 23.0678 8.96908 22.8582 8.96908H21.818C21.6084 8.96908 21.4589 8.93055 21.3695 8.8535C21.2832 8.77336 21.2401 8.64083 21.2401 8.4559C21.2401 8.29254 21.2817 8.16926 21.3649 8.08604C21.4512 7.99974 21.5776 7.95659 21.744 7.95659H21.818L21.7533 5.13639L21.0783 7.23535C21.0289 7.39255 20.9581 7.50659 20.8656 7.57748C20.7762 7.64529 20.6514 7.67919 20.4911 7.67919C20.3308 7.67919 20.2029 7.64529 20.1074 7.57748C20.0149 7.50659 19.944 7.39255 19.8947 7.23535L19.2243 5.13639L19.1596 7.95659H19.2336C19.4 7.95659 19.5248 7.99974 19.6081 8.08604C19.6944 8.16926 19.7375 8.29254 19.7375 8.4559C19.7375 8.63775 19.6928 8.76874 19.6034 8.84888C19.5141 8.92901 19.3661 8.96908 19.1596 8.96908H18.1147C17.9082 8.96908 17.7603 8.92901 17.6709 8.84888C17.5815 8.76874 17.5368 8.63775 17.5368 8.4559C17.5368 8.29254 17.5784 8.16926 17.6617 8.08604C17.748 7.99974 17.8743 7.95659 18.0408 7.95659H18.1147L18.2488 4.50762H18.1748C18.0084 4.50762 17.8805 4.46447 17.7911 4.37817C17.7048 4.29187 17.6617 4.1655 17.6617 3.99906C17.6617 3.81722 17.7064 3.68622 17.7957 3.60609C17.8882 3.52595 18.0392 3.48588 18.2488 3.48588H18.97C19.1303 3.48588 19.2582 3.52441 19.3538 3.60146C19.4524 3.67852 19.5325 3.80489 19.5942 3.98057L20.5004 6.60197Z" fill="white"/>
<path d="M28.2621 4.46139H26.1123V5.64495H26.926V5.58947C26.926 5.41379 26.9645 5.28279 27.0415 5.19649C27.1186 5.11019 27.2357 5.06704 27.3929 5.06704C27.5316 5.06704 27.6441 5.10711 27.7304 5.18725C27.8198 5.2643 27.8645 5.36293 27.8645 5.48313C27.8645 5.4893 27.866 5.50933 27.8691 5.54324C27.8722 5.57714 27.8737 5.61105 27.8737 5.64495V6.60197C27.8737 6.80847 27.8367 6.95642 27.7628 7.0458C27.6888 7.13518 27.5686 7.17988 27.4022 7.17988C27.245 7.17988 27.1263 7.13827 27.0462 7.05505C26.966 6.97183 26.926 6.84854 26.926 6.68519V6.60197H26.1123V7.98433H28.2621V7.43416C28.2621 7.22765 28.3006 7.0797 28.3777 6.99032C28.4578 6.90094 28.5873 6.85625 28.766 6.85625C28.9417 6.85625 29.0665 6.90094 29.1405 6.99032C29.2176 7.07662 29.2561 7.22457 29.2561 7.43416V8.55299C29.2561 8.71943 29.2237 8.83038 29.159 8.88586C29.0943 8.94134 28.9664 8.96908 28.7753 8.96908H24.9888C24.7854 8.96908 24.639 8.92901 24.5496 8.84888C24.4633 8.76874 24.4201 8.63775 24.4201 8.4559C24.4201 8.29254 24.4618 8.16926 24.545 8.08604C24.6282 7.99974 24.7499 7.95659 24.9102 7.95659H24.9888V4.50762H24.9102C24.753 4.50762 24.6313 4.46447 24.545 4.37817C24.4618 4.28879 24.4201 4.16242 24.4201 3.99906C24.4201 3.8203 24.4648 3.69085 24.5542 3.61071C24.6436 3.52749 24.7885 3.48588 24.9888 3.48588H28.7753C28.9633 3.48588 29.0897 3.51516 29.1544 3.57372C29.2222 3.6292 29.2561 3.7417 29.2561 3.91122V4.94684C29.2561 5.15642 29.2176 5.30745 29.1405 5.39992C29.0635 5.4893 28.9386 5.53399 28.766 5.53399C28.5873 5.53399 28.4578 5.48776 28.3777 5.39529C28.3006 5.30283 28.2621 5.15334 28.2621 4.94684V4.46139Z" fill="white"/>
<path d="M34.5351 3.59222C34.5814 3.49359 34.6338 3.42578 34.6923 3.38879C34.7509 3.35181 34.8403 3.33331 34.9605 3.33331C35.1392 3.33331 35.2533 3.36722 35.3026 3.43502C35.355 3.49975 35.3843 3.63074 35.3904 3.828L35.4089 4.71567V4.76653C35.4089 4.94838 35.3719 5.07629 35.298 5.15026C35.2271 5.22115 35.1053 5.25659 34.9327 5.25659C34.7139 5.25659 34.5505 5.13947 34.4427 4.90523C34.4272 4.87132 34.4149 4.84358 34.4057 4.82201C34.3101 4.63091 34.1807 4.48759 34.0173 4.39204C33.854 4.29341 33.6613 4.2441 33.4394 4.2441C33.162 4.2441 32.937 4.30882 32.7644 4.43828C32.5949 4.56464 32.5101 4.728 32.5101 4.92834C32.5101 5.2119 32.9016 5.43536 33.6844 5.59872C33.817 5.62646 33.9218 5.64803 33.9988 5.66344C34.5906 5.79289 35.019 5.99015 35.2841 6.25522C35.5492 6.52029 35.6817 6.88245 35.6817 7.34169C35.6817 7.90881 35.4891 8.34648 35.1038 8.6547C34.7185 8.95984 34.1668 9.1124 33.4487 9.1124C33.1682 9.1124 32.917 9.09391 32.6951 9.05692C32.4762 9.01994 32.2636 8.96292 32.0571 8.88586C32.0077 8.966 31.9507 9.02302 31.886 9.05692C31.8213 9.09391 31.7319 9.1124 31.6178 9.1124C31.4237 9.1124 31.288 9.07542 31.211 9.00144C31.1339 8.92747 31.0939 8.79648 31.0908 8.60847L31.0723 7.522V7.47114C31.0723 7.26772 31.1093 7.12594 31.1833 7.0458C31.2603 6.96566 31.3928 6.9256 31.5809 6.9256C31.7812 6.9256 31.9492 7.07046 32.0848 7.36018C32.1156 7.43107 32.1403 7.48501 32.1588 7.522C32.279 7.75933 32.4454 7.93655 32.6581 8.05367C32.8738 8.1708 33.1374 8.22936 33.4487 8.22936C33.7322 8.22936 33.9526 8.1708 34.1098 8.05367C34.267 7.93655 34.3456 7.77165 34.3456 7.55898C34.3456 7.22919 33.9896 6.97953 33.2776 6.81001C33.0649 6.7607 32.8969 6.71909 32.7737 6.68519C32.1757 6.52799 31.7612 6.33228 31.53 6.09803C31.2988 5.8607 31.1833 5.53707 31.1833 5.12714C31.1833 4.60009 31.3805 4.17013 31.775 3.83725C32.1726 3.50129 32.6858 3.33331 33.3146 3.33331C33.5242 3.33331 33.7291 3.35489 33.9295 3.39804C34.1329 3.44119 34.3348 3.50592 34.5351 3.59222Z" fill="white"/>
</svg>
