<svg width="20" height="20" viewBox="0 0 20 20" fill="none" xmlns="http://www.w3.org/2000/svg">
<path fill-rule="evenodd" clip-rule="evenodd" d="M8.33335 3.33335C7.00727 3.33335 5.7355 3.86014 4.79782 4.79782C3.86014 5.7355 3.33335 7.00727 3.33335 8.33335C3.33335 8.98996 3.46268 9.64014 3.71396 10.2468C3.96523 10.8534 4.33353 11.4046 4.79782 11.8689C5.26211 12.3332 5.81331 12.7015 6.41994 12.9528C7.02656 13.204 7.67674 13.3334 8.33335 13.3334C8.98996 13.3334 9.64014 13.204 10.2468 12.9528C10.8534 12.7015 11.4046 12.3332 11.8689 11.8689C12.3332 11.4046 12.7015 10.8534 12.9528 10.2468C13.204 9.64014 13.3334 8.98996 13.3334 8.33335C13.3334 7.00727 12.8066 5.7355 11.8689 4.79782C10.9312 3.86014 9.65944 3.33335 8.33335 3.33335ZM3.61931 3.61931C4.86955 2.36907 6.56524 1.66669 8.33335 1.66669C10.1015 1.66669 11.7972 2.36907 13.0474 3.61931C14.2976 4.86955 15 6.56524 15 8.33335C15 9.20883 14.8276 10.0757 14.4926 10.8846C14.2644 11.4355 13.9638 11.9521 13.5997 12.4212L18.0893 16.9108C18.4147 17.2362 18.4147 17.7638 18.0893 18.0893C17.7638 18.4147 17.2362 18.4147 16.9108 18.0893L12.4212 13.5997C11.9521 13.9638 11.4355 14.2644 10.8846 14.4926C10.0757 14.8276 9.20883 15 8.33335 15C7.45788 15 6.59097 14.8276 5.78213 14.4926C4.97329 14.1575 4.23837 13.6665 3.61931 13.0474C3.00025 12.4283 2.50919 11.6934 2.17416 10.8846C1.83913 10.0757 1.66669 9.20883 1.66669 8.33335C1.66669 6.56524 2.36907 4.86955 3.61931 3.61931ZM8.33335 5.00002C8.79359 5.00002 9.16669 5.37312 9.16669 5.83335V7.50002H10.8334C11.2936 7.50002 11.6667 7.87312 11.6667 8.33335C11.6667 8.79359 11.2936 9.16669 10.8334 9.16669H9.16669V10.8334C9.16669 11.2936 8.79359 11.6667 8.33335 11.6667C7.87312 11.6667 7.50002 11.2936 7.50002 10.8334V9.16669H5.83335C5.37312 9.16669 5.00002 8.79359 5.00002 8.33335C5.00002 7.87312 5.37312 7.50002 5.83335 7.50002H7.50002V5.83335C7.50002 5.37312 7.87312 5.00002 8.33335 5.00002Z" fill="#334E68"/>
</svg>
